<?xml version="1.0" encoding="UTF-8" standalone="no"?>
<!DOCTYPE svg PUBLIC "-//W3C//DTD SVG 1.1//EN" "http://www.w3.org/Graphics/SVG/1.1/DTD/svg11.dtd">
<svg xmlns="http://www.w3.org/2000/svg" version="1.1" viewBox="0 0 317 383">
<g stroke-width="2.00" fill="none" stroke-linecap="butt">
<path stroke="#3d5865" vector-effect="non-scaling-stroke" d="
  M 248.05 17.77
  Q 247.07 21.07 243.61 21.46
  A 1.26 1.26 -4.0 0 1 242.21 20.25
  Q 241.92 11.70 245.82 4.01
  A 0.42 0.41 22.3 0 0 245.57 3.43
  Q 244.28 3.04 243.46 2.25"
/>
<path stroke="#2a5461" vector-effect="non-scaling-stroke" d="
  M 255.63 13.06
  Q 254.25 28.49 255.08 42.25
  C 255.58 50.54 254.31 57.02 259.32 63.69
  C 265.89 72.40 269.20 79.80 274.40 91.56
  Q 286.42 118.77 294.99 147.29
  Q 296.15 151.12 298.11 154.15
  C 302.62 161.08 307.00 166.38 308.69 174.80
  Q 310.26 182.62 308.32 194.96
  C 306.39 207.25 293.41 212.82 282.10 212.81
  C 277.11 212.80 273.78 212.64 270.40 209.34
  Q 262.99 202.10 262.24 192.37
  A 2.33 2.33 12.3 0 0 261.03 190.49
  C 255.91 187.69 249.80 186.42 245.28 184.15
  C 230.80 176.88 219.10 164.94 209.14 151.10
  C 207.25 148.49 205.98 147.82 203.36 150.17
  Q 194.90 157.77 193.36 159.91
  Q 180.97 177.09 182.33 197.44
  Q 184.02 222.80 195.41 246.65
  C 199.25 254.69 204.98 263.85 210.00 272.24
  Q 211.89 275.40 215.50 275.46"
/>
<path stroke="#161f30" vector-effect="non-scaling-stroke" d="
  M 215.50 275.46
  L 219.44 275.25
  A 0.61 0.53 -3.0 0 0 220.02 274.69
  Q 220.00 274.34 219.75 274.04"
/>
<path stroke="#2f545d" vector-effect="non-scaling-stroke" d="
  M 240.54 273.70
  Q 242.03 295.80 241.05 318.03
  Q 240.92 320.98 243.77 321.75
  Q 245.70 322.26 249.25 322.29
  Q 264.50 322.39 279.75 321.96"
/>
<path stroke="#234c5d" vector-effect="non-scaling-stroke" d="
  M 279.75 321.96
  Q 281.95 321.92 281.97 323.81
  Q 282.12 334.70 281.95 377.06
  Q 281.94 379.43 280.50 380.54"
/>
<path stroke="#020c0f" vector-effect="non-scaling-stroke" d="
  M 280.50 380.54
  L 266.72 379.37
  A 0.53 0.43 -89.7 0 1 266.32 378.87
  C 266.30 378.25 265.99 378.14 265.40 378.09
  C 254.49 377.26 243.53 375.48 232.82 375.49
  Q 224.84 375.49 216.86 375.52
  C 210.79 375.55 199.42 376.23 190.68 375.70
  Q 185.38 375.38 175.00 375.96
  C 163.84 376.58 149.76 375.52 138.92 375.53
  Q 92.34 375.58 45.77 375.52
  A 1.67 0.87 -47.0 0 0 44.95 375.81
  Q 44.70 375.96 44.50 375.97
  C 35.44 376.38 26.13 375.85 17.44 375.99
  Q 10.98 376.10 4.69 375.95
  A 1.03 1.02 -89.7 0 1 3.70 374.94
  L 3.55 362.72
  A 0.84 0.76 -79.6 0 0 3.10 361.99
  Q 2.08 361.52 2.62 362.76
  A 1.99 1.30 47.2 0 1 2.78 363.71
  Q 2.57 365.52 1.80 367.18
  C 0.16 370.76 0.39 374.90 0.29 378.75"
/>
<path stroke="#2e333f" vector-effect="non-scaling-stroke" d="
  M 68.84 273.80
  Q 67.34 273.88 67.27 274.96
  A 0.50 0.48 88.6 0 0 67.80 275.48
  L 70.45 275.22
  A 0.57 0.42 83.7 0 0 70.81 274.60
  L 70.49 272.29
  Q 70.41 271.66 70.22 271.36
  C 68.41 268.57 65.79 266.21 64.18 263.65
  C 56.66 251.66 52.48 239.54 48.88 225.92
  C 47.13 219.33 47.44 212.62 47.05 205.80
  C 46.61 198.01 47.14 190.70 47.55 183.07
  Q 47.61 181.76 46.25 181.71"
/>
<path stroke="#161f30" vector-effect="non-scaling-stroke" d="
  M 102.05 77.05
  Q 108.93 73.27 113.45 66.86"
/>
<path stroke="#161f30" vector-effect="non-scaling-stroke" d="
  M 119.06 62.83
  Q 122.81 62.10 125.87 59.89
  C 129.11 57.55 135.09 54.60 138.95 53.55
  C 146.47 51.49 152.96 47.33 160.44 45.89
  Q 166.15 44.79 171.53 42.50
  C 172.63 42.03 176.00 42.32 177.78 41.90
  Q 187.62 39.57 197.64 38.21
  C 199.73 37.92 201.13 37.05 203.53 38.07
  A 1.73 1.31 43.7 0 0 204.48 38.18
  C 208.77 37.25 215.25 33.17 214.71 28.00"
/>
<path stroke="#426673" vector-effect="non-scaling-stroke" d="
  M 214.71 28.00
  C 216.10 25.40 213.98 24.83 211.97 24.87
  C 195.21 25.18 178.66 27.93 162.39 31.78
  C 127.16 40.13 96.29 60.78 73.21 88.50"
/>
<path stroke="#345f6b" vector-effect="non-scaling-stroke" d="
  M 73.21 88.50
  Q 57.76 108.50 49.95 128.70
  C 46.20 138.41 43.68 149.97 40.07 162.87
  Q 39.51 164.88 39.54 167.76
  Q 39.59 172.05 37.98 181.69
  C 35.64 195.67 36.39 208.26 37.46 222.25"
/>
<path stroke="#162636" stroke-opacity="0.965" vector-effect="non-scaling-stroke" d="
  M 37.46 222.25
  Q 36.63 223.27 36.54 224.58
  A 1.19 0.55 85.1 0 1 36.26 225.35
  Q 36.07 225.51 35.84 225.53
  A 0.68 0.42 81.2 0 1 35.34 224.94
  L 34.35 218.79
  A 0.72 0.72 89.5 0 0 33.73 218.18
  Q 33.10 218.11 32.96 218.75"
/>
<path stroke="#101525" vector-effect="non-scaling-stroke" d="
  M 32.88 213.32
  Q 34.16 208.72 32.46 204.74
  Q 32.10 203.89 30.79 204.25"
/>
<path stroke="#101525" vector-effect="non-scaling-stroke" d="
  M 31.02 191.87
  Q 33.43 189.05 32.53 184.97
  Q 32.42 184.48 32.55 184.01
  C 33.05 182.13 34.73 176.67 31.79 176.25"
/>
<path stroke="#2a5461" vector-effect="non-scaling-stroke" d="
  M 32.54 169.00
  Q 33.70 167.61 33.13 166.17
  C 31.60 162.31 23.27 164.06 20.28 165.57"
/>
<path stroke="#426673" vector-effect="non-scaling-stroke" d="
  M 31.87 146.44
  Q 34.35 142.62 29.49 142.49
  C 27.89 142.45 23.17 143.52 21.34 142.27
  Q 19.80 141.21 19.91 138.99"
/>
<path stroke="#4c626f" vector-effect="non-scaling-stroke" d="
  M 36.19 126.85
  Q 39.78 126.61 38.97 122.63
  A 1.37 1.35 -77.0 0 0 38.47 121.82
  Q 35.39 119.39 30.50 119.02
  Q 27.06 118.76 27.07 114.70"
/>
<path stroke="#3d5865" vector-effect="non-scaling-stroke" d="
  M 42.78 106.56
  Q 47.05 106.35 45.15 101.50
  A 1.13 0.98 85.0 0 0 44.49 100.86
  L 38.25 98.96"
/>
<path stroke="#162636" stroke-opacity="0.965" vector-effect="non-scaling-stroke" d="
  M 38.25 98.96
  Q 35.48 98.07 33.18 95.79"
/>
<path stroke="#3d5865" vector-effect="non-scaling-stroke" d="
  M 51.97 89.50
  Q 54.44 90.50 56.77 89.01
  A 1.43 1.42 -8.3 0 0 57.34 88.25
  Q 57.92 86.40 57.58 84.50
  A 0.85 0.82 -86.8 0 0 57.01 83.84
  L 45.75 80.46"
/>
<path stroke="#161f30" vector-effect="non-scaling-stroke" d="
  M 45.75 80.46
  Q 43.29 80.17 43.38 77.54"
/>
<path stroke="#162636" stroke-opacity="0.965" vector-effect="non-scaling-stroke" d="
  M 54.25 74.54
  C 52.70 77.25 60.70 74.45 62.50 74.01
  Q 63.92 73.66 63.75 72.04"
/>
<path stroke="#3d5865" vector-effect="non-scaling-stroke" d="
  M 68.75 71.04
  Q 70.49 72.30 71.98 70.71
  Q 74.12 68.42 70.82 66.46
  Q 64.71 62.83 57.49 60.74"
/>
<path stroke="#101525" vector-effect="non-scaling-stroke" d="
  M 69.25 57.54
  C 70.63 61.22 76.79 58.40 79.50 57.64
  C 80.35 57.40 80.70 56.71 80.25 55.96"
/>
<path stroke="#4c626f" vector-effect="non-scaling-stroke" d="
  M 87.35 55.24
  Q 87.80 57.65 88.62 55.70
  C 90.73 50.64 76.14 47.72 75.12 42.28"
/>
<path stroke="#101525" vector-effect="non-scaling-stroke" d="
  M 90.06 41.59
  Q 94.47 45.18 97.63 40.59"
/>
<path stroke="#101525" vector-effect="non-scaling-stroke" d="
  M 107.75 40.54
  Q 108.94 41.79 110.75 41.21"
/>
<path stroke="#4c626f" vector-effect="non-scaling-stroke" d="
  M 110.75 41.21
  Q 112.01 41.48 113.12 41.03
  A 0.99 0.91 86.7 0 0 113.69 40.33
  C 115.03 33.97 106.90 32.34 102.54 30.25"
/>
<path stroke="#5b6c71" vector-effect="non-scaling-stroke" d="
  M 139.19 25.92
  Q 139.28 28.15 140.54 26.54
  Q 141.66 25.11 139.47 23.00
  Q 135.00 18.70 128.72 15.85"
/>
<path stroke="#062f3c" vector-effect="non-scaling-stroke" d="
  M 70.14 355.55
  C 89.76 370.28 101.80 336.21 86.18 325.31
  C 82.33 322.62 76.46 320.00 74.20 316.40
  C 71.31 311.81 71.07 298.92 79.69 300.06
  C 85.39 300.81 88.30 310.43 88.86 315.80
  A 1.31 1.00 -79.4 0 0 89.28 316.63
  Q 90.18 317.32 91.21 316.90
  A 0.83 0.66 81.4 0 0 91.63 316.17
  L 91.53 297.99
  A 0.87 0.74 -79.9 0 0 91.10 297.25
  Q 89.25 296.36 88.29 298.77
  A 0.84 0.84 30.4 0 1 86.98 299.11
  Q 81.69 294.77 76.13 296.48
  C 67.44 299.14 65.49 311.37 67.45 318.84
  C 69.51 326.74 75.16 329.04 81.45 332.85
  C 87.17 336.31 88.67 343.04 87.01 349.25
  C 85.64 354.39 80.56 356.72 76.06 353.73
  C 71.68 350.83 69.24 343.95 68.40 338.79
  C 68.17 337.39 67.47 336.51 65.98 337.11
  A 0.79 0.69 79.8 0 0 65.55 337.83
  L 66.01 356.77
  A 1.31 0.94 -75.8 0 0 66.35 357.64
  Q 67.21 358.45 68.34 357.72
  A 1.31 0.80 88.2 0 0 68.79 356.93
  Q 68.93 356.18 69.41 355.60
  A 0.55 0.51 38.5 0 1 70.14 355.55"
/>
<path stroke="#062f3c" vector-effect="non-scaling-stroke" d="
  M 200.30 355.65
  Q 200.32 354.91 200.94 355.34
  C 221.96 370.15 232.46 335.66 216.78 324.97
  C 209.39 319.92 201.85 317.85 203.43 306.92
  C 203.94 303.40 206.42 299.55 210.39 300.03
  C 217.16 300.85 218.97 311.11 220.16 316.37
  A 0.82 0.78 88.5 0 0 220.77 316.98
  C 223.58 317.56 222.50 315.50 222.50 314.22
  Q 222.49 306.11 222.50 297.98
  A 0.82 0.75 -77.5 0 0 222.08 297.25
  Q 220.24 296.37 219.28 298.80
  A 0.77 0.77 29.3 0 1 218.10 299.13
  C 200.18 285.62 190.05 318.03 205.10 328.40
  C 208.44 330.69 213.40 332.59 215.73 335.64
  C 220.12 341.38 220.26 357.20 209.25 354.62
  C 203.40 353.25 200.15 343.99 199.47 338.80
  C 199.29 337.39 198.40 336.58 196.99 337.12
  A 0.75 0.68 80.1 0 0 196.55 337.82
  L 197.05 357.21
  A 0.70 0.63 -85.2 0 0 197.54 357.85
  Q 200.22 358.46 200.30 355.65"
/>
<path stroke="#062f3c" vector-effect="non-scaling-stroke" d="
  M 124.30 325.75
  Q 123.75 325.61 124.24 325.32
  Q 135.22 318.83 132.73 306.47
  C 131.12 298.46 125.86 297.03 118.10 297.01
  Q 110.92 296.99 103.73 297.00
  A 0.92 0.83 13.4 0 0 102.96 297.42
  Q 102.28 298.62 103.12 299.71
  A 1.68 0.97 2.0 0 0 103.94 300.22
  Q 106.25 300.94 107.67 302.89
  A 1.63 1.49 -65.0 0 1 107.96 303.81
  Q 108.10 338.81 108.26 348.69
  Q 108.35 354.22 103.45 355.04
  A 1.10 0.97 7.2 0 0 102.70 355.55
  Q 101.36 358.01 103.99 358.01
  Q 112.49 358.00 121.00 357.99
  C 138.82 357.98 140.43 329.70 124.30 325.75"
/>
<path stroke="#062f3c" vector-effect="non-scaling-stroke" d="
  M 183.63 301.26
  L 186.97 299.87
  A 0.96 0.72 -12.4 0 0 187.53 299.22
  Q 187.63 298.35 187.37 297.48
  A 0.70 0.66 -7.8 0 0 186.71 297.01
  L 171.30 297.02
  A 0.78 0.72 9.9 0 0 170.59 297.48
  C 169.88 299.26 170.80 299.87 172.42 300.43
  C 175.35 301.44 175.96 303.56 175.99 306.62
  Q 176.05 315.02 175.96 323.44
  A 0.53 0.50 -89.4 0 1 175.46 323.96
  L 157.85 323.89
  A 0.51 0.50 -89.4 0 1 157.36 323.38
  L 157.49 303.28
  A 1.59 1.21 70.0 0 1 157.77 302.38
  Q 159.30 300.44 161.81 299.93
  A 1.08 0.82 1.8 0 0 162.55 299.40
  Q 162.99 298.39 162.47 297.43
  A 0.93 0.79 -12.2 0 0 161.69 297.01
  Q 154.60 297.01 147.50 297.20
  Q 144.33 297.29 146.00 299.63
  A 1.55 1.17 -3.3 0 0 146.78 300.15
  C 149.50 300.97 151.02 302.62 151.00 305.67
  Q 150.90 327.17 151.23 348.69
  Q 151.27 351.26 150.24 353.55
  A 1.20 0.89 -3.1 0 1 149.55 354.12
  L 146.41 355.20
  A 1.20 1.11 -86.3 0 0 145.72 355.85
  Q 145.20 357.02 145.93 357.62
  C 147.01 358.52 158.61 357.96 160.76 357.94
  Q 163.66 357.91 162.41 355.40
  A 1.02 0.93 -6.4 0 0 161.69 354.88
  C 157.02 354.06 157.45 351.22 157.34 347.42
  Q 157.08 338.09 157.38 328.61
  A 0.52 0.51 -90.0 0 1 157.88 328.10
  L 175.47 328.04
  A 0.52 0.50 -90.0 0 1 175.97 328.56
  L 175.98 351.46
  Q 175.98 353.65 173.63 354.38
  L 171.26 355.12
  A 1.07 1.02 1.3 0 0 170.58 355.74
  Q 170.13 356.86 170.87 357.68
  A 1.26 0.93 -15.4 0 0 171.73 358.01
  L 186.70 357.99
  A 0.76 0.68 8.6 0 0 187.40 357.53
  Q 187.80 356.44 187.31 355.33
  A 0.93 0.77 -6.9 0 0 186.58 354.86
  C 183.10 354.51 182.25 352.39 182.25 349.08
  Q 182.24 326.31 182.26 303.55
  A 2.58 2.18 80.7 0 1 183.63 301.26"
/>
<path stroke="#407291" vector-effect="non-scaling-stroke" d="
  M 215.75 274.04
  Q 216.43 274.99 215.50 275.46"
/>
<path stroke="#5884a3" vector-effect="non-scaling-stroke" d="
  M 214.71 28.00
  Q 213.51 27.92 212.60 28.25"
/>
<path stroke="#76c4de" vector-effect="non-scaling-stroke" d="
  M 88.48 78.01
  Q 83.53 80.94 78.00 87.76
  Q 76.43 89.70 73.21 88.50"
/>
<path stroke="#5b7694" vector-effect="non-scaling-stroke" d="
  M 110.75 41.21
  L 110.96 40.25"
/>
<path stroke="#537695" vector-effect="non-scaling-stroke" d="
  M 45.75 80.46
  Q 43.94 80.14 42.46 81.00"
/>
<path stroke="#4c89a5" stroke-opacity="0.965" vector-effect="non-scaling-stroke" d="
  M 41.21 229.75
  Q 39.59 229.43 38.01 229.80
  A 0.62 0.62 -87.8 0 1 37.28 229.01
  Q 38.30 225.67 37.46 222.25"
/>
<path stroke="#55819f" stroke-opacity="0.965" vector-effect="non-scaling-stroke" d="
  M 38.25 98.96
  Q 35.34 98.72 32.83 100.11"
/>
<path stroke="#51a0ba" vector-effect="non-scaling-stroke" d="
  M 281.50 320.46
  Q 278.77 319.90 279.75 321.96"
/>
<path stroke="#062f3c" vector-effect="non-scaling-stroke" d="
  M 122.54 301.93
  Q 118.81 300.28 114.80 301.18
  A 0.61 0.59 82.2 0 0 114.34 301.81
  Q 114.79 312.41 114.21 323.10
  A 0.68 0.68 -82.8 0 0 114.76 323.81
  C 126.87 326.06 127.76 312.15 124.86 304.39
  Q 124.21 302.67 122.54 301.93"
/>
<path stroke="#062f3c" vector-effect="non-scaling-stroke" d="
  M 116.42 353.05
  C 131.12 359.73 134.32 322.72 114.71 328.34
  A 0.65 0.65 81.3 0 0 114.24 328.98
  L 114.50 350.04
  Q 114.53 352.20 116.42 353.05"
/>
<path stroke="#24586c" vector-effect="non-scaling-stroke" d="
  M 280.25 381.46
  L 280.50 380.54"
/>
</g>
<path fill="#7aafca" d="
  M 248.05 17.77
  Q 247.07 21.07 243.61 21.46
  A 1.26 1.26 -4.0 0 1 242.21 20.25
  Q 241.92 11.70 245.82 4.01
  A 0.42 0.41 22.3 0 0 245.57 3.43
  Q 244.28 3.04 243.46 2.25
  Q 245.72 1.15 248.03 2.06
  A 0.67 0.64 -76.3 0 1 248.43 2.75
  C 247.90 6.71 245.90 14.32 248.05 17.77
  Z"
/>
<path fill="#000000" d="
  M 243.46 2.25
  Q 244.28 3.04 245.57 3.43
  A 0.42 0.41 22.3 0 1 245.82 4.01
  Q 241.92 11.70 242.21 20.25
  A 1.26 1.26 -4.0 0 0 243.61 21.46
  Q 247.07 21.07 248.05 17.77
  Q 250.58 16.25 252.50 14.00
  Q 253.42 12.93 255.63 13.06
  Q 254.25 28.49 255.08 42.25
  C 255.58 50.54 254.31 57.02 259.32 63.69
  C 265.89 72.40 269.20 79.80 274.40 91.56
  Q 286.42 118.77 294.99 147.29
  Q 296.15 151.12 298.11 154.15
  C 302.62 161.08 307.00 166.38 308.69 174.80
  Q 310.26 182.62 308.32 194.96
  C 306.39 207.25 293.41 212.82 282.10 212.81
  C 277.11 212.80 273.78 212.64 270.40 209.34
  Q 262.99 202.10 262.24 192.37
  A 2.33 2.33 12.3 0 0 261.03 190.49
  C 255.91 187.69 249.80 186.42 245.28 184.15
  C 230.80 176.88 219.10 164.94 209.14 151.10
  C 207.25 148.49 205.98 147.82 203.36 150.17
  Q 194.90 157.77 193.36 159.91
  Q 180.97 177.09 182.33 197.44
  Q 184.02 222.80 195.41 246.65
  C 199.25 254.69 204.98 263.85 210.00 272.24
  Q 211.89 275.40 215.50 275.46
  L 219.44 275.25
  A 0.61 0.53 -3.0 0 0 220.02 274.69
  Q 220.00 274.34 219.75 274.04
  L 240.54 273.70
  Q 242.03 295.80 241.05 318.03
  Q 240.92 320.98 243.77 321.75
  Q 245.70 322.26 249.25 322.29
  Q 264.50 322.39 279.75 321.96
  Q 281.95 321.92 281.97 323.81
  Q 282.12 334.70 281.95 377.06
  Q 281.94 379.43 280.50 380.54
  L 266.72 379.37
  A 0.53 0.43 -89.7 0 1 266.32 378.87
  C 266.30 378.25 265.99 378.14 265.40 378.09
  C 254.49 377.26 243.53 375.48 232.82 375.49
  Q 224.84 375.49 216.86 375.52
  C 210.79 375.55 199.42 376.23 190.68 375.70
  Q 185.38 375.38 175.00 375.96
  C 163.84 376.58 149.76 375.52 138.92 375.53
  Q 92.34 375.58 45.77 375.52
  A 1.67 0.87 -47.0 0 0 44.95 375.81
  Q 44.70 375.96 44.50 375.97
  C 35.44 376.38 26.13 375.85 17.44 375.99
  Q 10.98 376.10 4.69 375.95
  A 1.03 1.02 -89.7 0 1 3.70 374.94
  L 3.55 362.72
  A 0.84 0.76 -79.6 0 0 3.10 361.99
  Q 2.08 361.52 2.62 362.76
  A 1.99 1.30 47.2 0 1 2.78 363.71
  Q 2.57 365.52 1.80 367.18
  C 0.16 370.76 0.39 374.90 0.29 378.75
  L 0.00 375.44
  L 0.00 327.94
  L 0.73 322.23
  A 1.12 1.05 -85.9 0 1 1.78 321.26
  L 40.70 321.24
  A 0.60 0.59 -0.9 0 0 41.30 320.63
  Q 40.81 302.89 41.01 284.98
  C 41.03 282.67 40.25 278.52 41.00 276.09
  Q 41.74 273.69 44.28 273.70
  L 68.84 273.80
  Q 67.34 273.88 67.27 274.96
  A 0.50 0.48 88.6 0 0 67.80 275.48
  L 70.45 275.22
  A 0.57 0.42 83.7 0 0 70.81 274.60
  L 70.49 272.29
  Q 70.41 271.66 70.22 271.36
  C 68.41 268.57 65.79 266.21 64.18 263.65
  C 56.66 251.66 52.48 239.54 48.88 225.92
  C 47.13 219.33 47.44 212.62 47.05 205.80
  C 46.61 198.01 47.14 190.70 47.55 183.07
  Q 47.61 181.76 46.25 181.71
  C 47.22 170.71 50.72 161.55 53.35 151.47
  Q 54.10 148.58 55.70 145.15
  C 57.38 141.54 58.32 137.44 59.76 134.14
  C 64.80 122.50 71.33 110.27 79.97 100.87
  Q 90.99 88.90 102.05 77.05
  Q 108.93 73.27 113.45 66.86
  Q 115.87 64.20 119.06 62.83
  Q 122.81 62.10 125.87 59.89
  C 129.11 57.55 135.09 54.60 138.95 53.55
  C 146.47 51.49 152.96 47.33 160.44 45.89
  Q 166.15 44.79 171.53 42.50
  C 172.63 42.03 176.00 42.32 177.78 41.90
  Q 187.62 39.57 197.64 38.21
  C 199.73 37.92 201.13 37.05 203.53 38.07
  A 1.73 1.31 43.7 0 0 204.48 38.18
  C 208.77 37.25 215.25 33.17 214.71 28.00
  C 216.10 25.40 213.98 24.83 211.97 24.87
  C 195.21 25.18 178.66 27.93 162.39 31.78
  C 127.16 40.13 96.29 60.78 73.21 88.50
  Q 57.76 108.50 49.95 128.70
  C 46.20 138.41 43.68 149.97 40.07 162.87
  Q 39.51 164.88 39.54 167.76
  Q 39.59 172.05 37.98 181.69
  C 35.64 195.67 36.39 208.26 37.46 222.25
  Q 36.63 223.27 36.54 224.58
  A 1.19 0.55 85.1 0 1 36.26 225.35
  Q 36.07 225.51 35.84 225.53
  A 0.68 0.42 81.2 0 1 35.34 224.94
  L 34.35 218.79
  A 0.72 0.72 89.5 0 0 33.73 218.18
  Q 33.10 218.11 32.96 218.75
  L 32.88 213.32
  Q 34.16 208.72 32.46 204.74
  Q 32.10 203.89 30.79 204.25
  L 31.02 191.87
  Q 33.43 189.05 32.53 184.97
  Q 32.42 184.48 32.55 184.01
  C 33.05 182.13 34.73 176.67 31.79 176.25
  L 32.54 169.00
  Q 33.70 167.61 33.13 166.17
  C 31.60 162.31 23.27 164.06 20.28 165.57
  Q 21.82 156.59 29.32 151.09
  Q 31.07 149.81 31.87 146.44
  Q 34.35 142.62 29.49 142.49
  C 27.89 142.45 23.17 143.52 21.34 142.27
  Q 19.80 141.21 19.91 138.99
  L 36.19 126.85
  Q 39.78 126.61 38.97 122.63
  A 1.37 1.35 -77.0 0 0 38.47 121.82
  Q 35.39 119.39 30.50 119.02
  Q 27.06 118.76 27.07 114.70
  Q 34.62 110.00 42.78 106.56
  Q 47.05 106.35 45.15 101.50
  A 1.13 0.98 85.0 0 0 44.49 100.86
  L 38.25 98.96
  Q 35.48 98.07 33.18 95.79
  Q 42.34 91.97 51.97 89.50
  Q 54.44 90.50 56.77 89.01
  A 1.43 1.42 -8.3 0 0 57.34 88.25
  Q 57.92 86.40 57.58 84.50
  A 0.85 0.82 -86.8 0 0 57.01 83.84
  L 45.75 80.46
  Q 43.29 80.17 43.38 77.54
  L 54.25 74.54
  C 52.70 77.25 60.70 74.45 62.50 74.01
  Q 63.92 73.66 63.75 72.04
  L 68.75 71.04
  Q 70.49 72.30 71.98 70.71
  Q 74.12 68.42 70.82 66.46
  Q 64.71 62.83 57.49 60.74
  Q 57.62 59.73 58.00 59.14
  C 58.79 57.89 67.52 57.60 69.25 57.54
  C 70.63 61.22 76.79 58.40 79.50 57.64
  C 80.35 57.40 80.70 56.71 80.25 55.96
  Q 83.73 56.47 87.35 55.24
  Q 87.80 57.65 88.62 55.70
  C 90.73 50.64 76.14 47.72 75.12 42.28
  L 90.06 41.59
  Q 94.47 45.18 97.63 40.59
  L 107.75 40.54
  Q 108.94 41.79 110.75 41.21
  Q 112.01 41.48 113.12 41.03
  A 0.99 0.91 86.7 0 0 113.69 40.33
  C 115.03 33.97 106.90 32.34 102.54 30.25
  C 105.09 26.44 111.80 29.04 116.09 27.87
  C 121.65 26.36 126.04 25.97 131.76 26.85
  Q 135.49 27.42 139.19 25.92
  Q 139.28 28.15 140.54 26.54
  Q 141.66 25.11 139.47 23.00
  Q 135.00 18.70 128.72 15.85
  Q 139.41 14.16 146.51 15.18
  C 151.02 15.84 154.91 16.13 159.12 16.87
  Q 164.75 17.85 170.49 17.36
  C 173.85 17.07 176.41 18.73 179.67 18.70
  Q 191.65 18.57 200.00 19.81
  C 204.46 20.48 217.88 22.59 221.70 19.45
  Q 236.37 7.35 243.46 2.25
  Z
  M 70.14 355.55
  C 89.76 370.28 101.80 336.21 86.18 325.31
  C 82.33 322.62 76.46 320.00 74.20 316.40
  C 71.31 311.81 71.07 298.92 79.69 300.06
  C 85.39 300.81 88.30 310.43 88.86 315.80
  A 1.31 1.00 -79.4 0 0 89.28 316.63
  Q 90.18 317.32 91.21 316.90
  A 0.83 0.66 81.4 0 0 91.63 316.17
  L 91.53 297.99
  A 0.87 0.74 -79.9 0 0 91.10 297.25
  Q 89.25 296.36 88.29 298.77
  A 0.84 0.84 30.4 0 1 86.98 299.11
  Q 81.69 294.77 76.13 296.48
  C 67.44 299.14 65.49 311.37 67.45 318.84
  C 69.51 326.74 75.16 329.04 81.45 332.85
  C 87.17 336.31 88.67 343.04 87.01 349.25
  C 85.64 354.39 80.56 356.72 76.06 353.73
  C 71.68 350.83 69.24 343.95 68.40 338.79
  C 68.17 337.39 67.47 336.51 65.98 337.11
  A 0.79 0.69 79.8 0 0 65.55 337.83
  L 66.01 356.77
  A 1.31 0.94 -75.8 0 0 66.35 357.64
  Q 67.21 358.45 68.34 357.72
  A 1.31 0.80 88.2 0 0 68.79 356.93
  Q 68.93 356.18 69.41 355.60
  A 0.55 0.51 38.5 0 1 70.14 355.55
  Z
  M 200.30 355.65
  Q 200.32 354.91 200.94 355.34
  C 221.96 370.15 232.46 335.66 216.78 324.97
  C 209.39 319.92 201.85 317.85 203.43 306.92
  C 203.94 303.40 206.42 299.55 210.39 300.03
  C 217.16 300.85 218.97 311.11 220.16 316.37
  A 0.82 0.78 88.5 0 0 220.77 316.98
  C 223.58 317.56 222.50 315.50 222.50 314.22
  Q 222.49 306.11 222.50 297.98
  A 0.82 0.75 -77.5 0 0 222.08 297.25
  Q 220.24 296.37 219.28 298.80
  A 0.77 0.77 29.3 0 1 218.10 299.13
  C 200.18 285.62 190.05 318.03 205.10 328.40
  C 208.44 330.69 213.40 332.59 215.73 335.64
  C 220.12 341.38 220.26 357.20 209.25 354.62
  C 203.40 353.25 200.15 343.99 199.47 338.80
  C 199.29 337.39 198.40 336.58 196.99 337.12
  A 0.75 0.68 80.1 0 0 196.55 337.82
  L 197.05 357.21
  A 0.70 0.63 -85.2 0 0 197.54 357.85
  Q 200.22 358.46 200.30 355.65
  Z
  M 124.30 325.75
  Q 123.75 325.61 124.24 325.32
  Q 135.22 318.83 132.73 306.47
  C 131.12 298.46 125.86 297.03 118.10 297.01
  Q 110.92 296.99 103.73 297.00
  A 0.92 0.83 13.4 0 0 102.96 297.42
  Q 102.28 298.62 103.12 299.71
  A 1.68 0.97 2.0 0 0 103.94 300.22
  Q 106.25 300.94 107.67 302.89
  A 1.63 1.49 -65.0 0 1 107.96 303.81
  Q 108.10 338.81 108.26 348.69
  Q 108.35 354.22 103.45 355.04
  A 1.10 0.97 7.2 0 0 102.70 355.55
  Q 101.36 358.01 103.99 358.01
  Q 112.49 358.00 121.00 357.99
  C 138.82 357.98 140.43 329.70 124.30 325.75
  Z
  M 183.63 301.26
  L 186.97 299.87
  A 0.96 0.72 -12.4 0 0 187.53 299.22
  Q 187.63 298.35 187.37 297.48
  A 0.70 0.66 -7.8 0 0 186.71 297.01
  L 171.30 297.02
  A 0.78 0.72 9.9 0 0 170.59 297.48
  C 169.88 299.26 170.80 299.87 172.42 300.43
  C 175.35 301.44 175.96 303.56 175.99 306.62
  Q 176.05 315.02 175.96 323.44
  A 0.53 0.50 -89.4 0 1 175.46 323.96
  L 157.85 323.89
  A 0.51 0.50 -89.4 0 1 157.36 323.38
  L 157.49 303.28
  A 1.59 1.21 70.0 0 1 157.77 302.38
  Q 159.30 300.44 161.81 299.93
  A 1.08 0.82 1.8 0 0 162.55 299.40
  Q 162.99 298.39 162.47 297.43
  A 0.93 0.79 -12.2 0 0 161.69 297.01
  Q 154.60 297.01 147.50 297.20
  Q 144.33 297.29 146.00 299.63
  A 1.55 1.17 -3.3 0 0 146.78 300.15
  C 149.50 300.97 151.02 302.62 151.00 305.67
  Q 150.90 327.17 151.23 348.69
  Q 151.27 351.26 150.24 353.55
  A 1.20 0.89 -3.1 0 1 149.55 354.12
  L 146.41 355.20
  A 1.20 1.11 -86.3 0 0 145.72 355.85
  Q 145.20 357.02 145.93 357.62
  C 147.01 358.52 158.61 357.96 160.76 357.94
  Q 163.66 357.91 162.41 355.40
  A 1.02 0.93 -6.4 0 0 161.69 354.88
  C 157.02 354.06 157.45 351.22 157.34 347.42
  Q 157.08 338.09 157.38 328.61
  A 0.52 0.51 -90.0 0 1 157.88 328.10
  L 175.47 328.04
  A 0.52 0.50 -90.0 0 1 175.97 328.56
  L 175.98 351.46
  Q 175.98 353.65 173.63 354.38
  L 171.26 355.12
  A 1.07 1.02 1.3 0 0 170.58 355.74
  Q 170.13 356.86 170.87 357.68
  A 1.26 0.93 -15.4 0 0 171.73 358.01
  L 186.70 357.99
  A 0.76 0.68 8.6 0 0 187.40 357.53
  Q 187.80 356.44 187.31 355.33
  A 0.93 0.77 -6.9 0 0 186.58 354.86
  C 183.10 354.51 182.25 352.39 182.25 349.08
  Q 182.24 326.31 182.26 303.55
  A 2.58 2.18 80.7 0 1 183.63 301.26
  Z"
/>
<path fill="#55a8c3" fill-opacity="0.996" d="
  M 255.63 13.06
  Q 257.13 12.48 258.27 14.14
  A 1.67 1.24 -68.8 0 1 258.52 15.05
  L 258.29 54.77
  Q 258.28 56.85 259.33 58.77
  C 262.80 65.14 267.68 70.87 270.63 77.30
  C 281.30 100.66 293.70 128.76 298.81 149.81
  Q 299.41 152.29 300.87 154.36
  Q 307.01 163.06 312.27 172.28
  C 314.21 175.68 312.99 177.65 314.02 181.09
  Q 316.08 187.96 313.59 194.84
  A 2.04 1.36 59.3 0 0 313.54 195.80
  Q 313.92 197.73 311.99 198.35
  A 1.21 1.05 0.9 0 0 311.29 198.94
  C 306.21 210.40 291.51 218.34 278.74 216.51
  C 270.18 215.29 262.86 203.58 261.42 195.52
  C 260.53 190.48 256.08 191.46 252.47 190.01
  Q 236.77 183.69 223.84 170.17
  Q 211.92 157.69 209.81 154.70
  Q 208.27 152.53 206.55 151.66
  A 0.64 0.60 -57.4 0 0 205.79 151.85
  C 203.95 154.29 202.37 156.62 200.10 158.73
  C 191.04 167.15 186.11 177.48 186.40 190.41
  C 186.57 198.21 186.08 206.02 187.56 213.45
  Q 193.87 245.08 213.58 272.44
  Q 214.64 273.92 215.75 274.04
  Q 216.43 274.99 215.50 275.46
  Q 211.89 275.40 210.00 272.24
  C 204.98 263.85 199.25 254.69 195.41 246.65
  Q 184.02 222.80 182.33 197.44
  Q 180.97 177.09 193.36 159.91
  Q 194.90 157.77 203.36 150.17
  C 205.98 147.82 207.25 148.49 209.14 151.10
  C 219.10 164.94 230.80 176.88 245.28 184.15
  C 249.80 186.42 255.91 187.69 261.03 190.49
  A 2.33 2.33 12.3 0 1 262.24 192.37
  Q 262.99 202.10 270.40 209.34
  C 273.78 212.64 277.11 212.80 282.10 212.81
  C 293.41 212.82 306.39 207.25 308.32 194.96
  Q 310.26 182.62 308.69 174.80
  C 307.00 166.38 302.62 161.08 298.11 154.15
  Q 296.15 151.12 294.99 147.29
  Q 286.42 118.77 274.40 91.56
  C 269.20 79.80 265.89 72.40 259.32 63.69
  C 254.31 57.02 255.58 50.54 255.08 42.25
  Q 254.25 28.49 255.63 13.06
  Z"
/>
<path fill="#b6d8e2" d="
  M 128.72 15.85
  Q 135.00 18.70 139.47 23.00
  Q 141.66 25.11 140.54 26.54
  Q 139.28 28.15 139.19 25.92
  Q 135.02 22.37 129.94 19.81
  Q 128.00 18.84 128.72 15.85
  Z"
/>
<path fill="#84cbe5" d="
  M 214.71 28.00
  Q 213.51 27.92 212.60 28.25
  C 204.32 28.49 194.05 30.05 188.04 30.76
  C 176.41 32.15 163.87 35.08 153.42 38.12
  Q 141.05 41.72 127.94 48.44
  C 112.77 56.22 99.45 65.08 88.48 78.01
  Q 83.53 80.94 78.00 87.76
  Q 76.43 89.70 73.21 88.50
  C 96.29 60.78 127.16 40.13 162.39 31.78
  C 178.66 27.93 195.21 25.18 211.97 24.87
  C 213.98 24.83 216.10 25.40 214.71 28.00
  Z"
/>
<path fill="#2b3d60" d="
  M 214.71 28.00
  C 215.25 33.17 208.77 37.25 204.48 38.18
  A 1.73 1.31 43.7 0 1 203.53 38.07
  C 201.13 37.05 199.73 37.92 197.64 38.21
  Q 187.62 39.57 177.78 41.90
  C 176.00 42.32 172.63 42.03 171.53 42.50
  Q 166.15 44.79 160.44 45.89
  C 152.96 47.33 146.47 51.49 138.95 53.55
  C 135.09 54.60 129.11 57.55 125.87 59.89
  Q 122.81 62.10 119.06 62.83
  Q 122.51 59.37 125.81 57.79
  Q 141.66 50.22 155.02 45.29
  C 157.42 44.40 160.27 44.23 162.84 43.21
  C 167.85 41.22 173.71 40.63 178.03 39.50
  C 185.57 37.52 192.91 35.89 200.73 35.60
  C 204.51 35.47 215.19 34.61 212.60 28.25
  Q 213.51 27.92 214.71 28.00
  Z"
/>
<path fill="#97c3dd" d="
  M 102.54 30.25
  C 106.90 32.34 115.03 33.97 113.69 40.33
  A 0.99 0.91 86.7 0 1 113.12 41.03
  Q 112.01 41.48 110.75 41.21
  L 110.96 40.25
  C 115.54 36.01 99.94 36.41 102.54 30.25
  Z"
/>
<path fill="#1f294a" d="
  M 110.96 40.25
  L 110.75 41.21
  Q 108.94 41.79 107.75 40.54
  L 110.96 40.25
  Z"
/>
<path fill="#1f294a" d="
  M 97.63 40.59
  Q 94.47 45.18 90.06 41.59
  L 97.63 40.59
  Z"
/>
<path fill="#97c3dd" d="
  M 75.12 42.28
  C 76.14 47.72 90.73 50.64 88.62 55.70
  Q 87.80 57.65 87.35 55.24
  Q 84.47 51.45 80.17 50.03
  Q 76.51 48.81 75.78 48.08
  Q 73.61 45.92 75.12 42.28
  Z"
/>
<path fill="#1f294a" d="
  M 80.25 55.96
  C 80.70 56.71 80.35 57.40 79.50 57.64
  C 76.79 58.40 70.63 61.22 69.25 57.54
  Q 74.68 56.23 80.25 55.96
  Z"
/>
<path fill="#7aafca" d="
  M 57.49 60.74
  Q 64.71 62.83 70.82 66.46
  Q 74.12 68.42 71.98 70.71
  Q 70.49 72.30 68.75 71.04
  Q 71.52 70.25 69.83 68.39
  A 1.56 1.25 -12.1 0 0 68.97 67.96
  Q 61.52 66.80 57.49 60.74
  Z"
/>
<path fill="#2b3d60" d="
  M 113.45 66.86
  Q 108.93 73.27 102.05 77.05
  Q 106.67 70.77 113.45 66.86
  Z"
/>
<path fill="#2e5071" fill-opacity="0.925" d="
  M 63.75 72.04
  Q 63.92 73.66 62.50 74.01
  C 60.70 74.45 52.70 77.25 54.25 74.54
  Q 58.83 72.61 63.75 72.04
  Z"
/>
<path fill="#2b3d60" d="
  M 43.38 77.54
  Q 43.29 80.17 45.75 80.46
  Q 43.94 80.14 42.46 81.00
  Q 41.12 78.74 43.38 77.54
  Z"
/>
<path fill="#68bdd6" d="
  M 88.48 78.01
  C 83.71 83.33 77.91 88.60 73.89 93.69
  C 67.45 101.84 62.25 110.17 57.74 119.95
  C 55.46 124.89 52.95 129.46 51.45 134.67
  Q 47.43 148.60 43.86 162.66
  Q 42.81 166.77 42.47 171.99
  C 41.91 180.60 39.81 189.39 39.69 197.41
  C 39.51 209.13 42.42 219.69 41.21 229.75
  Q 39.59 229.43 38.01 229.80
  A 0.62 0.62 -87.8 0 1 37.28 229.01
  Q 38.30 225.67 37.46 222.25
  C 36.39 208.26 35.64 195.67 37.98 181.69
  Q 39.59 172.05 39.54 167.76
  Q 39.51 164.88 40.07 162.87
  C 43.68 149.97 46.20 138.41 49.95 128.70
  Q 57.76 108.50 73.21 88.50
  Q 76.43 89.70 78.00 87.76
  Q 83.53 80.94 88.48 78.01
  Z"
/>
<path fill="#7aafca" d="
  M 45.75 80.46
  L 57.01 83.84
  A 0.85 0.82 -86.8 0 1 57.58 84.50
  Q 57.92 86.40 57.34 88.25
  A 1.43 1.42 -8.3 0 1 56.77 89.01
  Q 54.44 90.50 51.97 89.50
  Q 54.42 88.94 55.25 87.84
  Q 56.82 85.76 54.27 85.27
  C 51.03 84.63 43.83 84.32 42.46 81.00
  Q 43.94 80.14 45.75 80.46
  Z"
/>
<path fill="#2e5071" fill-opacity="0.925" d="
  M 33.18 95.79
  Q 35.48 98.07 38.25 98.96
  Q 35.34 98.72 32.83 100.11
  Q 31.90 97.88 33.18 95.79
  Z"
/>
<path fill="#7aafca" d="
  M 38.25 98.96
  L 44.49 100.86
  A 1.13 0.98 85.0 0 1 45.15 101.50
  Q 47.05 106.35 42.78 106.56
  Q 44.08 104.89 43.46 103.45
  A 1.03 0.84 -4.1 0 0 42.72 102.93
  Q 37.70 102.13 32.83 100.11
  Q 35.34 98.72 38.25 98.96
  Z"
/>
<path fill="#97c3dd" d="
  M 27.07 114.70
  Q 27.06 118.76 30.50 119.02
  Q 35.39 119.39 38.47 121.82
  A 1.37 1.35 -77.0 0 1 38.97 122.63
  Q 39.78 126.61 36.19 126.85
  Q 37.71 124.82 36.42 123.26
  A 1.64 1.16 -6.1 0 0 35.58 122.79
  C 32.41 122.12 22.38 120.59 27.07 114.70
  Z"
/>
<path fill="#84cbe5" d="
  M 19.91 138.99
  Q 19.80 141.21 21.34 142.27
  C 23.17 143.52 27.89 142.45 29.49 142.49
  Q 34.35 142.62 31.87 146.44
  C 30.47 144.81 26.11 145.95 24.00 145.97
  C 20.27 146.01 15.43 142.58 19.91 138.99
  Z"
/>
<path fill="#55a8c3" fill-opacity="0.996" d="
  M 32.54 169.00
  Q 31.75 165.92 28.75 166.50
  Q 24.28 167.37 20.28 165.57
  C 23.27 164.06 31.60 162.31 33.13 166.17
  Q 33.70 167.61 32.54 169.00
  Z"
/>
<path fill="#1f294a" d="
  M 31.79 176.25
  C 34.73 176.67 33.05 182.13 32.55 184.01
  Q 32.42 184.48 32.53 184.97
  Q 33.43 189.05 31.02 191.87
  Q 30.01 183.81 31.79 176.25
  Z"
/>
<path fill="#5c657e" d="
  M 46.25 181.71
  Q 47.61 181.76 47.55 183.07
  C 47.14 190.70 46.61 198.01 47.05 205.80
  C 47.44 212.62 47.13 219.33 48.88 225.92
  C 52.48 239.54 56.66 251.66 64.18 263.65
  C 65.79 266.21 68.41 268.57 70.22 271.36
  Q 70.41 271.66 70.49 272.29
  L 70.81 274.60
  A 0.57 0.42 83.7 0 1 70.45 275.22
  L 67.80 275.48
  A 0.50 0.48 88.6 0 1 67.27 274.96
  Q 67.34 273.88 68.84 273.80
  C 67.33 269.92 64.30 267.07 62.58 263.98
  C 57.27 254.42 52.08 244.22 49.52 233.53
  C 48.55 229.50 47.18 225.79 46.63 221.73
  C 45.16 210.77 43.01 198.91 45.07 187.89
  Q 45.64 184.80 46.25 181.71
  Z"
/>
<path fill="#1f294a" d="
  M 30.79 204.25
  Q 32.10 203.89 32.46 204.74
  Q 34.16 208.72 32.88 213.32
  Q 31.19 208.74 30.79 204.25
  Z"
/>
<path fill="#2e5071" fill-opacity="0.925" d="
  M 37.46 222.25
  Q 38.30 225.67 37.28 229.01
  A 0.62 0.62 -87.8 0 0 38.01 229.80
  Q 39.59 229.43 41.21 229.75
  L 41.11 242.61
  A 0.49 0.44 -87.7 0 1 40.64 243.09
  Q 37.32 242.88 35.04 240.62
  A 1.30 1.11 -71.7 0 1 34.69 239.76
  Q 34.57 229.18 32.96 218.75
  Q 33.10 218.11 33.73 218.18
  A 0.72 0.72 89.5 0 1 34.35 218.79
  L 35.34 224.94
  A 0.68 0.42 81.2 0 0 35.84 225.53
  Q 36.07 225.51 36.26 225.35
  A 1.19 0.55 85.1 0 0 36.54 224.58
  Q 36.63 223.27 37.46 222.25
  Z
  M 39.45 232.08
  Q 38.41 234.25 39.96 234.03
  A 0.55 0.54 -8.4 0 0 40.43 233.41
  Q 40.32 232.65 39.78 232.03
  A 0.20 0.20 -53.4 0 0 39.45 232.08
  Z
  M 37.82 240.37
  Q 37.54 241.10 38.45 241.35
  A 0.40 0.38 3.7 0 0 38.95 240.93
  Q 38.88 240.46 38.51 240.18
  A 0.45 0.45 -60.4 0 0 37.82 240.37
  Z"
/>
<path fill="#072955" fill-opacity="0.588" d="
  M 39.45 232.08
  A 0.20 0.20 -53.4 0 1 39.78 232.03
  Q 40.32 232.65 40.43 233.41
  A 0.55 0.54 -8.4 0 1 39.96 234.03
  Q 38.41 234.25 39.45 232.08
  Z"
/>
<path fill="#072955" fill-opacity="0.588" d="
  M 38.51 240.18
  Q 38.88 240.46 38.95 240.93
  A 0.40 0.38 3.7 0 1 38.45 241.35
  Q 37.54 241.10 37.82 240.37
  A 0.45 0.45 -60.4 0 1 38.51 240.18
  Z"
/>
<path fill="#5da8b9" d="
  M 240.54 273.70
  Q 243.07 273.77 244.26 275.87
  Q 244.96 277.11 244.98 279.73
  Q 245.12 298.95 244.85 317.61
  Q 244.81 320.30 247.55 320.31
  L 281.50 320.46
  Q 278.77 319.90 279.75 321.96
  Q 264.50 322.39 249.25 322.29
  Q 245.70 322.26 243.77 321.75
  Q 240.92 320.98 241.05 318.03
  Q 242.03 295.80 240.54 273.70
  Z"
/>
<path fill="#2b3d60" d="
  M 215.75 274.04
  L 219.75 274.04
  Q 220.00 274.34 220.02 274.69
  A 0.61 0.53 -3.0 0 1 219.44 275.25
  L 215.50 275.46
  Q 216.43 274.99 215.75 274.04
  Z"
/>
<path fill="#0b5d78" d="
  M 69.41 355.60
  Q 68.93 356.18 68.79 356.93
  A 1.31 0.80 88.2 0 1 68.34 357.72
  Q 67.21 358.45 66.35 357.64
  A 1.31 0.94 -75.8 0 1 66.01 356.77
  L 65.55 337.83
  A 0.79 0.69 79.8 0 1 65.98 337.11
  C 67.47 336.51 68.17 337.39 68.40 338.79
  C 69.24 343.95 71.68 350.83 76.06 353.73
  C 80.56 356.72 85.64 354.39 87.01 349.25
  C 88.67 343.04 87.17 336.31 81.45 332.85
  C 75.16 329.04 69.51 326.74 67.45 318.84
  C 65.49 311.37 67.44 299.14 76.13 296.48
  Q 81.69 294.77 86.98 299.11
  A 0.84 0.84 30.4 0 0 88.29 298.77
  Q 89.25 296.36 91.10 297.25
  A 0.87 0.74 -79.9 0 1 91.53 297.99
  L 91.63 316.17
  A 0.83 0.66 81.4 0 1 91.21 316.90
  Q 90.18 317.32 89.28 316.63
  A 1.31 1.00 -79.4 0 1 88.86 315.80
  C 88.30 310.43 85.39 300.81 79.69 300.06
  C 71.07 298.92 71.31 311.81 74.20 316.40
  C 76.46 320.00 82.33 322.62 86.18 325.31
  C 101.80 336.21 89.76 370.28 70.14 355.55
  A 0.55 0.51 38.5 0 0 69.41 355.60
  Z"
/>
<path fill="#0b5d78" d="
  M 200.30 355.65
  Q 200.22 358.46 197.54 357.85
  A 0.70 0.63 -85.2 0 1 197.05 357.21
  L 196.55 337.82
  A 0.75 0.68 80.1 0 1 196.99 337.12
  C 198.40 336.58 199.29 337.39 199.47 338.80
  C 200.15 343.99 203.40 353.25 209.25 354.62
  C 220.26 357.20 220.12 341.38 215.73 335.64
  C 213.40 332.59 208.44 330.69 205.10 328.40
  C 190.05 318.03 200.18 285.62 218.10 299.13
  A 0.77 0.77 29.3 0 0 219.28 298.80
  Q 220.24 296.37 222.08 297.25
  A 0.82 0.75 -77.5 0 1 222.50 297.98
  Q 222.49 306.11 222.50 314.22
  C 222.50 315.50 223.58 317.56 220.77 316.98
  A 0.82 0.78 88.5 0 1 220.16 316.37
  C 218.97 311.11 217.16 300.85 210.39 300.03
  C 206.42 299.55 203.94 303.40 203.43 306.92
  C 201.85 317.85 209.39 319.92 216.78 324.97
  C 232.46 335.66 221.96 370.15 200.94 355.34
  Q 200.32 354.91 200.30 355.65
  Z"
/>
<path fill="#0b5d78" d="
  M 124.30 325.75
  C 140.43 329.70 138.82 357.98 121.00 357.99
  Q 112.49 358.00 103.99 358.01
  Q 101.36 358.01 102.70 355.55
  A 1.10 0.97 7.2 0 1 103.45 355.04
  Q 108.35 354.22 108.26 348.69
  Q 108.10 338.81 107.96 303.81
  A 1.63 1.49 -65.0 0 0 107.67 302.89
  Q 106.25 300.94 103.94 300.22
  A 1.68 0.97 2.0 0 1 103.12 299.71
  Q 102.28 298.62 102.96 297.42
  A 0.92 0.83 13.4 0 1 103.73 297.00
  Q 110.92 296.99 118.10 297.01
  C 125.86 297.03 131.12 298.46 132.73 306.47
  Q 135.22 318.83 124.24 325.32
  Q 123.75 325.61 124.30 325.75
  Z
  M 122.54 301.93
  Q 118.81 300.28 114.80 301.18
  A 0.61 0.59 82.2 0 0 114.34 301.81
  Q 114.79 312.41 114.21 323.10
  A 0.68 0.68 -82.8 0 0 114.76 323.81
  C 126.87 326.06 127.76 312.15 124.86 304.39
  Q 124.21 302.67 122.54 301.93
  Z
  M 116.42 353.05
  C 131.12 359.73 134.32 322.72 114.71 328.34
  A 0.65 0.65 81.3 0 0 114.24 328.98
  L 114.50 350.04
  Q 114.53 352.20 116.42 353.05
  Z"
/>
<path fill="#0b5d78" d="
  M 183.63 301.26
  A 2.58 2.18 80.7 0 0 182.26 303.55
  Q 182.24 326.31 182.25 349.08
  C 182.25 352.39 183.10 354.51 186.58 354.86
  A 0.93 0.77 -6.9 0 1 187.31 355.33
  Q 187.80 356.44 187.40 357.53
  A 0.76 0.68 8.6 0 1 186.70 357.99
  L 171.73 358.01
  A 1.26 0.93 -15.4 0 1 170.87 357.68
  Q 170.13 356.86 170.58 355.74
  A 1.07 1.02 1.3 0 1 171.26 355.12
  L 173.63 354.38
  Q 175.98 353.65 175.98 351.46
  L 175.97 328.56
  A 0.52 0.50 90.0 0 0 175.47 328.04
  L 157.88 328.10
  A 0.52 0.51 -90.0 0 0 157.38 328.61
  Q 157.08 338.09 157.34 347.42
  C 157.45 351.22 157.02 354.06 161.69 354.88
  A 1.02 0.93 -6.4 0 1 162.41 355.40
  Q 163.66 357.91 160.76 357.94
  C 158.61 357.96 147.01 358.52 145.93 357.62
  Q 145.20 357.02 145.72 355.85
  A 1.20 1.11 -86.3 0 1 146.41 355.20
  L 149.55 354.12
  A 1.20 0.89 -3.1 0 0 150.24 353.55
  Q 151.27 351.26 151.23 348.69
  Q 150.90 327.17 151.00 305.67
  C 151.02 302.62 149.50 300.97 146.78 300.15
  A 1.55 1.17 -3.3 0 1 146.00 299.63
  Q 144.33 297.29 147.50 297.20
  Q 154.60 297.01 161.69 297.01
  A 0.93 0.79 -12.2 0 1 162.47 297.43
  Q 162.99 298.39 162.55 299.40
  A 1.08 0.82 1.8 0 1 161.81 299.93
  Q 159.30 300.44 157.77 302.38
  A 1.59 1.21 70.0 0 0 157.49 303.28
  L 157.36 323.38
  A 0.51 0.50 -89.4 0 0 157.85 323.89
  L 175.46 323.96
  A 0.53 0.50 -89.4 0 0 175.96 323.44
  Q 176.05 315.02 175.99 306.62
  C 175.96 303.56 175.35 301.44 172.42 300.43
  C 170.80 299.87 169.88 299.26 170.59 297.48
  A 0.78 0.72 9.9 0 1 171.30 297.02
  L 186.71 297.01
  A 0.70 0.66 -7.8 0 1 187.37 297.48
  Q 187.63 298.35 187.53 299.22
  A 0.96 0.72 -12.4 0 1 186.97 299.87
  L 183.63 301.26
  Z"
/>
<path fill="#000000" d="
  M 122.54 301.93
  Q 124.21 302.67 124.86 304.39
  C 127.76 312.15 126.87 326.06 114.76 323.81
  A 0.68 0.68 -82.8 0 1 114.21 323.10
  Q 114.79 312.41 114.34 301.81
  A 0.61 0.59 82.2 0 1 114.80 301.18
  Q 118.81 300.28 122.54 301.93
  Z"
/>
<path fill="#4598ba" d="
  M 281.50 320.46
  C 284.30 320.77 285.19 322.44 285.21 325.18
  Q 285.40 352.47 285.07 379.79
  A 1.74 1.64 -89.2 0 1 283.40 381.51
  L 280.25 381.46
  L 280.50 380.54
  Q 281.94 379.43 281.95 377.06
  Q 282.12 334.70 281.97 323.81
  Q 281.95 321.92 279.75 321.96
  Q 278.77 319.90 281.50 320.46
  Z"
/>
<path fill="#000000" d="
  M 116.42 353.05
  Q 114.53 352.20 114.50 350.04
  L 114.24 328.98
  A 0.65 0.65 81.3 0 1 114.71 328.34
  C 134.32 322.72 131.12 359.73 116.42 353.05
  Z"
/>
<path fill="#03171e" d="
  M 280.50 380.54
  L 280.25 381.46
  Q 222.03 381.90 163.81 381.55
  C 139.53 381.41 114.10 381.95 92.75 381.70
  Q 49.12 381.19 5.00 381.80
  Q 3.15 381.83 1.45 381.11
  Q 0.08 380.53 0.29 378.75
  C 0.39 374.90 0.16 370.76 1.80 367.18
  Q 2.57 365.52 2.78 363.71
  A 1.99 1.30 47.2 0 0 2.62 362.76
  Q 2.08 361.52 3.10 361.99
  A 0.84 0.76 -79.6 0 1 3.55 362.72
  L 3.70 374.94
  A 1.03 1.02 -89.7 0 0 4.69 375.95
  Q 10.98 376.10 17.44 375.99
  C 26.13 375.85 35.44 376.38 44.50 375.97
  Q 44.70 375.96 44.95 375.81
  A 1.67 0.87 -47.0 0 1 45.77 375.52
  Q 92.34 375.58 138.92 375.53
  C 149.76 375.52 163.84 376.58 175.00 375.96
  Q 185.38 375.38 190.68 375.70
  C 199.42 376.23 210.79 375.55 216.86 375.52
  Q 224.84 375.49 232.82 375.49
  C 243.53 375.48 254.49 377.26 265.40 378.09
  C 265.99 378.14 266.30 378.25 266.32 378.87
  A 0.53 0.43 -89.7 0 0 266.72 379.37
  L 280.50 380.54
  Z"
/>
</svg>
