<?xml version="1.0" encoding="UTF-8" standalone="no"?>
<!DOCTYPE svg PUBLIC "-//W3C//DTD SVG 1.1//EN" "http://www.w3.org/Graphics/SVG/1.1/DTD/svg11.dtd">
<svg xmlns="http://www.w3.org/2000/svg" version="1.1" viewBox="0 0 317 383">
<g stroke-width="2.00" fill="none" stroke-linecap="butt">
<path stroke="#041e26" vector-effect="non-scaling-stroke" d="
  M 246.00 1.54
  Q 245.21 8.85 245.57 16.20
  Q 245.59 16.67 245.88 17.04
  L 246.93 18.39"
/>
<path stroke="#062a32" vector-effect="non-scaling-stroke" d="
  M 256.45 12.70
  Q 256.25 33.34 256.29 53.75
  C 256.31 62.34 263.84 68.14 267.21 75.62
  Q 272.18 86.68 277.08 97.77
  C 283.77 112.94 289.11 128.80 294.77 144.43
  C 295.95 147.68 295.66 150.68 297.70 153.73
  C 302.29 160.58 309.72 168.94 309.77 178.44
  Q 309.80 182.82 310.81 187.42
  Q 311.28 189.55 310.36 191.65
  Q 310.16 192.10 310.19 192.59
  C 310.50 198.43 306.09 204.99 301.69 208.16
  C 294.21 213.54 281.59 218.14 272.65 212.11
  C 271.94 211.63 271.56 211.65 270.75 211.79"
/>
<path stroke="#062a32" vector-effect="non-scaling-stroke" d="
  M 261.46 194.75
  Q 262.24 191.16 259.42 190.35
  C 250.47 187.76 244.97 185.07 238.08 180.09
  Q 234.52 177.51 230.21 176.31"
/>
<path stroke="#062a32" vector-effect="non-scaling-stroke" d="
  M 207.25 151.21
  Q 207.48 150.24 206.78 149.79
  Q 206.29 149.47 205.81 149.80
  C 201.82 152.50 197.66 158.51 194.19 162.17
  C 188.07 168.62 183.84 179.22 184.25 188.12
  Q 184.61 195.94 184.40 203.77
  C 184.30 207.91 185.01 211.37 185.62 215.36
  C 188.68 235.35 198.26 254.29 209.70 270.70
  Q 209.74 270.75 211.05 273.00
  Q 213.03 276.38 216.73 274.27"
/>
<path stroke="#041e26" vector-effect="non-scaling-stroke" d="
  M 241.54 274.00
  L 241.50 274.57
  Q 241.47 275.06 241.79 275.42
  C 244.02 277.94 242.79 291.10 242.60 294.87
  C 242.20 303.11 242.37 310.54 242.45 318.43
  C 242.46 319.97 243.21 320.90 244.80 320.15"
/>
<path stroke="#073544" stroke-opacity="0.980" vector-effect="non-scaling-stroke" d="
  M 281.54 320.50
  L 283.15 322.82
  Q 283.43 323.21 283.42 323.69
  C 283.34 335.22 283.68 346.97 282.85 358.46
  C 282.54 362.73 283.05 366.65 282.25 371.02
  C 281.78 373.64 282.82 378.62 279.37 379.28
  Q 278.85 379.38 278.54 378.95
  C 276.12 375.56 262.48 376.98 257.17 376.42
  Q 255.45 376.24 252.94 376.24
  Q 169.82 376.23 86.71 376.28
  Q 86.01 376.28 84.45 376.52
  C 82.60 376.80 79.95 376.27 78.81 376.27
  C 54.31 376.25 29.72 375.78 5.23 376.30
  Q 4.67 376.31 4.37 376.79
  L 3.66 377.92
  Q 2.98 379.01 2.76 377.74
  Q 2.60 376.87 2.00 376.22
  Q 1.61 375.80 1.27 376.26
  L 0.97 376.67
  Q 0.43 377.41 0.51 376.50
  Q 0.61 375.21 0.00 374.19"
/>
<path stroke="#041e26" vector-effect="non-scaling-stroke" d="
  M 201.04 29.00
  Q 200.87 28.60 200.53 28.31
  Q 200.19 28.02 199.74 28.00
  C 194.64 27.78 190.06 29.44 185.41 29.65
  C 178.10 29.99 172.04 31.24 163.80 32.98
  C 135.46 38.93 106.70 54.79 87.19 76.35
  Q 81.20 82.97 75.01 89.41
  C 68.95 95.71 64.70 102.85 60.17 110.10
  C 56.99 115.19 54.78 120.94 52.03 126.31
  C 49.20 131.83 48.09 137.77 46.03 144.40
  Q 44.71 148.65 43.16 155.37
  C 41.99 160.46 40.07 165.16 39.87 170.44
  C 39.55 178.61 38.04 186.87 38.07 194.55
  Q 38.13 206.77 38.61 219.00
  Q 38.63 219.49 38.95 219.86
  C 41.22 222.40 38.32 224.05 38.79 226.77
  Q 38.88 227.28 38.50 227.63
  Q 36.70 229.30 34.29 229.25"
/>
<path stroke="#041e26" vector-effect="non-scaling-stroke" d="
  M 88.24 299.26
  A 0.43 0.43 0.0 0 1 87.59 299.45
  C 72.56 288.54 64.58 306.37 67.42 318.39
  C 69.21 325.98 74.06 328.41 80.16 331.98
  Q 84.04 334.25 85.47 336.53
  C 88.16 340.81 88.79 347.44 85.84 352.03
  C 82.92 356.57 76.53 355.56 73.53 351.69
  Q 69.24 346.14 68.22 337.68
  Q 68.14 337.00 67.46 337.00
  L 66.36 337.00
  Q 65.71 337.00 65.72 337.65
  L 66.08 357.48
  Q 66.09 358.04 66.65 358.04
  Q 69.08 358.03 69.21 355.50
  Q 69.25 354.65 69.94 355.17
  C 87.06 368.20 96.56 346.26 91.87 332.65
  C 87.88 321.05 67.59 321.52 72.75 304.96
  C 74.38 299.70 79.88 298.33 83.67 302.23
  C 87.04 305.71 88.38 311.59 89.09 316.23
  Q 89.19 316.85 89.82 316.92
  L 90.81 317.02
  Q 91.44 317.08 91.44 316.44
  L 91.19 297.56
  Q 91.18 297.00 90.62 297.00
  L 89.73 297.00
  Q 89.18 297.00 88.97 297.51
  L 88.24 299.26"
/>
<path stroke="#041e26" vector-effect="non-scaling-stroke" d="
  M 218.31 299.48
  C 200.80 284.91 188.98 319.00 206.34 329.17
  C 214.74 334.09 220.90 337.48 218.31 348.78
  C 217.11 354.02 212.44 356.56 207.63 354.18
  C 202.52 351.64 199.92 343.23 199.17 337.64
  Q 199.08 337.00 198.44 337.00
  L 197.35 337.00
  Q 196.69 337.00 196.70 337.66
  L 197.07 357.30
  Q 197.08 357.85 197.60 358.02
  C 199.26 358.55 199.88 356.82 200.28 355.63
  Q 200.48 355.04 201.01 355.38
  C 203.11 356.71 205.25 358.12 207.59 358.67
  C 224.58 362.65 229.84 333.96 216.99 325.25
  C 209.53 320.19 201.66 317.86 203.38 306.80
  Q 204.37 300.47 209.70 300.11
  C 216.82 299.64 219.39 311.12 220.07 316.35
  Q 220.16 317.00 220.82 317.00
  L 221.84 317.00
  Q 222.44 317.00 222.43 316.41
  L 222.20 297.60
  Q 222.20 297.00 221.60 297.00
  L 220.57 297.00
  Q 220.03 297.00 219.86 297.51
  L 219.30 299.20
  Q 219.01 300.07 218.31 299.48"
/>
<path stroke="#041e26" vector-effect="non-scaling-stroke" d="
  M 130.32 354.32
  C 138.98 345.58 136.61 329.69 124.16 325.68
  Q 123.57 325.49 124.12 325.20
  Q 134.52 319.70 132.87 307.57
  C 131.78 299.49 126.67 297.06 118.94 297.01
  Q 111.37 296.97 103.78 297.01
  Q 103.17 297.02 103.08 297.62
  L 102.83 299.30
  Q 102.74 299.90 103.33 300.01
  Q 108.20 300.93 108.22 306.75
  Q 108.29 328.62 108.23 350.50
  Q 108.22 354.72 103.47 354.71
  Q 102.84 354.71 102.80 355.34
  L 102.67 357.35
  Q 102.62 358.01 103.28 358.01
  C 111.18 357.99 124.69 360.01 130.32 354.32"
/>
<path stroke="#041e26" vector-effect="non-scaling-stroke" d="
  M 170.56 357.06
  Q 170.41 357.39 170.69 357.56
  Q 171.41 358.00 171.50 358.00
  L 186.79 358.00
  Q 187.40 358.00 187.38 357.39
  L 187.35 355.55
  Q 187.34 354.91 186.70 354.87
  C 183.52 354.67 182.17 352.77 182.12 349.59
  Q 181.84 329.14 182.08 308.66
  C 182.13 304.05 181.50 300.58 186.75 300.12
  Q 187.40 300.07 187.43 299.42
  L 187.52 297.65
  Q 187.56 297.00 186.90 297.00
  L 171.46 297.00
  Q 170.90 297.00 170.81 297.55
  L 170.52 299.33
  Q 170.40 300.03 171.11 300.12
  C 175.15 300.66 175.97 303.14 176.00 306.97
  Q 176.07 315.17 175.96 323.50
  Q 175.96 324.00 175.46 324.00
  L 157.79 324.00
  Q 157.29 324.00 157.29 323.50
  Q 157.17 314.33 157.26 305.12
  C 157.28 301.91 158.70 300.31 161.83 300.06
  Q 162.47 300.01 162.48 299.37
  L 162.51 297.63
  Q 162.52 297.00 161.88 297.00
  L 146.38 297.00
  Q 145.75 297.00 145.75 297.62
  L 145.75 299.46
  Q 145.75 299.99 146.27 300.11
  C 151.61 301.29 151.18 304.42 151.20 308.90
  Q 151.38 341.16 151.21 350.50
  Q 151.12 355.11 146.35 354.83
  Q 145.78 354.80 145.77 355.37
  L 145.74 357.49
  Q 145.73 358.00 146.24 358.00
  L 161.85 358.00
  Q 162.53 358.00 162.50 357.33
  L 162.44 355.55
  Q 162.41 354.95 161.81 354.89
  Q 157.34 354.50 157.28 349.50
  Q 157.15 339.07 157.30 328.49
  Q 157.30 328.00 157.80 328.00
  L 175.46 328.00
  Q 175.96 328.00 175.96 328.50
  Q 176.07 339.05 175.99 349.64
  C 175.97 352.95 175.20 355.17 171.43 354.83
  Q 170.94 354.79 170.76 355.25
  Q 170.52 355.86 170.54 356.43
  Q 170.56 357.05 170.56 357.06"
/>
<path stroke="#041e26" vector-effect="non-scaling-stroke" d="
  M 124.73 303.83
  C 123.41 300.57 117.64 300.82 114.86 301.07
  Q 114.25 301.12 114.25 301.73
  L 114.25 323.23
  Q 114.25 323.68 114.69 323.77
  C 127.28 326.37 127.83 311.48 124.73 303.83"
/>
<path stroke="#041e26" vector-effect="non-scaling-stroke" d="
  M 114.28 349.02
  C 114.29 353.97 119.51 355.08 123.00 353.33
  C 131.60 349.01 131.18 323.73 114.70 328.35
  Q 114.25 328.47 114.25 328.95
  Q 114.25 339.00 114.28 349.02"
/>
</g>
<path fill="#073b4c" d="
  M 246.00 1.54
  Q 245.21 8.85 245.57 16.20
  Q 245.59 16.67 245.88 17.04
  L 246.93 18.39
  Q 251.04 14.23 256.45 12.70
  Q 256.25 33.34 256.29 53.75
  C 256.31 62.34 263.84 68.14 267.21 75.62
  Q 272.18 86.68 277.08 97.77
  C 283.77 112.94 289.11 128.80 294.77 144.43
  C 295.95 147.68 295.66 150.68 297.70 153.73
  C 302.29 160.58 309.72 168.94 309.77 178.44
  Q 309.80 182.82 310.81 187.42
  Q 311.28 189.55 310.36 191.65
  Q 310.16 192.10 310.19 192.59
  C 310.50 198.43 306.09 204.99 301.69 208.16
  C 294.21 213.54 281.59 218.14 272.65 212.11
  C 271.94 211.63 271.56 211.65 270.75 211.79
  Q 262.86 205.10 261.46 194.75
  Q 262.24 191.16 259.42 190.35
  C 250.47 187.76 244.97 185.07 238.08 180.09
  Q 234.52 177.51 230.21 176.31
  Q 217.73 164.70 207.25 151.21
  Q 207.48 150.24 206.78 149.79
  Q 206.29 149.47 205.81 149.80
  C 201.82 152.50 197.66 158.51 194.19 162.17
  C 188.07 168.62 183.84 179.22 184.25 188.12
  Q 184.61 195.94 184.40 203.77
  C 184.30 207.91 185.01 211.37 185.62 215.36
  C 188.68 235.35 198.26 254.29 209.70 270.70
  Q 209.74 270.75 211.05 273.00
  Q 213.03 276.38 216.73 274.27
  Q 229.15 273.18 241.54 274.00
  L 241.50 274.57
  Q 241.47 275.06 241.79 275.42
  C 244.02 277.94 242.79 291.10 242.60 294.87
  C 242.20 303.11 242.37 310.54 242.45 318.43
  C 242.46 319.97 243.21 320.90 244.80 320.15
  L 281.54 320.50
  L 283.15 322.82
  Q 283.43 323.21 283.42 323.69
  C 283.34 335.22 283.68 346.97 282.85 358.46
  C 282.54 362.73 283.05 366.65 282.25 371.02
  C 281.78 373.64 282.82 378.62 279.37 379.28
  Q 278.85 379.38 278.54 378.95
  C 276.12 375.56 262.48 376.98 257.17 376.42
  Q 255.45 376.24 252.94 376.24
  Q 169.82 376.23 86.71 376.28
  Q 86.01 376.28 84.45 376.52
  C 82.60 376.80 79.95 376.27 78.81 376.27
  C 54.31 376.25 29.72 375.78 5.23 376.30
  Q 4.67 376.31 4.37 376.79
  L 3.66 377.92
  Q 2.98 379.01 2.76 377.74
  Q 2.60 376.87 2.00 376.22
  Q 1.61 375.80 1.27 376.26
  L 0.97 376.67
  Q 0.43 377.41 0.51 376.50
  Q 0.61 375.21 0.00 374.19
  L 0.00 327.69
  L 0.67 321.83
  Q 0.74 321.18 1.39 321.18
  L 40.69 321.30
  Q 41.14 321.30 41.14 320.86
  Q 41.03 299.20 40.84 277.55
  C 40.80 272.81 44.34 273.91 47.42 273.81
  Q 58.04 273.47 68.09 274.21
  A 0.88 0.88 0.0 0 0 68.87 272.82
  C 60.58 261.42 53.12 248.08 49.70 234.31
  C 45.76 218.47 42.27 201.43 45.66 185.10
  C 46.65 180.34 46.69 175.68 48.12 170.97
  C 49.78 165.49 50.91 159.96 52.66 154.43
  C 53.33 152.31 53.60 149.06 54.90 146.66
  C 57.05 142.68 58.42 137.53 59.58 134.70
  C 61.67 129.59 63.66 124.87 66.65 120.08
  C 70.49 113.91 73.94 107.31 78.94 101.95
  C 87.55 92.71 95.88 83.22 104.61 74.11
  C 110.12 68.35 116.77 64.12 123.23 59.46
  Q 127.26 56.55 137.11 52.50
  C 144.42 49.50 151.62 46.42 159.36 44.18
  Q 162.48 43.27 167.48 41.68
  C 170.12 40.84 174.17 40.66 177.45 39.78
  Q 185.75 37.55 194.23 36.13
  C 198.82 35.37 213.92 36.30 213.60 28.96
  Q 213.57 28.45 213.07 28.48
  L 201.04 29.00
  Q 200.87 28.60 200.53 28.31
  Q 200.19 28.02 199.74 28.00
  C 194.64 27.78 190.06 29.44 185.41 29.65
  C 178.10 29.99 172.04 31.24 163.80 32.98
  C 135.46 38.93 106.70 54.79 87.19 76.35
  Q 81.20 82.97 75.01 89.41
  C 68.95 95.71 64.70 102.85 60.17 110.10
  C 56.99 115.19 54.78 120.94 52.03 126.31
  C 49.20 131.83 48.09 137.77 46.03 144.40
  Q 44.71 148.65 43.16 155.37
  C 41.99 160.46 40.07 165.16 39.87 170.44
  C 39.55 178.61 38.04 186.87 38.07 194.55
  Q 38.13 206.77 38.61 219.00
  Q 38.63 219.49 38.95 219.86
  C 41.22 222.40 38.32 224.05 38.79 226.77
  Q 38.88 227.28 38.50 227.63
  Q 36.70 229.30 34.29 229.25
  Q 33.14 222.33 32.64 215.33
  C 32.38 211.61 30.79 208.19 30.77 204.63
  C 30.74 195.83 29.85 185.82 31.61 177.21
  C 35.17 159.80 27.30 170.68 20.69 165.59
  Q 20.25 165.25 20.22 164.71
  C 19.81 157.11 32.06 151.97 31.71 146.01
  Q 31.67 145.40 31.06 145.45
  C 28.09 145.74 16.63 147.00 18.18 141.27
  Q 18.54 139.95 19.23 139.47
  Q 27.84 133.55 35.95 126.95
  Q 36.69 126.34 37.15 125.49
  A 1.78 1.78 0.0 0 0 35.94 122.91
  C 32.33 122.17 24.31 121.15 26.29 115.45
  Q 26.46 114.95 26.92 114.69
  Q 34.24 110.53 41.68 106.68
  Q 42.98 106.01 44.10 104.74
  A 1.11 1.11 0.0 0 0 43.49 102.93
  C 40.06 102.22 29.78 102.10 33.09 95.73
  Q 33.32 95.28 33.79 95.13
  C 40.68 92.82 49.56 91.01 55.81 87.52
  A 0.85 0.85 0.0 0 0 55.90 86.09
  C 52.49 83.58 40.58 85.55 42.35 78.31
  Q 42.47 77.81 42.95 77.64
  C 45.92 76.60 49.05 76.52 51.85 75.44
  Q 60.54 72.09 69.87 70.81
  A 1.31 1.31 0.0 0 0 70.12 68.28
  C 66.00 66.86 57.08 65.25 57.79 59.46
  Q 57.85 58.94 58.36 58.83
  C 63.48 57.69 68.45 57.88 73.59 56.69
  Q 80.19 55.17 87.02 56.26
  Q 87.79 56.38 87.48 55.67
  C 84.61 49.00 72.74 51.43 74.68 42.57
  Q 74.80 42.01 75.36 42.01
  Q 85.39 41.86 95.28 40.93
  C 100.21 40.47 105.99 41.23 111.55 39.53
  Q 112.11 39.36 111.92 38.80
  C 110.90 35.80 106.36 35.49 103.74 34.54
  Q 103.24 34.36 102.99 33.88
  Q 101.93 31.83 102.85 29.61
  Q 103.05 29.13 103.52 28.92
  C 107.70 27.02 111.20 29.39 114.01 28.51
  Q 124.75 25.14 137.46 27.22
  A 1.11 1.09 -66.6 0 0 138.50 26.80
  C 140.14 24.65 131.52 20.83 130.05 19.96
  C 127.85 18.65 128.03 14.96 131.60 14.93
  Q 145.73 14.81 159.69 16.90
  C 164.60 17.64 170.15 17.09 174.07 17.68
  Q 180.59 18.66 185.28 18.79
  C 195.66 19.10 205.88 20.58 216.26 21.11
  C 221.61 21.39 225.47 16.01 229.15 13.21
  C 232.92 10.33 241.67 1.74 246.00 1.54
  Z
  M 88.24 299.26
  A 0.43 0.43 0.0 0 1 87.59 299.45
  C 72.56 288.54 64.58 306.37 67.42 318.39
  C 69.21 325.98 74.06 328.41 80.16 331.98
  Q 84.04 334.25 85.47 336.53
  C 88.16 340.81 88.79 347.44 85.84 352.03
  C 82.92 356.57 76.53 355.56 73.53 351.69
  Q 69.24 346.14 68.22 337.68
  Q 68.14 337.00 67.46 337.00
  L 66.36 337.00
  Q 65.71 337.00 65.72 337.65
  L 66.08 357.48
  Q 66.09 358.04 66.65 358.04
  Q 69.08 358.03 69.21 355.50
  Q 69.25 354.65 69.94 355.17
  C 87.06 368.20 96.56 346.26 91.87 332.65
  C 87.88 321.05 67.59 321.52 72.75 304.96
  C 74.38 299.70 79.88 298.33 83.67 302.23
  C 87.04 305.71 88.38 311.59 89.09 316.23
  Q 89.19 316.85 89.82 316.92
  L 90.81 317.02
  Q 91.44 317.08 91.44 316.44
  L 91.19 297.56
  Q 91.18 297.00 90.62 297.00
  L 89.73 297.00
  Q 89.18 297.00 88.97 297.51
  L 88.24 299.26
  Z
  M 218.31 299.48
  C 200.80 284.91 188.98 319.00 206.34 329.17
  C 214.74 334.09 220.90 337.48 218.31 348.78
  C 217.11 354.02 212.44 356.56 207.63 354.18
  C 202.52 351.64 199.92 343.23 199.17 337.64
  Q 199.08 337.00 198.44 337.00
  L 197.35 337.00
  Q 196.69 337.00 196.70 337.66
  L 197.07 357.30
  Q 197.08 357.85 197.60 358.02
  C 199.26 358.55 199.88 356.82 200.28 355.63
  Q 200.48 355.04 201.01 355.38
  C 203.11 356.71 205.25 358.12 207.59 358.67
  C 224.58 362.65 229.84 333.96 216.99 325.25
  C 209.53 320.19 201.66 317.86 203.38 306.80
  Q 204.37 300.47 209.70 300.11
  C 216.82 299.64 219.39 311.12 220.07 316.35
  Q 220.16 317.00 220.82 317.00
  L 221.84 317.00
  Q 222.44 317.00 222.43 316.41
  L 222.20 297.60
  Q 222.20 297.00 221.60 297.00
  L 220.57 297.00
  Q 220.03 297.00 219.86 297.51
  L 219.30 299.20
  Q 219.01 300.07 218.31 299.48
  Z
  M 130.32 354.32
  C 138.98 345.58 136.61 329.69 124.16 325.68
  Q 123.57 325.49 124.12 325.20
  Q 134.52 319.70 132.87 307.57
  C 131.78 299.49 126.67 297.06 118.94 297.01
  Q 111.37 296.97 103.78 297.01
  Q 103.17 297.02 103.08 297.62
  L 102.83 299.30
  Q 102.74 299.90 103.33 300.01
  Q 108.20 300.93 108.22 306.75
  Q 108.29 328.62 108.23 350.50
  Q 108.22 354.72 103.47 354.71
  Q 102.84 354.71 102.80 355.34
  L 102.67 357.35
  Q 102.62 358.01 103.28 358.01
  C 111.18 357.99 124.69 360.01 130.32 354.32
  Z
  M 170.56 357.06
  Q 170.41 357.39 170.69 357.56
  Q 171.41 358.00 171.50 358.00
  L 186.79 358.00
  Q 187.40 358.00 187.38 357.39
  L 187.35 355.55
  Q 187.34 354.91 186.70 354.87
  C 183.52 354.67 182.17 352.77 182.12 349.59
  Q 181.84 329.14 182.08 308.66
  C 182.13 304.05 181.50 300.58 186.75 300.12
  Q 187.40 300.07 187.43 299.42
  L 187.52 297.65
  Q 187.56 297.00 186.90 297.00
  L 171.46 297.00
  Q 170.90 297.00 170.81 297.55
  L 170.52 299.33
  Q 170.40 300.03 171.11 300.12
  C 175.15 300.66 175.97 303.14 176.00 306.97
  Q 176.07 315.17 175.96 323.50
  Q 175.96 324.00 175.46 324.00
  L 157.79 324.00
  Q 157.29 324.00 157.29 323.50
  Q 157.17 314.33 157.26 305.12
  C 157.28 301.91 158.70 300.31 161.83 300.06
  Q 162.47 300.01 162.48 299.37
  L 162.51 297.63
  Q 162.52 297.00 161.88 297.00
  L 146.38 297.00
  Q 145.75 297.00 145.75 297.62
  L 145.75 299.46
  Q 145.75 299.99 146.27 300.11
  C 151.61 301.29 151.18 304.42 151.20 308.90
  Q 151.38 341.16 151.21 350.50
  Q 151.12 355.11 146.35 354.83
  Q 145.78 354.80 145.77 355.37
  L 145.74 357.49
  Q 145.73 358.00 146.24 358.00
  L 161.85 358.00
  Q 162.53 358.00 162.50 357.33
  L 162.44 355.55
  Q 162.41 354.95 161.81 354.89
  Q 157.34 354.50 157.28 349.50
  Q 157.15 339.07 157.30 328.49
  Q 157.30 328.00 157.80 328.00
  L 175.46 328.00
  Q 175.96 328.00 175.96 328.50
  Q 176.07 339.05 175.99 349.64
  C 175.97 352.95 175.20 355.17 171.43 354.83
  Q 170.94 354.79 170.76 355.25
  Q 170.52 355.86 170.54 356.43
  Q 170.56 357.05 170.56 357.06
  Z"
/>
<path fill="#000000" d="
  M 246.00 1.54
  Q 247.13 1.26 248.04 1.77
  Q 248.51 2.03 248.42 2.56
  Q 247.19 10.00 246.93 18.39
  L 245.88 17.04
  Q 245.59 16.67 245.57 16.20
  Q 245.21 8.85 246.00 1.54
  Z"
/>
<path fill="#051818" d="
  M 256.45 12.70
  Q 258.38 12.97 258.40 15.20
  Q 258.55 35.46 258.48 55.75
  C 258.47 59.32 264.42 67.17 266.59 70.36
  C 271.33 77.33 274.22 85.28 277.72 92.86
  C 285.36 109.35 291.53 126.71 297.35 143.92
  C 298.21 146.44 298.39 150.99 300.03 153.21
  C 304.57 159.37 311.88 168.98 313.28 176.49
  C 314.12 180.96 316.05 186.54 314.26 191.49
  C 313.65 193.19 313.64 195.26 312.84 196.67
  Q 310.89 200.08 308.90 203.48
  C 304.86 210.38 295.79 213.93 288.74 216.24
  Q 286.78 216.89 279.99 216.74
  Q 275.15 216.63 270.75 211.79
  C 271.56 211.65 271.94 211.63 272.65 212.11
  C 281.59 218.14 294.21 213.54 301.69 208.16
  C 306.09 204.99 310.50 198.43 310.19 192.59
  Q 310.16 192.10 310.36 191.65
  Q 311.28 189.55 310.81 187.42
  Q 309.80 182.82 309.77 178.44
  C 309.72 168.94 302.29 160.58 297.70 153.73
  C 295.66 150.68 295.95 147.68 294.77 144.43
  C 289.11 128.80 283.77 112.94 277.08 97.77
  Q 272.18 86.68 267.21 75.62
  C 263.84 68.14 256.31 62.34 256.29 53.75
  Q 256.25 33.34 256.45 12.70
  Z"
/>
<path fill="#000000" d="
  M 201.04 29.00
  Q 194.70 30.28 188.27 30.95
  Q 178.63 31.95 161.24 36.21
  C 134.82 42.68 108.75 56.08 90.85 75.60
  C 83.69 83.41 75.68 90.80 69.69 99.43
  Q 62.29 110.10 60.69 113.70
  C 57.52 120.86 53.64 127.82 51.40 135.27
  Q 49.98 139.98 48.61 144.70
  C 47.14 149.76 45.62 157.22 43.81 163.44
  Q 42.78 167.00 42.57 170.71
  C 42.06 179.67 39.98 189.22 39.89 197.23
  Q 39.75 208.91 41.45 220.50
  Q 41.92 223.71 41.20 229.49
  C 40.65 233.92 41.30 238.11 41.25 242.57
  Q 41.25 243.13 40.69 243.13
  C 32.62 243.16 34.86 233.64 34.29 229.25
  Q 36.70 229.30 38.50 227.63
  Q 38.88 227.28 38.79 226.77
  C 38.32 224.05 41.22 222.40 38.95 219.86
  Q 38.63 219.49 38.61 219.00
  Q 38.13 206.77 38.07 194.55
  C 38.04 186.87 39.55 178.61 39.87 170.44
  C 40.07 165.16 41.99 160.46 43.16 155.37
  Q 44.71 148.65 46.03 144.40
  C 48.09 137.77 49.20 131.83 52.03 126.31
  C 54.78 120.94 56.99 115.19 60.17 110.10
  C 64.70 102.85 68.95 95.71 75.01 89.41
  Q 81.20 82.97 87.19 76.35
  C 106.70 54.79 135.46 38.93 163.80 32.98
  C 172.04 31.24 178.10 29.99 185.41 29.65
  C 190.06 29.44 194.64 27.78 199.74 28.00
  Q 200.19 28.02 200.53 28.31
  Q 200.87 28.60 201.04 29.00
  Z"
/>
<path fill="#051818" d="
  M 207.25 151.21
  Q 207.06 151.23 206.89 151.25
  Q 206.53 151.28 206.30 151.56
  Q 200.60 158.68 194.13 165.14
  C 189.90 169.36 186.51 181.66 186.51 187.62
  C 186.50 196.05 186.00 204.69 187.53 212.73
  Q 193.79 245.87 214.09 273.08
  C 214.78 274.00 215.64 274.32 216.73 274.27
  Q 213.03 276.38 211.05 273.00
  Q 209.74 270.75 209.70 270.70
  C 198.26 254.29 188.68 235.35 185.62 215.36
  C 185.01 211.37 184.30 207.91 184.40 203.77
  Q 184.61 195.94 184.25 188.12
  C 183.84 179.22 188.07 168.62 194.19 162.17
  C 197.66 158.51 201.82 152.50 205.81 149.80
  Q 206.29 149.47 206.78 149.79
  Q 207.48 150.24 207.25 151.21
  Z"
/>
<path fill="#051818" d="
  M 230.21 176.31
  Q 234.52 177.51 238.08 180.09
  C 244.97 185.07 250.47 187.76 259.42 190.35
  Q 262.24 191.16 261.46 194.75
  Q 260.88 192.54 259.56 192.19
  Q 243.01 187.74 230.21 176.31
  Z"
/>
<path fill="#000000" d="
  M 241.54 274.00
  Q 244.93 274.63 244.96 278.26
  Q 245.13 298.96 244.80 320.15
  C 243.21 320.90 242.46 319.97 242.45 318.43
  C 242.37 310.54 242.20 303.11 242.60 294.87
  C 242.79 291.10 244.02 277.94 241.79 275.42
  Q 241.47 275.06 241.50 274.57
  L 241.54 274.00
  Z"
/>
<path fill="#000000" d="
  M 88.24 299.26
  L 88.97 297.51
  Q 89.18 297.00 89.73 297.00
  L 90.62 297.00
  Q 91.18 297.00 91.19 297.56
  L 91.44 316.44
  Q 91.44 317.08 90.81 317.02
  L 89.82 316.92
  Q 89.19 316.85 89.09 316.23
  C 88.38 311.59 87.04 305.71 83.67 302.23
  C 79.88 298.33 74.38 299.70 72.75 304.96
  C 67.59 321.52 87.88 321.05 91.87 332.65
  C 96.56 346.26 87.06 368.20 69.94 355.17
  Q 69.25 354.65 69.21 355.50
  Q 69.08 358.03 66.65 358.04
  Q 66.09 358.04 66.08 357.48
  L 65.72 337.65
  Q 65.71 337.00 66.36 337.00
  L 67.46 337.00
  Q 68.14 337.00 68.22 337.68
  Q 69.24 346.14 73.53 351.69
  C 76.53 355.56 82.92 356.57 85.84 352.03
  C 88.79 347.44 88.16 340.81 85.47 336.53
  Q 84.04 334.25 80.16 331.98
  C 74.06 328.41 69.21 325.98 67.42 318.39
  C 64.58 306.37 72.56 288.54 87.59 299.45
  A 0.43 0.43 0.0 0 0 88.24 299.26
  Z"
/>
<path fill="#000000" d="
  M 218.31 299.48
  Q 219.01 300.07 219.30 299.20
  L 219.86 297.51
  Q 220.03 297.00 220.57 297.00
  L 221.60 297.00
  Q 222.20 297.00 222.20 297.60
  L 222.43 316.41
  Q 222.44 317.00 221.84 317.00
  L 220.82 317.00
  Q 220.16 317.00 220.07 316.35
  C 219.39 311.12 216.82 299.64 209.70 300.11
  Q 204.37 300.47 203.38 306.80
  C 201.66 317.86 209.53 320.19 216.99 325.25
  C 229.84 333.96 224.58 362.65 207.59 358.67
  C 205.25 358.12 203.11 356.71 201.01 355.38
  Q 200.48 355.04 200.28 355.63
  C 199.88 356.82 199.26 358.55 197.60 358.02
  Q 197.08 357.85 197.07 357.30
  L 196.70 337.66
  Q 196.69 337.00 197.35 337.00
  L 198.44 337.00
  Q 199.08 337.00 199.17 337.64
  C 199.92 343.23 202.52 351.64 207.63 354.18
  C 212.44 356.56 217.11 354.02 218.31 348.78
  C 220.90 337.48 214.74 334.09 206.34 329.17
  C 188.98 319.00 200.80 284.91 218.31 299.48
  Z"
/>
<path fill="#000000" d="
  M 130.32 354.32
  C 124.69 360.01 111.18 357.99 103.28 358.01
  Q 102.62 358.01 102.67 357.35
  L 102.80 355.34
  Q 102.84 354.71 103.47 354.71
  Q 108.22 354.72 108.23 350.50
  Q 108.29 328.62 108.22 306.75
  Q 108.20 300.93 103.33 300.01
  Q 102.74 299.90 102.83 299.30
  L 103.08 297.62
  Q 103.17 297.02 103.78 297.01
  Q 111.37 296.97 118.94 297.01
  C 126.67 297.06 131.78 299.49 132.87 307.57
  Q 134.52 319.70 124.12 325.20
  Q 123.57 325.49 124.16 325.68
  C 136.61 329.69 138.98 345.58 130.32 354.32
  Z
  M 124.73 303.83
  C 123.41 300.57 117.64 300.82 114.86 301.07
  Q 114.25 301.12 114.25 301.73
  L 114.25 323.23
  Q 114.25 323.68 114.69 323.77
  C 127.28 326.37 127.83 311.48 124.73 303.83
  Z
  M 114.28 349.02
  C 114.29 353.97 119.51 355.08 123.00 353.33
  C 131.60 349.01 131.18 323.73 114.70 328.35
  Q 114.25 328.47 114.25 328.95
  Q 114.25 339.00 114.28 349.02
  Z"
/>
<path fill="#000000" d="
  M 170.54 356.43
  Q 170.52 355.86 170.76 355.25
  Q 170.94 354.79 171.43 354.83
  C 175.20 355.17 175.97 352.95 175.99 349.64
  Q 176.07 339.05 175.96 328.50
  Q 175.96 328.00 175.46 328.00
  L 157.80 328.00
  Q 157.30 328.00 157.30 328.49
  Q 157.15 339.07 157.28 349.50
  Q 157.34 354.50 161.81 354.89
  Q 162.41 354.95 162.44 355.55
  L 162.50 357.33
  Q 162.53 358.00 161.85 358.00
  L 146.24 358.00
  Q 145.73 358.00 145.74 357.49
  L 145.77 355.37
  Q 145.78 354.80 146.35 354.83
  Q 151.12 355.11 151.21 350.50
  Q 151.38 341.16 151.20 308.90
  C 151.18 304.42 151.61 301.29 146.27 300.11
  Q 145.75 299.99 145.75 299.46
  L 145.75 297.62
  Q 145.75 297.00 146.38 297.00
  L 161.88 297.00
  Q 162.52 297.00 162.51 297.63
  L 162.48 299.37
  Q 162.47 300.01 161.83 300.06
  C 158.70 300.31 157.28 301.91 157.26 305.12
  Q 157.17 314.33 157.29 323.50
  Q 157.29 324.00 157.79 324.00
  L 175.46 324.00
  Q 175.96 324.00 175.96 323.50
  Q 176.07 315.17 176.00 306.97
  C 175.97 303.14 175.15 300.66 171.11 300.12
  Q 170.40 300.03 170.52 299.33
  L 170.81 297.55
  Q 170.90 297.00 171.46 297.00
  L 186.90 297.00
  Q 187.56 297.00 187.52 297.65
  L 187.43 299.42
  Q 187.40 300.07 186.75 300.12
  C 181.50 300.58 182.13 304.05 182.08 308.66
  Q 181.84 329.14 182.12 349.59
  C 182.17 352.77 183.52 354.67 186.70 354.87
  Q 187.34 354.91 187.35 355.55
  L 187.38 357.39
  Q 187.40 358.00 186.79 358.00
  L 171.50 358.00
  Q 171.41 358.00 170.69 357.56
  Q 170.41 357.39 170.56 357.06
  Q 170.56 357.05 170.54 356.43
  Z"
/>
<path fill="#073b4c" d="
  M 114.86 301.07
  C 117.64 300.82 123.41 300.57 124.73 303.83
  C 127.83 311.48 127.28 326.37 114.69 323.77
  Q 114.25 323.68 114.25 323.23
  L 114.25 301.73
  Q 114.25 301.12 114.86 301.07
  Z"
/>
<path fill="#072e3b" fill-opacity="0.961" d="
  M 281.54 320.50
  C 286.72 320.66 285.03 328.38 285.02 331.45
  Q 284.98 353.47 285.01 375.50
  Q 285.01 377.92 284.60 381.22
  Q 284.54 381.75 284.01 381.75
  Q 144.71 381.76 5.42 381.75
  C 3.76 381.75 2.27 381.23 0.73 380.78
  Q 0.23 380.63 0.21 380.12
  L 0.00 375.94
  L 0.00 374.19
  Q 0.61 375.21 0.51 376.50
  Q 0.43 377.41 0.97 376.67
  L 1.27 376.26
  Q 1.61 375.80 2.00 376.22
  Q 2.60 376.87 2.76 377.74
  Q 2.98 379.01 3.66 377.92
  L 4.37 376.79
  Q 4.67 376.31 5.23 376.30
  C 29.72 375.78 54.31 376.25 78.81 376.27
  C 79.95 376.27 82.60 376.80 84.45 376.52
  Q 86.01 376.28 86.71 376.28
  Q 169.82 376.23 252.94 376.24
  Q 255.45 376.24 257.17 376.42
  C 262.48 376.98 276.12 375.56 278.54 378.95
  Q 278.85 379.38 279.37 379.28
  C 282.82 378.62 281.78 373.64 282.25 371.02
  C 283.05 366.65 282.54 362.73 282.85 358.46
  C 283.68 346.97 283.34 335.22 283.42 323.69
  Q 283.43 323.21 283.15 322.82
  L 281.54 320.50
  Z"
/>
<path fill="#073b4c" d="
  M 123.00 353.33
  C 119.51 355.08 114.29 353.97 114.28 349.02
  Q 114.25 339.00 114.25 328.95
  Q 114.25 328.47 114.70 328.35
  C 131.18 323.73 131.60 349.01 123.00 353.33
  Z"
/>
</svg>
