<?xml version="1.0" encoding="UTF-8" standalone="no"?>
<!DOCTYPE svg PUBLIC "-//W3C//DTD SVG 1.1//EN" "http://www.w3.org/Graphics/SVG/1.1/DTD/svg11.dtd">
<svg xmlns="http://www.w3.org/2000/svg" version="1.1" viewBox="0 0 317 383">
<g stroke-width="2.00" fill="none" stroke-linecap="butt">
<path stroke="#808080" vector-effect="non-scaling-stroke" d="
  M 248.00 17.54
  L 248.24 18.28
  Q 248.43 18.85 247.89 19.12
  L 243.42 21.36
  A 0.37 0.37 0.0 0 1 242.89 21.07
  Q 241.82 12.11 245.98 4.15
  Q 246.27 3.59 245.74 3.26
  Q 244.85 2.71 243.81 3.27
  Q 243.30 3.54 242.94 3.09
  Q 242.72 2.81 242.75 2.54"
/>
<path stroke="#808080" vector-effect="non-scaling-stroke" d="
  M 258.33 13.38
  C 255.36 14.07 254.98 19.24 254.92 21.74
  Q 254.46 38.53 255.52 55.30
  C 255.80 59.69 260.93 65.87 263.40 69.56
  Q 266.30 73.90 268.41 78.37
  C 278.64 100.07 284.95 116.66 293.18 140.66
  C 294.26 143.80 295.25 150.75 297.26 153.23
  Q 302.95 160.26 306.81 168.39
  C 309.12 173.27 309.13 179.04 309.57 184.40
  C 310.86 200.26 302.28 210.78 286.57 212.65
  Q 279.95 213.44 276.44 212.65
  C 268.14 210.80 263.41 201.04 262.42 193.36
  C 262.18 191.54 261.54 190.51 259.92 189.84
  C 254.78 187.71 249.14 186.33 244.57 183.91
  C 229.36 175.88 217.87 163.30 207.60 149.17
  Q 207.29 148.74 206.76 148.79
  C 202.44 149.19 193.03 160.42 190.80 163.89
  C 177.45 184.72 182.40 209.75 189.42 231.74
  C 194.01 246.11 201.40 258.51 210.36 272.61
  C 213.06 276.85 223.46 275.80 230.38 275.77
  C 233.38 275.76 236.47 274.70 239.76 274.72
  A 1.85 1.85 0.0 0 1 241.60 276.58
  Q 241.53 297.23 241.34 317.96
  C 241.30 321.82 244.42 321.85 247.47 321.96
  Q 263.83 322.52 280.22 321.72
  A 1.79 1.78 88.6 0 1 282.09 323.51
  Q 282.04 344.08 281.83 365.26
  C 281.79 369.15 282.40 374.27 281.30 379.08"
/>
<path stroke="#151415" stroke-opacity="0.992" vector-effect="non-scaling-stroke" d="
  M 281.30 379.08
  Q 273.98 377.62 266.63 377.74
  Q 262.43 377.81 259.07 377.23
  C 246.01 374.97 232.41 375.73 219.18 375.60
  Q 208.13 375.49 199.19 375.52
  Q 104.06 375.84 8.94 375.70
  Q 5.01 375.69 3.27 375.31
  Q 2.76 375.20 2.43 375.60
  C 1.47 376.76 1.89 379.67 0.29 379.25"
/>
<path stroke="#362f3c" vector-effect="non-scaling-stroke" d="
  M 62.75 274.04
  L 62.50 274.85
  Q 62.30 275.50 62.98 275.50
  L 69.77 275.50
  Q 70.32 275.50 70.41 274.96
  Q 70.94 271.82 69.21 269.79
  C 57.99 256.66 51.45 239.02 48.24 222.25
  C 47.59 218.88 47.81 216.25 47.60 213.70
  C 46.85 204.85 46.76 196.18 47.46 187.32
  C 47.56 186.10 47.90 180.70 46.50 180.71"
/>
<path stroke="#362f3c" vector-effect="non-scaling-stroke" d="
  M 46.79 178.25
  C 48.38 178.63 48.98 173.18 49.20 172.06
  C 49.82 168.96 51.52 164.87 51.50 160.82
  Q 51.50 160.32 51.78 159.91
  Q 54.49 156.05 55.23 151.45
  C 55.50 149.76 58.91 142.97 56.75 142.96"
/>
<path stroke="#362f3c" vector-effect="non-scaling-stroke" d="
  M 101.50 78.24
  Q 117.31 62.77 137.74 54.31
  Q 145.56 51.07 153.49 48.03
  C 158.01 46.29 163.68 45.65 168.68 43.42
  C 171.30 42.25 175.94 42.40 179.05 41.64
  C 186.99 39.70 194.98 38.23 203.16 37.89
  C 209.09 37.65 214.93 33.86 214.79 27.25"
/>
<path stroke="#151415" stroke-opacity="0.992" vector-effect="non-scaling-stroke" d="
  M 214.79 27.25
  L 216.71 23.94
  Q 216.98 23.47 217.52 23.41
  Q 222.90 22.81 224.04 17.52"
/>
<path stroke="#808080" vector-effect="non-scaling-stroke" d="
  M 70.01 355.42
  C 85.20 365.83 95.03 350.93 93.23 337.14
  C 92.09 328.48 86.34 325.17 79.65 321.07
  Q 75.56 318.55 74.21 316.42
  C 71.38 311.97 71.06 304.08 76.10 300.79
  C 83.96 295.65 88.03 310.85 88.84 315.28
  C 89.09 316.65 89.70 317.37 91.18 316.91
  A 0.52 0.52 0.0 0 0 91.55 316.41
  L 91.48 297.82
  Q 91.48 297.17 90.83 297.12
  L 89.40 297.00
  Q 88.83 296.95 88.68 297.51
  L 88.26 299.10
  Q 88.06 299.83 87.47 299.36
  Q 80.16 293.65 74.06 297.38
  C 67.08 301.63 65.55 311.37 67.47 319.02
  C 69.48 327.03 75.68 329.38 81.76 333.09
  C 89.81 337.99 89.89 357.44 78.57 354.77
  C 71.96 353.21 69.07 343.32 68.22 337.64
  Q 68.13 337.03 67.52 337.02
  L 66.13 336.99
  Q 65.49 336.98 65.51 337.62
  L 66.06 357.41
  Q 66.07 358.08 66.74 358.01
  L 67.90 357.89
  Q 68.44 357.84 68.60 357.33
  L 69.13 355.72
  Q 69.37 354.99 70.01 355.42"
/>
<path stroke="#808080" vector-effect="non-scaling-stroke" d="
  M 200.85 355.35
  C 211.02 362.02 220.74 358.87 223.71 346.88
  Q 226.84 334.23 218.26 326.10
  C 214.32 322.37 208.20 320.99 205.29 316.53
  C 197.48 304.55 212.36 291.40 217.55 307.24
  Q 219.61 313.55 220.08 316.38
  Q 220.18 316.99 220.79 316.98
  L 222.00 316.98
  Q 222.55 316.98 222.55 316.44
  L 222.48 297.79
  Q 222.47 297.03 221.72 297.02
  L 220.40 296.99
  Q 219.83 296.98 219.69 297.53
  L 219.30 298.97
  A 0.60 0.59 -62.9 0 1 218.35 299.28
  C 210.34 292.74 201.63 296.56 198.83 305.77
  C 196.81 312.39 197.28 320.27 201.96 325.74
  C 205.83 330.26 213.83 331.64 216.72 337.08
  Q 219.71 342.70 218.00 349.24
  C 216.73 354.09 212.08 356.47 207.63 354.04
  C 202.54 351.27 199.98 343.19 199.31 337.73
  Q 199.23 337.11 198.61 337.07
  L 197.16 336.98
  Q 196.51 336.94 196.53 337.59
  L 197.05 357.39
  Q 197.07 358.04 197.71 357.99
  L 198.62 357.93
  Q 199.01 357.90 199.29 357.61
  Q 200.06 356.81 200.07 355.76
  Q 200.08 354.84 200.85 355.35"
/>
<path stroke="#808080" vector-effect="non-scaling-stroke" d="
  M 124.13 325.68
  A 0.14 0.13 -52.5 0 1 124.10 325.43
  Q 135.68 319.04 132.58 305.65
  C 130.89 298.36 125.51 297.01 118.38 297.00
  Q 110.93 296.99 103.45 297.01
  Q 102.75 297.01 102.75 297.70
  L 102.75 299.47
  Q 102.75 299.97 103.24 300.06
  C 106.53 300.68 108.07 302.56 108.09 306.02
  Q 108.14 315.53 108.22 325.03
  C 108.29 333.88 108.63 341.86 107.88 352.09
  Q 107.83 352.67 107.40 353.05
  Q 105.58 354.66 103.11 355.02
  Q 102.50 355.11 102.50 355.72
  L 102.50 357.30
  Q 102.50 357.99 103.19 358.00
  C 109.46 358.01 121.91 359.37 127.32 356.64
  C 139.57 350.46 137.88 329.35 124.13 325.68"
/>
<path stroke="#808080" vector-effect="non-scaling-stroke" d="
  M 175.48 324.00
  L 158.01 324.00
  Q 157.43 324.00 157.44 323.42
  Q 157.53 314.50 157.29 305.55
  Q 157.15 300.48 161.96 300.06
  Q 162.53 300.01 162.56 299.44
  L 162.67 297.74
  Q 162.72 297.00 161.98 297.00
  L 146.12 297.00
  Q 145.42 297.00 145.48 297.70
  L 145.62 299.52
  Q 145.68 300.18 146.33 300.28
  C 151.84 301.09 151.46 306.73 151.25 311.35
  C 150.70 323.44 150.97 335.65 151.23 347.75
  Q 151.29 350.75 150.23 353.53
  Q 150.04 354.02 149.54 354.16
  L 145.98 355.14
  Q 145.52 355.27 145.54 355.75
  L 145.64 357.46
  Q 145.67 358.00 146.21 358.00
  L 161.87 358.00
  Q 162.50 358.00 162.50 357.37
  L 162.50 355.51
  Q 162.50 354.81 161.80 354.75
  Q 159.58 354.59 158.11 353.01
  Q 157.76 352.63 157.68 352.12
  C 156.54 344.67 157.39 336.25 157.40 328.61
  Q 157.40 328.00 158.00 328.00
  L 175.50 328.00
  Q 176.01 328.00 176.01 328.50
  L 175.99 351.36
  A 3.11 3.10 82.5 0 1 173.70 354.36
  L 171.13 355.05
  Q 170.50 355.22 170.50 355.88
  L 170.50 357.38
  Q 170.50 358.00 171.13 358.00
  L 186.88 358.00
  Q 187.50 358.00 187.50 357.38
  L 187.50 355.48
  Q 187.50 354.75 186.77 354.71
  Q 182.24 354.43 182.24 350.50
  Q 182.26 327.88 182.25 305.25
  Q 182.24 300.49 186.68 300.17
  Q 187.40 300.12 187.43 299.40
  L 187.52 297.65
  Q 187.56 297.00 186.90 297.00
  L 171.12 297.00
  Q 170.50 297.00 170.50 297.63
  L 170.50 299.48
  Q 170.50 299.97 170.99 300.06
  C 175.16 300.76 175.97 303.30 176.00 307.31
  Q 176.05 315.41 175.98 323.50
  Q 175.97 324.00 175.48 324.00"
/>
<path stroke="#bdbfc6" stroke-opacity="0.835" vector-effect="non-scaling-stroke" d="
  M 313.25 195.54
  Q 311.86 196.33 311.79 198.00"
/>
<path stroke="#969596" stroke-opacity="0.992" vector-effect="non-scaling-stroke" d="
  M 283.25 381.46
  L 281.30 381.19
  Q 280.88 381.14 280.97 380.72
  L 281.30 379.08"
/>
<path stroke="#151415" stroke-opacity="0.992" vector-effect="non-scaling-stroke" d="
  M 135.25 15.04
  L 134.84 15.38
  Q 133.48 16.49 135.24 16.53
  Q 140.66 16.65 146.05 17.29
  C 149.36 17.69 154.73 17.90 158.94 18.92
  Q 161.61 19.57 164.14 19.44
  Q 172.01 19.03 179.74 20.46
  C 182.75 21.02 185.94 19.75 189.34 20.41
  Q 196.75 21.84 204.28 22.03
  Q 204.76 22.04 205.15 22.33
  Q 206.72 23.48 206.00 24.96"
/>
<path stroke="#808080" vector-effect="non-scaling-stroke" d="
  M 206.00 24.96
  Q 188.51 26.56 171.26 29.89
  C 167.14 30.68 162.71 32.01 158.37 33.01
  Q 152.49 34.37 148.81 35.70
  C 104.45 51.71 69.13 82.99 50.64 126.91
  C 46.49 136.77 43.37 150.57 40.86 160.45
  Q 39.71 165.00 39.22 171.33
  C 38.62 179.15 37.07 187.71 36.51 194.65
  C 35.69 204.75 37.43 213.09 37.71 222.50"
/>
<path stroke="#25272d" stroke-opacity="0.835" vector-effect="non-scaling-stroke" d="
  M 37.71 222.50
  L 37.05 222.84
  Q 36.61 223.06 36.72 223.53
  Q 37.08 225.00 35.87 225.55
  Q 35.19 225.86 35.24 225.11
  Q 35.43 221.98 34.21 219.12
  Q 34.16 219.00 34.02 219.00
  Q 33.83 219.00 33.65 219.01
  Q 33.28 219.02 33.27 219.39
  Q 33.27 219.76 33.04 220.00"
/>
<path stroke="#362f3c" vector-effect="non-scaling-stroke" d="
  M 32.60 211.85
  Q 34.01 208.27 32.23 204.24
  A 0.58 0.58 0.0 0 0 31.28 204.08
  Q 30.90 204.47 30.96 205.00"
/>
<path stroke="#151415" stroke-opacity="0.992" vector-effect="non-scaling-stroke" d="
  M 31.15 189.90
  Q 33.61 183.21 33.17 176.10
  Q 33.14 175.60 32.71 175.35
  Q 32.37 175.16 32.04 175.25"
/>
<path stroke="#808080" vector-effect="non-scaling-stroke" d="
  M 32.56 169.31
  Q 33.76 167.70 33.06 166.05
  C 31.66 162.77 25.25 163.66 22.75 164.79"
/>
<path stroke="#362f3c" vector-effect="non-scaling-stroke" d="
  M 22.75 164.79
  Q 21.43 164.60 20.75 165.71"
/>
<path stroke="#808080" vector-effect="non-scaling-stroke" d="
  M 31.54 147.50
  Q 33.02 146.60 32.88 144.50
  A 2.05 2.05 0.0 0 0 30.81 142.58
  L 21.25 142.71"
/>
<path stroke="#362f3c" vector-effect="non-scaling-stroke" d="
  M 21.25 142.71
  Q 20.34 141.95 20.04 140.88
  Q 19.89 140.34 20.30 139.97
  Q 21.18 139.15 21.46 138.00"
/>
<path stroke="#808080" vector-effect="non-scaling-stroke" d="
  M 36.46 126.75
  L 36.50 127.39
  Q 36.54 127.97 36.99 127.59
  C 40.44 124.66 39.35 121.10 35.11 120.06
  C 33.00 119.55 26.97 119.32 27.32 115.98
  Q 27.37 115.49 27.80 115.25
  C 31.17 113.41 36.38 111.61 40.10 108.89
  C 43.19 106.64 46.82 107.53 44.97 101.52
  Q 44.83 101.06 44.38 100.87
  Q 40.67 99.30 36.50 98.96"
/>
<path stroke="#362f3c" vector-effect="non-scaling-stroke" d="
  M 36.50 98.96
  Q 34.45 98.41 33.71 96.50
  Q 33.61 96.25 33.35 96.25
  Q 33.20 96.25 33.04 96.25"
/>
<path stroke="#808080" vector-effect="non-scaling-stroke" d="
  M 41.50 92.79
  Q 41.17 93.15 41.24 93.58
  Q 41.32 94.08 41.82 94.01
  C 46.28 93.31 49.88 90.96 53.93 90.04
  C 57.33 89.27 58.47 87.69 57.28 84.29
  Q 57.12 83.85 56.67 83.70
  Q 50.56 81.71 44.25 80.52
  Q 42.94 80.28 43.47 78.85
  Q 43.66 78.35 43.20 78.07
  Q 42.94 77.92 42.54 78.00"
/>
<path stroke="#362f3c" vector-effect="non-scaling-stroke" d="
  M 51.00 75.79
  Q 50.81 76.38 51.03 76.72
  Q 51.30 77.13 51.77 77.00
  L 63.78 73.67
  Q 64.19 73.56 64.40 73.19
  Q 64.47 73.06 64.54 72.95
  Q 64.74 72.65 65.11 72.58
  L 69.50 71.71"
/>
<path stroke="#808080" vector-effect="non-scaling-stroke" d="
  M 69.50 71.71
  C 72.83 72.37 73.37 67.31 69.98 65.99
  Q 64.05 63.68 58.71 60.25"
/>
<path stroke="#362f3c" vector-effect="non-scaling-stroke" d="
  M 58.71 60.25
  L 58.75 58.79"
/>
<path stroke="#808080" vector-effect="non-scaling-stroke" d="
  M 68.25 57.54
  L 68.25 58.14
  Q 68.25 58.61 68.70 58.73
  Q 71.86 59.62 72.78 59.31
  Q 80.07 56.85 87.88 57.26
  Q 88.50 57.30 88.50 56.67
  L 88.50 53.54
  Q 88.50 53.10 88.17 52.81
  C 84.84 49.78 76.53 46.98 75.35 42.78
  Q 75.28 42.53 75.03 42.50
  Q 74.88 42.49 74.75 42.46"
/>
<path stroke="#362f3c" vector-effect="non-scaling-stroke" d="
  M 78.89 42.27
  Q 82.33 43.99 86.09 43.48
  C 90.55 42.87 94.08 43.63 98.42 41.60
  Q 99.03 41.31 98.48 40.92
  Q 97.71 40.36 96.50 40.71"
/>
<path stroke="#808080" vector-effect="non-scaling-stroke" d="
  M 104.50 40.79
  L 104.74 41.20
  Q 104.97 41.57 105.40 41.65
  Q 109.44 42.41 113.40 41.24
  Q 113.90 41.09 114.01 40.59
  Q 115.03 35.94 110.77 34.19
  Q 105.42 31.99 102.53 30.00"
/>
<path stroke="#151415" stroke-opacity="0.992" vector-effect="non-scaling-stroke" d="
  M 107.70 28.36
  Q 109.10 29.54 110.78 30.13
  C 113.97 31.26 120.60 28.26 124.34 28.11
  C 127.00 28.00 139.32 29.01 140.46 26.75"
/>
<path stroke="#808080" vector-effect="non-scaling-stroke" d="
  M 140.46 26.75
  C 140.36 21.24 132.60 17.98 128.79 16.25"
/>
<path stroke="#4b4351" stroke-opacity="0.992" vector-effect="non-scaling-stroke" d="
  M 214.79 27.25
  Q 215.16 25.70 214.00 25.29"
/>
<path stroke="#969596" stroke-opacity="0.992" vector-effect="non-scaling-stroke" d="
  M 214.00 25.29
  L 206.00 24.96"
/>
<path stroke="#969596" stroke-opacity="0.992" vector-effect="non-scaling-stroke" d="
  M 140.46 26.75
  L 139.04 25.75"
/>
<path stroke="#b6aebc" vector-effect="non-scaling-stroke" d="
  M 214.00 25.29
  C 215.02 27.43 213.81 28.13 212.00 28.29"
/>
<path stroke="#bdbfc6" stroke-opacity="0.835" vector-effect="non-scaling-stroke" d="
  M 41.21 229.00
  C 37.93 230.02 38.09 224.35 37.71 222.50"
/>
<path stroke="#b6aebc" vector-effect="non-scaling-stroke" d="
  M 58.71 60.25
  L 57.79 60.50"
/>
<path stroke="#b6aebc" vector-effect="non-scaling-stroke" d="
  M 69.50 71.71
  L 69.00 71.04"
/>
<path stroke="#b6aebc" vector-effect="non-scaling-stroke" d="
  M 36.50 98.96
  Q 34.39 98.88 34.00 100.71"
/>
<path stroke="#b6aebc" vector-effect="non-scaling-stroke" d="
  M 21.25 142.71
  Q 19.90 142.88 19.45 144.59"
/>
<path stroke="#b6aebc" vector-effect="non-scaling-stroke" d="
  M 23.25 166.46
  Q 22.45 165.84 22.75 164.79"
/>
<path stroke="#808080" vector-effect="non-scaling-stroke" d="
  M 125.27 318.03
  C 127.47 310.20 126.72 298.75 114.98 301.19
  Q 114.51 301.29 114.51 301.77
  L 114.48 323.27
  Q 114.48 323.65 114.85 323.73
  Q 123.21 325.40 125.27 318.03"
/>
<path stroke="#808080" vector-effect="non-scaling-stroke" d="
  M 114.64 350.18
  C 114.66 353.21 118.65 354.45 121.02 353.81
  C 132.02 350.85 131.34 323.50 114.89 328.37
  Q 114.46 328.50 114.46 328.94
  Q 114.53 339.57 114.64 350.18"
/>
<path stroke="#4b4351" stroke-opacity="0.992" vector-effect="non-scaling-stroke" d="
  M 128.1298 381.3401
  A 0.18 0.18 0.0 0 0 127.9514 381.1586
  L 114.5319 381.0415
  A 0.18 0.18 0.0 0 0 114.3503 381.2199
  L 114.3502 381.2399
  A 0.18 0.18 0.0 0 0 114.5286 381.4214
  L 127.9481 381.5385
  A 0.18 0.18 0.0 0 0 128.1297 381.3601
  L 128.1298 381.3401"
/>
</g>
<path fill="#ffffff" d="
  M 248.00 17.54
  L 248.24 18.28
  Q 248.43 18.85 247.89 19.12
  L 243.42 21.36
  A 0.37 0.37 0.0 0 1 242.89 21.07
  Q 241.82 12.11 245.98 4.15
  Q 246.27 3.59 245.74 3.26
  Q 244.85 2.71 243.81 3.27
  Q 243.30 3.54 242.94 3.09
  Q 242.72 2.81 242.75 2.54
  Q 245.20 1.21 248.02 1.89
  Q 248.53 2.01 248.46 2.53
  C 247.97 6.24 245.84 14.60 248.00 17.54
  Z"
/>
<path fill="#000000" d="
  M 242.75 2.54
  Q 242.72 2.81 242.94 3.09
  Q 243.30 3.54 243.81 3.27
  Q 244.85 2.71 245.74 3.26
  Q 246.27 3.59 245.98 4.15
  Q 241.82 12.11 242.89 21.07
  A 0.37 0.37 0.0 0 0 243.42 21.36
  L 247.89 19.12
  Q 248.43 18.85 248.24 18.28
  L 248.00 17.54
  L 249.11 17.35
  Q 249.62 17.27 249.87 16.82
  Q 252.58 11.94 258.33 13.38
  C 255.36 14.07 254.98 19.24 254.92 21.74
  Q 254.46 38.53 255.52 55.30
  C 255.80 59.69 260.93 65.87 263.40 69.56
  Q 266.30 73.90 268.41 78.37
  C 278.64 100.07 284.95 116.66 293.18 140.66
  C 294.26 143.80 295.25 150.75 297.26 153.23
  Q 302.95 160.26 306.81 168.39
  C 309.12 173.27 309.13 179.04 309.57 184.40
  C 310.86 200.26 302.28 210.78 286.57 212.65
  Q 279.95 213.44 276.44 212.65
  C 268.14 210.80 263.41 201.04 262.42 193.36
  C 262.18 191.54 261.54 190.51 259.92 189.84
  C 254.78 187.71 249.14 186.33 244.57 183.91
  C 229.36 175.88 217.87 163.30 207.60 149.17
  Q 207.29 148.74 206.76 148.79
  C 202.44 149.19 193.03 160.42 190.80 163.89
  C 177.45 184.72 182.40 209.75 189.42 231.74
  C 194.01 246.11 201.40 258.51 210.36 272.61
  C 213.06 276.85 223.46 275.80 230.38 275.77
  C 233.38 275.76 236.47 274.70 239.76 274.72
  A 1.85 1.85 0.0 0 1 241.60 276.58
  Q 241.53 297.23 241.34 317.96
  C 241.30 321.82 244.42 321.85 247.47 321.96
  Q 263.83 322.52 280.22 321.72
  A 1.79 1.78 88.6 0 1 282.09 323.51
  Q 282.04 344.08 281.83 365.26
  C 281.79 369.15 282.40 374.27 281.30 379.08
  Q 273.98 377.62 266.63 377.74
  Q 262.43 377.81 259.07 377.23
  C 246.01 374.97 232.41 375.73 219.18 375.60
  Q 208.13 375.49 199.19 375.52
  Q 104.06 375.84 8.94 375.70
  Q 5.01 375.69 3.27 375.31
  Q 2.76 375.20 2.43 375.60
  C 1.47 376.76 1.89 379.67 0.29 379.25
  L 0.00 375.44
  L 0.00 326.94
  L 0.99 321.85
  Q 1.11 321.26 1.71 321.26
  Q 16.84 321.23 31.82 321.25
  C 34.28 321.25 37.63 321.77 40.72 321.03
  Q 41.22 320.91 41.21 320.40
  Q 40.91 298.59 40.86 276.82
  C 40.86 274.86 41.59 274.04 43.58 273.85
  Q 53.18 272.95 62.75 274.04
  L 62.50 274.85
  Q 62.30 275.50 62.98 275.50
  L 69.77 275.50
  Q 70.32 275.50 70.41 274.96
  Q 70.94 271.82 69.21 269.79
  C 57.99 256.66 51.45 239.02 48.24 222.25
  C 47.59 218.88 47.81 216.25 47.60 213.70
  C 46.85 204.85 46.76 196.18 47.46 187.32
  C 47.56 186.10 47.90 180.70 46.50 180.71
  L 46.79 178.25
  C 48.38 178.63 48.98 173.18 49.20 172.06
  C 49.82 168.96 51.52 164.87 51.50 160.82
  Q 51.50 160.32 51.78 159.91
  Q 54.49 156.05 55.23 151.45
  C 55.50 149.76 58.91 142.97 56.75 142.96
  C 61.58 126.80 70.01 111.75 81.44 99.20
  Q 91.23 88.45 101.50 78.24
  Q 117.31 62.77 137.74 54.31
  Q 145.56 51.07 153.49 48.03
  C 158.01 46.29 163.68 45.65 168.68 43.42
  C 171.30 42.25 175.94 42.40 179.05 41.64
  C 186.99 39.70 194.98 38.23 203.16 37.89
  C 209.09 37.65 214.93 33.86 214.79 27.25
  L 216.71 23.94
  Q 216.98 23.47 217.52 23.41
  Q 222.90 22.81 224.04 17.52
  L 242.75 2.54
  Z
  M 70.01 355.42
  C 85.20 365.83 95.03 350.93 93.23 337.14
  C 92.09 328.48 86.34 325.17 79.65 321.07
  Q 75.56 318.55 74.21 316.42
  C 71.38 311.97 71.06 304.08 76.10 300.79
  C 83.96 295.65 88.03 310.85 88.84 315.28
  C 89.09 316.65 89.70 317.37 91.18 316.91
  A 0.52 0.52 0.0 0 0 91.55 316.41
  L 91.48 297.82
  Q 91.48 297.17 90.83 297.12
  L 89.40 297.00
  Q 88.83 296.95 88.68 297.51
  L 88.26 299.10
  Q 88.06 299.83 87.47 299.36
  Q 80.16 293.65 74.06 297.38
  C 67.08 301.63 65.55 311.37 67.47 319.02
  C 69.48 327.03 75.68 329.38 81.76 333.09
  C 89.81 337.99 89.89 357.44 78.57 354.77
  C 71.96 353.21 69.07 343.32 68.22 337.64
  Q 68.13 337.03 67.52 337.02
  L 66.13 336.99
  Q 65.49 336.98 65.51 337.62
  L 66.06 357.41
  Q 66.07 358.08 66.74 358.01
  L 67.90 357.89
  Q 68.44 357.84 68.60 357.33
  L 69.13 355.72
  Q 69.37 354.99 70.01 355.42
  Z
  M 200.85 355.35
  C 211.02 362.02 220.74 358.87 223.71 346.88
  Q 226.84 334.23 218.26 326.10
  C 214.32 322.37 208.20 320.99 205.29 316.53
  C 197.48 304.55 212.36 291.40 217.55 307.24
  Q 219.61 313.55 220.08 316.38
  Q 220.18 316.99 220.79 316.98
  L 222.00 316.98
  Q 222.55 316.98 222.55 316.44
  L 222.48 297.79
  Q 222.47 297.03 221.72 297.02
  L 220.40 296.99
  Q 219.83 296.98 219.69 297.53
  L 219.30 298.97
  A 0.60 0.59 -62.9 0 1 218.35 299.28
  C 210.34 292.74 201.63 296.56 198.83 305.77
  C 196.81 312.39 197.28 320.27 201.96 325.74
  C 205.83 330.26 213.83 331.64 216.72 337.08
  Q 219.71 342.70 218.00 349.24
  C 216.73 354.09 212.08 356.47 207.63 354.04
  C 202.54 351.27 199.98 343.19 199.31 337.73
  Q 199.23 337.11 198.61 337.07
  L 197.16 336.98
  Q 196.51 336.94 196.53 337.59
  L 197.05 357.39
  Q 197.07 358.04 197.71 357.99
  L 198.62 357.93
  Q 199.01 357.90 199.29 357.61
  Q 200.06 356.81 200.07 355.76
  Q 200.08 354.84 200.85 355.35
  Z
  M 124.13 325.68
  A 0.14 0.13 -52.5 0 1 124.10 325.43
  Q 135.68 319.04 132.58 305.65
  C 130.89 298.36 125.51 297.01 118.38 297.00
  Q 110.93 296.99 103.45 297.01
  Q 102.75 297.01 102.75 297.70
  L 102.75 299.47
  Q 102.75 299.97 103.24 300.06
  C 106.53 300.68 108.07 302.56 108.09 306.02
  Q 108.14 315.53 108.22 325.03
  C 108.29 333.88 108.63 341.86 107.88 352.09
  Q 107.83 352.67 107.40 353.05
  Q 105.58 354.66 103.11 355.02
  Q 102.50 355.11 102.50 355.72
  L 102.50 357.30
  Q 102.50 357.99 103.19 358.00
  C 109.46 358.01 121.91 359.37 127.32 356.64
  C 139.57 350.46 137.88 329.35 124.13 325.68
  Z
  M 175.48 324.00
  L 158.01 324.00
  Q 157.43 324.00 157.44 323.42
  Q 157.53 314.50 157.29 305.55
  Q 157.15 300.48 161.96 300.06
  Q 162.53 300.01 162.56 299.44
  L 162.67 297.74
  Q 162.72 297.00 161.98 297.00
  L 146.12 297.00
  Q 145.42 297.00 145.48 297.70
  L 145.62 299.52
  Q 145.68 300.18 146.33 300.28
  C 151.84 301.09 151.46 306.73 151.25 311.35
  C 150.70 323.44 150.97 335.65 151.23 347.75
  Q 151.29 350.75 150.23 353.53
  Q 150.04 354.02 149.54 354.16
  L 145.98 355.14
  Q 145.52 355.27 145.54 355.75
  L 145.64 357.46
  Q 145.67 358.00 146.21 358.00
  L 161.87 358.00
  Q 162.50 358.00 162.50 357.37
  L 162.50 355.51
  Q 162.50 354.81 161.80 354.75
  Q 159.58 354.59 158.11 353.01
  Q 157.76 352.63 157.68 352.12
  C 156.54 344.67 157.39 336.25 157.40 328.61
  Q 157.40 328.00 158.00 328.00
  L 175.50 328.00
  Q 176.01 328.00 176.01 328.50
  L 175.99 351.36
  A 3.11 3.10 82.5 0 1 173.70 354.36
  L 171.13 355.05
  Q 170.50 355.22 170.50 355.88
  L 170.50 357.38
  Q 170.50 358.00 171.13 358.00
  L 186.88 358.00
  Q 187.50 358.00 187.50 357.38
  L 187.50 355.48
  Q 187.50 354.75 186.77 354.71
  Q 182.24 354.43 182.24 350.50
  Q 182.26 327.88 182.25 305.25
  Q 182.24 300.49 186.68 300.17
  Q 187.40 300.12 187.43 299.40
  L 187.52 297.65
  Q 187.56 297.00 186.90 297.00
  L 171.12 297.00
  Q 170.50 297.00 170.50 297.63
  L 170.50 299.48
  Q 170.50 299.97 170.99 300.06
  C 175.16 300.76 175.97 303.30 176.00 307.31
  Q 176.05 315.41 175.98 323.50
  Q 175.97 324.00 175.48 324.00
  Z"
/>
<path fill="#ffffff" d="
  M 258.33 13.38
  Q 258.78 32.67 258.26 51.70
  C 258.03 59.69 263.34 65.24 267.36 71.50
  C 272.17 79.00 275.41 87.96 279.15 96.11
  Q 282.98 104.46 285.82 112.09
  C 290.57 124.85 296.06 137.68 299.02 150.98
  C 299.25 152.03 299.84 152.97 300.45 153.80
  Q 307.15 162.92 312.40 172.93
  C 313.95 175.88 313.09 178.03 313.98 180.99
  Q 316.15 188.28 313.25 195.54
  Q 311.86 196.33 311.79 198.00
  C 307.13 209.92 293.85 216.58 281.52 216.65
  C 273.49 216.70 266.58 209.05 263.40 202.31
  Q 262.56 200.51 260.91 193.61
  Q 260.80 193.12 260.41 192.79
  Q 258.94 191.54 258.26 191.45
  C 250.83 190.49 242.34 185.33 236.33 181.19
  C 225.77 173.94 215.87 161.96 207.51 151.87
  A 0.87 0.87 0.0 0 0 206.17 151.87
  Q 201.47 157.60 195.85 163.10
  C 191.56 167.32 189.43 173.13 187.63 179.47
  C 185.71 186.20 186.46 194.04 186.51 201.03
  Q 186.56 208.39 187.76 214.27
  Q 193.95 244.69 212.84 271.43
  C 214.25 273.43 214.73 274.30 217.49 274.12
  Q 224.26 273.68 231.05 273.86
  C 234.29 273.95 239.29 273.32 243.60 274.51
  Q 244.09 274.65 244.28 275.12
  Q 245.02 277.00 245.04 279.00
  Q 245.15 298.97 244.79 319.03
  A 1.20 1.20 0.0 0 0 245.99 320.25
  Q 262.99 320.24 279.92 320.26
  C 281.61 320.26 282.82 320.92 284.28 321.62
  Q 284.72 321.83 284.85 322.31
  C 285.62 325.39 285.01 328.70 285.01 331.05
  Q 285.00 355.15 284.98 379.25
  Q 284.98 381.44 283.25 381.46
  L 281.30 381.19
  Q 280.88 381.14 280.97 380.72
  L 281.30 379.08
  C 282.40 374.27 281.79 369.15 281.83 365.26
  Q 282.04 344.08 282.09 323.51
  A 1.79 1.78 88.6 0 0 280.22 321.72
  Q 263.83 322.52 247.47 321.96
  C 244.42 321.85 241.30 321.82 241.34 317.96
  Q 241.53 297.23 241.60 276.58
  A 1.85 1.85 0.0 0 0 239.76 274.72
  C 236.47 274.70 233.38 275.76 230.38 275.77
  C 223.46 275.80 213.06 276.85 210.36 272.61
  C 201.40 258.51 194.01 246.11 189.42 231.74
  C 182.40 209.75 177.45 184.72 190.80 163.89
  C 193.03 160.42 202.44 149.19 206.76 148.79
  Q 207.29 148.74 207.60 149.17
  C 217.87 163.30 229.36 175.88 244.57 183.91
  C 249.14 186.33 254.78 187.71 259.92 189.84
  C 261.54 190.51 262.18 191.54 262.42 193.36
  C 263.41 201.04 268.14 210.80 276.44 212.65
  Q 279.95 213.44 286.57 212.65
  C 302.28 210.78 310.86 200.26 309.57 184.40
  C 309.13 179.04 309.12 173.27 306.81 168.39
  Q 302.95 160.26 297.26 153.23
  C 295.25 150.75 294.26 143.80 293.18 140.66
  C 284.95 116.66 278.64 100.07 268.41 78.37
  Q 266.30 73.90 263.40 69.56
  C 260.93 65.87 255.80 59.69 255.52 55.30
  Q 254.46 38.53 254.92 21.74
  C 254.98 19.24 255.36 14.07 258.33 13.38
  Z"
/>
<path fill="#000000" d="
  M 135.25 15.04
  L 134.84 15.38
  Q 133.48 16.49 135.24 16.53
  Q 140.66 16.65 146.05 17.29
  C 149.36 17.69 154.73 17.90 158.94 18.92
  Q 161.61 19.57 164.14 19.44
  Q 172.01 19.03 179.74 20.46
  C 182.75 21.02 185.94 19.75 189.34 20.41
  Q 196.75 21.84 204.28 22.03
  Q 204.76 22.04 205.15 22.33
  Q 206.72 23.48 206.00 24.96
  Q 188.51 26.56 171.26 29.89
  C 167.14 30.68 162.71 32.01 158.37 33.01
  Q 152.49 34.37 148.81 35.70
  C 104.45 51.71 69.13 82.99 50.64 126.91
  C 46.49 136.77 43.37 150.57 40.86 160.45
  Q 39.71 165.00 39.22 171.33
  C 38.62 179.15 37.07 187.71 36.51 194.65
  C 35.69 204.75 37.43 213.09 37.71 222.50
  L 37.05 222.84
  Q 36.61 223.06 36.72 223.53
  Q 37.08 225.00 35.87 225.55
  Q 35.19 225.86 35.24 225.11
  Q 35.43 221.98 34.21 219.12
  Q 34.16 219.00 34.02 219.00
  Q 33.83 219.00 33.65 219.01
  Q 33.28 219.02 33.27 219.39
  Q 33.27 219.76 33.04 220.00
  L 32.60 211.85
  Q 34.01 208.27 32.23 204.24
  A 0.58 0.58 0.0 0 0 31.28 204.08
  Q 30.90 204.47 30.96 205.00
  Q 30.29 197.26 31.15 189.90
  Q 33.61 183.21 33.17 176.10
  Q 33.14 175.60 32.71 175.35
  Q 32.37 175.16 32.04 175.25
  L 32.56 169.31
  Q 33.76 167.70 33.06 166.05
  C 31.66 162.77 25.25 163.66 22.75 164.79
  Q 21.43 164.60 20.75 165.71
  C 18.09 160.47 29.87 151.18 31.54 147.50
  Q 33.02 146.60 32.88 144.50
  A 2.05 2.05 0.0 0 0 30.81 142.58
  L 21.25 142.71
  Q 20.34 141.95 20.04 140.88
  Q 19.89 140.34 20.30 139.97
  Q 21.18 139.15 21.46 138.00
  L 36.46 126.75
  L 36.50 127.39
  Q 36.54 127.97 36.99 127.59
  C 40.44 124.66 39.35 121.10 35.11 120.06
  C 33.00 119.55 26.97 119.32 27.32 115.98
  Q 27.37 115.49 27.80 115.25
  C 31.17 113.41 36.38 111.61 40.10 108.89
  C 43.19 106.64 46.82 107.53 44.97 101.52
  Q 44.83 101.06 44.38 100.87
  Q 40.67 99.30 36.50 98.96
  Q 34.45 98.41 33.71 96.50
  Q 33.61 96.25 33.35 96.25
  Q 33.20 96.25 33.04 96.25
  C 34.39 94.45 38.73 93.57 41.50 92.79
  Q 41.17 93.15 41.24 93.58
  Q 41.32 94.08 41.82 94.01
  C 46.28 93.31 49.88 90.96 53.93 90.04
  C 57.33 89.27 58.47 87.69 57.28 84.29
  Q 57.12 83.85 56.67 83.70
  Q 50.56 81.71 44.25 80.52
  Q 42.94 80.28 43.47 78.85
  Q 43.66 78.35 43.20 78.07
  Q 42.94 77.92 42.54 78.00
  L 51.00 75.79
  Q 50.81 76.38 51.03 76.72
  Q 51.30 77.13 51.77 77.00
  L 63.78 73.67
  Q 64.19 73.56 64.40 73.19
  Q 64.47 73.06 64.54 72.95
  Q 64.74 72.65 65.11 72.58
  L 69.50 71.71
  C 72.83 72.37 73.37 67.31 69.98 65.99
  Q 64.05 63.68 58.71 60.25
  L 58.75 58.79
  L 68.25 57.54
  L 68.25 58.14
  Q 68.25 58.61 68.70 58.73
  Q 71.86 59.62 72.78 59.31
  Q 80.07 56.85 87.88 57.26
  Q 88.50 57.30 88.50 56.67
  L 88.50 53.54
  Q 88.50 53.10 88.17 52.81
  C 84.84 49.78 76.53 46.98 75.35 42.78
  Q 75.28 42.53 75.03 42.50
  Q 74.88 42.49 74.75 42.46
  L 78.89 42.27
  Q 82.33 43.99 86.09 43.48
  C 90.55 42.87 94.08 43.63 98.42 41.60
  Q 99.03 41.31 98.48 40.92
  Q 97.71 40.36 96.50 40.71
  L 104.50 40.79
  L 104.74 41.20
  Q 104.97 41.57 105.40 41.65
  Q 109.44 42.41 113.40 41.24
  Q 113.90 41.09 114.01 40.59
  Q 115.03 35.94 110.77 34.19
  Q 105.42 31.99 102.53 30.00
  Q 104.73 27.71 107.70 28.36
  Q 109.10 29.54 110.78 30.13
  C 113.97 31.26 120.60 28.26 124.34 28.11
  C 127.00 28.00 139.32 29.01 140.46 26.75
  C 140.36 21.24 132.60 17.98 128.79 16.25
  Q 131.65 14.02 135.25 15.04
  Z"
/>
<path fill="#2a292a" fill-opacity="0.980" d="
  M 135.25 15.04
  Q 150.76 15.14 157.24 16.33
  Q 164.73 17.72 170.14 17.37
  C 174.36 17.10 177.59 18.93 181.78 18.70
  Q 188.94 18.30 196.00 19.69
  Q 199.22 20.32 211.24 20.74
  C 216.67 20.93 219.71 22.00 224.04 17.52
  Q 222.90 22.81 217.52 23.41
  Q 216.98 23.47 216.71 23.94
  L 214.79 27.25
  Q 215.16 25.70 214.00 25.29
  L 206.00 24.96
  Q 206.72 23.48 205.15 22.33
  Q 204.76 22.04 204.28 22.03
  Q 196.75 21.84 189.34 20.41
  C 185.94 19.75 182.75 21.02 179.74 20.46
  Q 172.01 19.03 164.14 19.44
  Q 161.61 19.57 158.94 18.92
  C 154.73 17.90 149.36 17.69 146.05 17.29
  Q 140.66 16.65 135.24 16.53
  Q 133.48 16.49 134.84 15.38
  L 135.25 15.04
  Z"
/>
<path fill="#ffffff" d="
  M 128.79 16.25
  C 132.60 17.98 140.36 21.24 140.46 26.75
  L 139.04 25.75
  Q 134.38 22.19 129.31 19.19
  Q 127.86 18.33 128.79 16.25
  Z"
/>
<path fill="#ffffff" d="
  M 206.00 24.96
  L 214.00 25.29
  C 215.02 27.43 213.81 28.13 212.00 28.29
  Q 184.07 29.99 157.00 37.02
  C 142.61 40.76 130.96 46.50 117.47 54.24
  Q 102.05 63.10 90.17 76.15
  C 84.21 82.71 79.03 87.80 73.82 93.91
  C 68.05 100.66 62.02 110.22 58.56 118.41
  C 56.36 123.58 53.41 128.28 51.87 133.53
  Q 47.71 147.67 44.07 161.96
  C 41.84 170.75 41.80 180.13 40.39 189.24
  C 39.21 196.84 39.47 206.58 40.71 214.16
  Q 41.92 221.52 41.21 229.00
  C 37.93 230.02 38.09 224.35 37.71 222.50
  C 37.43 213.09 35.69 204.75 36.51 194.65
  C 37.07 187.71 38.62 179.15 39.22 171.33
  Q 39.71 165.00 40.86 160.45
  C 43.37 150.57 46.49 136.77 50.64 126.91
  C 69.13 82.99 104.45 51.71 148.81 35.70
  Q 152.49 34.37 158.37 33.01
  C 162.71 32.01 167.14 30.68 171.26 29.89
  Q 188.51 26.56 206.00 24.96
  Z"
/>
<path fill="#6c5d78" d="
  M 214.00 25.29
  Q 215.16 25.70 214.79 27.25
  C 214.93 33.86 209.09 37.65 203.16 37.89
  C 194.98 38.23 186.99 39.70 179.05 41.64
  C 175.94 42.40 171.30 42.25 168.68 43.42
  C 163.68 45.65 158.01 46.29 153.49 48.03
  Q 145.56 51.07 137.74 54.31
  Q 117.31 62.77 101.50 78.24
  Q 104.65 73.23 110.20 68.96
  C 118.60 62.49 125.48 57.62 135.36 53.34
  Q 143.32 49.88 151.36 46.64
  C 156.32 44.63 162.20 43.63 167.59 41.65
  C 170.29 40.67 173.17 40.91 175.50 40.25
  Q 184.41 37.73 193.52 36.14
  C 195.95 35.71 218.45 35.69 212.00 28.29
  C 213.81 28.13 215.02 27.43 214.00 25.29
  Z"
/>
<path fill="#2a292a" fill-opacity="0.980" d="
  M 139.04 25.75
  L 140.46 26.75
  C 139.32 29.01 127.00 28.00 124.34 28.11
  C 120.60 28.26 113.97 31.26 110.78 30.13
  Q 109.10 29.54 107.70 28.36
  C 110.56 28.37 112.86 28.77 115.71 27.95
  Q 125.42 25.12 135.46 27.10
  Q 137.85 27.57 139.04 25.75
  Z"
/>
<path fill="#ffffff" d="
  M 102.53 30.00
  Q 105.42 31.99 110.77 34.19
  Q 115.03 35.94 114.01 40.59
  Q 113.90 41.09 113.40 41.24
  Q 109.44 42.41 105.40 41.65
  Q 104.97 41.57 104.74 41.20
  L 104.50 40.79
  Q 107.80 41.04 111.09 39.97
  Q 111.63 39.79 111.64 39.22
  C 111.72 34.76 99.96 36.43 102.53 30.00
  Z"
/>
<path fill="#6c5d78" d="
  M 96.50 40.71
  Q 97.71 40.36 98.48 40.92
  Q 99.03 41.31 98.42 41.60
  C 94.08 43.63 90.55 42.87 86.09 43.48
  Q 82.33 43.99 78.89 42.27
  L 96.50 40.71
  Z"
/>
<path fill="#ffffff" d="
  M 74.75 42.46
  Q 74.88 42.49 75.03 42.50
  Q 75.28 42.53 75.35 42.78
  C 76.53 46.98 84.84 49.78 88.17 52.81
  Q 88.50 53.10 88.50 53.54
  L 88.50 56.67
  Q 88.50 57.30 87.88 57.26
  Q 80.07 56.85 72.78 59.31
  Q 71.86 59.62 68.70 58.73
  Q 68.25 58.61 68.25 58.14
  L 68.25 57.54
  C 72.22 57.33 76.00 56.04 79.72 56.01
  Q 82.57 55.98 85.50 56.01
  Q 87.14 56.02 86.87 54.41
  C 86.03 49.43 72.05 51.82 74.75 42.46
  Z"
/>
<path fill="#6c5d78" d="
  M 58.75 58.79
  L 58.71 60.25
  L 57.79 60.50
  Q 57.35 59.04 58.75 58.79
  Z"
/>
<path fill="#ffffff" d="
  M 58.71 60.25
  Q 64.05 63.68 69.98 65.99
  C 73.37 67.31 72.83 72.37 69.50 71.71
  L 69.00 71.04
  Q 70.46 70.90 70.55 69.41
  Q 70.58 68.86 70.09 68.62
  C 66.28 66.67 58.16 65.52 57.79 60.50
  L 58.71 60.25
  Z"
/>
<path fill="#6c5d78" d="
  M 69.00 71.04
  L 69.50 71.71
  L 65.11 72.58
  Q 64.74 72.65 64.54 72.95
  Q 64.47 73.06 64.40 73.19
  Q 64.19 73.56 63.78 73.67
  L 51.77 77.00
  Q 51.30 77.13 51.03 76.72
  Q 50.81 76.38 51.00 75.79
  Q 59.67 72.19 69.00 71.04
  Z"
/>
<path fill="#ffffff" d="
  M 42.54 78.00
  Q 42.94 77.92 43.20 78.07
  Q 43.66 78.35 43.47 78.85
  Q 42.94 80.28 44.25 80.52
  Q 50.56 81.71 56.67 83.70
  Q 57.12 83.85 57.28 84.29
  C 58.47 87.69 57.33 89.27 53.93 90.04
  C 49.88 90.96 46.28 93.31 41.82 94.01
  Q 41.32 94.08 41.24 93.58
  Q 41.17 93.15 41.50 92.79
  L 53.92 88.98
  A 2.10 2.09 -82.5 0 0 55.11 88.06
  C 57.30 84.51 48.61 84.14 46.83 83.89
  C 44.24 83.53 40.69 81.03 42.54 78.00
  Z"
/>
<path fill="#6c5d78" d="
  M 33.04 96.25
  Q 33.20 96.25 33.35 96.25
  Q 33.61 96.25 33.71 96.50
  Q 34.45 98.41 36.50 98.96
  Q 34.39 98.88 34.00 100.71
  Q 31.39 99.05 33.04 96.25
  Z"
/>
<path fill="#ffffff" d="
  M 36.50 98.96
  Q 40.67 99.30 44.38 100.87
  Q 44.83 101.06 44.97 101.52
  C 46.82 107.53 43.19 106.64 40.10 108.89
  C 36.38 111.61 31.17 113.41 27.80 115.25
  Q 27.37 115.49 27.32 115.98
  C 26.97 119.32 33.00 119.55 35.11 120.06
  C 39.35 121.10 40.44 124.66 36.99 127.59
  Q 36.54 127.97 36.50 127.39
  L 36.46 126.75
  Q 37.38 125.25 36.74 123.62
  Q 36.53 123.10 36.00 122.97
  C 32.54 122.12 24.27 121.23 26.24 115.56
  Q 26.41 115.06 26.86 114.81
  Q 38.71 108.14 41.93 106.64
  Q 44.22 105.58 43.38 103.31
  Q 43.20 102.81 42.68 102.70
  L 34.00 100.71
  Q 34.39 98.88 36.50 98.96
  Z"
/>
<path fill="#6c5d78" d="
  M 21.46 138.00
  Q 21.18 139.15 20.30 139.97
  Q 19.89 140.34 20.04 140.88
  Q 20.34 141.95 21.25 142.71
  Q 19.90 142.88 19.45 144.59
  Q 16.35 140.12 21.46 138.00
  Z"
/>
<path fill="#ffffff" d="
  M 31.54 147.50
  C 32.13 146.16 31.47 145.38 30.05 145.59
  C 26.35 146.15 22.95 146.50 19.45 144.59
  Q 19.90 142.88 21.25 142.71
  L 30.81 142.58
  A 2.05 2.05 0.0 0 1 32.88 144.50
  Q 33.02 146.60 31.54 147.50
  Z"
/>
<path fill="#6c5d78" d="
  M 56.75 142.96
  C 58.91 142.97 55.50 149.76 55.23 151.45
  Q 54.49 156.05 51.78 159.91
  Q 51.50 160.32 51.50 160.82
  C 51.52 164.87 49.82 168.96 49.20 172.06
  C 48.98 173.18 48.38 178.63 46.79 178.25
  C 46.83 174.06 48.42 170.31 49.11 166.83
  C 50.63 159.04 53.19 150.06 56.75 142.96
  Z"
/>
<path fill="#ffffff" d="
  M 32.56 169.31
  C 31.71 164.91 26.32 166.91 23.25 166.46
  Q 22.45 165.84 22.75 164.79
  C 25.25 163.66 31.66 162.77 33.06 166.05
  Q 33.76 167.70 32.56 169.31
  Z"
/>
<path fill="#6c5d78" d="
  M 22.75 164.79
  Q 22.45 165.84 23.25 166.46
  L 20.75 165.71
  Q 21.43 164.60 22.75 164.79
  Z"
/>
<path fill="#2a292a" fill-opacity="0.980" d="
  M 32.04 175.25
  Q 32.37 175.16 32.71 175.35
  Q 33.14 175.60 33.17 176.10
  Q 33.61 183.21 31.15 189.90
  Q 29.97 182.27 32.04 175.25
  Z"
/>
<path fill="#6c5d78" d="
  M 46.50 180.71
  C 47.90 180.70 47.56 186.10 47.46 187.32
  C 46.76 196.18 46.85 204.85 47.60 213.70
  C 47.81 216.25 47.59 218.88 48.24 222.25
  C 51.45 239.02 57.99 256.66 69.21 269.79
  Q 70.94 271.82 70.41 274.96
  Q 70.32 275.50 69.77 275.50
  L 62.98 275.50
  Q 62.30 275.50 62.50 274.85
  L 62.75 274.04
  L 67.70 273.80
  A 1.13 1.13 0.0 0 0 68.48 271.91
  C 66.27 269.49 64.49 267.46 62.84 264.54
  C 49.83 241.47 43.53 219.40 44.59 191.82
  C 44.73 188.10 45.82 184.44 46.50 180.71
  Z"
/>
<path fill="#5b6070" fill-opacity="0.671" d="
  M 313.25 195.54
  L 313.49 197.49
  Q 313.57 198.09 312.96 198.15
  Q 312.41 198.20 311.79 198.00
  Q 311.86 196.33 313.25 195.54
  Z"
/>
<path fill="#6c5d78" d="
  M 32.60 211.85
  Q 31.04 208.37 30.96 205.00
  Q 30.90 204.47 31.28 204.08
  A 0.58 0.58 0.0 0 1 32.23 204.24
  Q 34.01 208.27 32.60 211.85
  Z"
/>
<path fill="#5b6070" fill-opacity="0.671" d="
  M 37.71 222.50
  C 38.09 224.35 37.93 230.02 41.21 229.00
  C 40.43 233.62 41.84 238.12 41.13 242.92
  A 0.64 0.63 -75.0 0 1 40.27 243.42
  L 35.47 241.52
  Q 34.83 241.26 34.71 240.58
  C 33.99 236.59 34.63 232.69 34.09 228.96
  Q 33.44 224.49 33.04 220.00
  Q 33.27 219.76 33.27 219.39
  Q 33.28 219.02 33.65 219.01
  Q 33.83 219.00 34.02 219.00
  Q 34.16 219.00 34.21 219.12
  Q 35.43 221.98 35.24 225.11
  Q 35.19 225.86 35.87 225.55
  Q 37.08 225.00 36.72 223.53
  Q 36.61 223.06 37.05 222.84
  L 37.71 222.50
  Z"
/>
<path fill="#ffffff" d="
  M 69.13 355.72
  L 68.60 357.33
  Q 68.44 357.84 67.90 357.89
  L 66.74 358.01
  Q 66.07 358.08 66.06 357.41
  L 65.51 337.62
  Q 65.49 336.98 66.13 336.99
  L 67.52 337.02
  Q 68.13 337.03 68.22 337.64
  C 69.07 343.32 71.96 353.21 78.57 354.77
  C 89.89 357.44 89.81 337.99 81.76 333.09
  C 75.68 329.38 69.48 327.03 67.47 319.02
  C 65.55 311.37 67.08 301.63 74.06 297.38
  Q 80.16 293.65 87.47 299.36
  Q 88.06 299.83 88.26 299.10
  L 88.68 297.51
  Q 88.83 296.95 89.40 297.00
  L 90.83 297.12
  Q 91.48 297.17 91.48 297.82
  L 91.55 316.41
  A 0.52 0.52 0.0 0 1 91.18 316.91
  C 89.70 317.37 89.09 316.65 88.84 315.28
  C 88.03 310.85 83.96 295.65 76.10 300.79
  C 71.06 304.08 71.38 311.97 74.21 316.42
  Q 75.56 318.55 79.65 321.07
  C 86.34 325.17 92.09 328.48 93.23 337.14
  C 95.03 350.93 85.20 365.83 70.01 355.42
  Q 69.37 354.99 69.13 355.72
  Z"
/>
<path fill="#ffffff" d="
  M 200.07 355.76
  Q 200.06 356.81 199.29 357.61
  Q 199.01 357.90 198.62 357.93
  L 197.71 357.99
  Q 197.07 358.04 197.05 357.39
  L 196.53 337.59
  Q 196.51 336.94 197.16 336.98
  L 198.61 337.07
  Q 199.23 337.11 199.31 337.73
  C 199.98 343.19 202.54 351.27 207.63 354.04
  C 212.08 356.47 216.73 354.09 218.00 349.24
  Q 219.71 342.70 216.72 337.08
  C 213.83 331.64 205.83 330.26 201.96 325.74
  C 197.28 320.27 196.81 312.39 198.83 305.77
  C 201.63 296.56 210.34 292.74 218.35 299.28
  A 0.60 0.59 -62.9 0 0 219.30 298.97
  L 219.69 297.53
  Q 219.83 296.98 220.40 296.99
  L 221.72 297.02
  Q 222.47 297.03 222.48 297.79
  L 222.55 316.44
  Q 222.55 316.98 222.00 316.98
  L 220.79 316.98
  Q 220.18 316.99 220.08 316.38
  Q 219.61 313.55 217.55 307.24
  C 212.36 291.40 197.48 304.55 205.29 316.53
  C 208.20 320.99 214.32 322.37 218.26 326.10
  Q 226.84 334.23 223.71 346.88
  C 220.74 358.87 211.02 362.02 200.85 355.35
  Q 200.08 354.84 200.07 355.76
  Z"
/>
<path fill="#ffffff" d="
  M 124.13 325.68
  C 137.88 329.35 139.57 350.46 127.32 356.64
  C 121.91 359.37 109.46 358.01 103.19 358.00
  Q 102.50 357.99 102.50 357.30
  L 102.50 355.72
  Q 102.50 355.11 103.11 355.02
  Q 105.58 354.66 107.40 353.05
  Q 107.83 352.67 107.88 352.09
  C 108.63 341.86 108.29 333.88 108.22 325.03
  Q 108.14 315.53 108.09 306.02
  C 108.07 302.56 106.53 300.68 103.24 300.06
  Q 102.75 299.97 102.75 299.47
  L 102.75 297.70
  Q 102.75 297.01 103.45 297.01
  Q 110.93 296.99 118.38 297.00
  C 125.51 297.01 130.89 298.36 132.58 305.65
  Q 135.68 319.04 124.10 325.43
  A 0.14 0.13 -52.5 0 0 124.13 325.68
  Z
  M 125.27 318.03
  C 127.47 310.20 126.72 298.75 114.98 301.19
  Q 114.51 301.29 114.51 301.77
  L 114.48 323.27
  Q 114.48 323.65 114.85 323.73
  Q 123.21 325.40 125.27 318.03
  Z
  M 114.64 350.18
  C 114.66 353.21 118.65 354.45 121.02 353.81
  C 132.02 350.85 131.34 323.50 114.89 328.37
  Q 114.46 328.50 114.46 328.94
  Q 114.53 339.57 114.64 350.18
  Z"
/>
<path fill="#ffffff" d="
  M 175.98 323.50
  Q 176.05 315.41 176.00 307.31
  C 175.97 303.30 175.16 300.76 170.99 300.06
  Q 170.50 299.97 170.50 299.48
  L 170.50 297.63
  Q 170.50 297.00 171.12 297.00
  L 186.90 297.00
  Q 187.56 297.00 187.52 297.65
  L 187.43 299.40
  Q 187.40 300.12 186.68 300.17
  Q 182.24 300.49 182.25 305.25
  Q 182.26 327.88 182.24 350.50
  Q 182.24 354.43 186.77 354.71
  Q 187.50 354.75 187.50 355.48
  L 187.50 357.38
  Q 187.50 358.00 186.88 358.00
  L 171.13 358.00
  Q 170.50 358.00 170.50 357.38
  L 170.50 355.88
  Q 170.50 355.22 171.13 355.05
  L 173.70 354.36
  A 3.11 3.10 82.5 0 0 175.99 351.36
  L 176.01 328.50
  Q 176.01 328.00 175.50 328.00
  L 158.00 328.00
  Q 157.40 328.00 157.40 328.61
  C 157.39 336.25 156.54 344.67 157.68 352.12
  Q 157.76 352.63 158.11 353.01
  Q 159.58 354.59 161.80 354.75
  Q 162.50 354.81 162.50 355.51
  L 162.50 357.37
  Q 162.50 358.00 161.87 358.00
  L 146.21 358.00
  Q 145.67 358.00 145.64 357.46
  L 145.54 355.75
  Q 145.52 355.27 145.98 355.14
  L 149.54 354.16
  Q 150.04 354.02 150.23 353.53
  Q 151.29 350.75 151.23 347.75
  C 150.97 335.65 150.70 323.44 151.25 311.35
  C 151.46 306.73 151.84 301.09 146.33 300.28
  Q 145.68 300.18 145.62 299.52
  L 145.48 297.70
  Q 145.42 297.00 146.12 297.00
  L 161.98 297.00
  Q 162.72 297.00 162.67 297.74
  L 162.56 299.44
  Q 162.53 300.01 161.96 300.06
  Q 157.15 300.48 157.29 305.55
  Q 157.53 314.50 157.44 323.42
  Q 157.43 324.00 158.01 324.00
  L 175.48 324.00
  Q 175.97 324.00 175.98 323.50
  Z"
/>
<path fill="#000000" d="
  M 114.98 301.19
  C 126.72 298.75 127.47 310.20 125.27 318.03
  Q 123.21 325.40 114.85 323.73
  Q 114.48 323.65 114.48 323.27
  L 114.51 301.77
  Q 114.51 301.29 114.98 301.19
  Z"
/>
<path fill="#000000" d="
  M 121.02 353.81
  C 118.65 354.45 114.66 353.21 114.64 350.18
  Q 114.53 339.57 114.46 328.94
  Q 114.46 328.50 114.89 328.37
  C 131.34 323.50 132.02 350.85 121.02 353.81
  Z"
/>
<path fill="#2a292a" fill-opacity="0.980" d="
  M 281.30 379.08
  L 280.97 380.72
  Q 280.88 381.14 281.30 381.19
  L 283.25 381.46
  Q 271.92 381.13 252.75 381.56
  C 236.02 381.94 219.44 382.10 202.68 381.85
  Q 202.52 381.85 202.42 381.96
  L 202.19 382.19
  Q 202.00 382.37 201.81 382.19
  Q 201.72 382.10 201.63 382.01
  Q 201.58 381.95 201.50 381.95
  C 174.93 382.20 148.38 381.91 121.82 381.95
  Q 63.81 382.04 5.81 381.99
  C 3.91 381.99 2.44 381.33 0.68 380.74
  Q 0.23 380.59 0.25 380.12
  L 0.29 379.25
  C 1.89 379.67 1.47 376.76 2.43 375.60
  Q 2.76 375.20 3.27 375.31
  Q 5.01 375.69 8.94 375.70
  Q 104.06 375.84 199.19 375.52
  Q 208.13 375.49 219.18 375.60
  C 232.41 375.73 246.01 374.97 259.07 377.23
  Q 262.43 377.81 266.63 377.74
  Q 273.98 377.62 281.30 379.08
  Z
  M 128.1298 381.3401
  A 0.18 0.18 0.0 0 0 127.9514 381.1586
  L 114.5319 381.0415
  A 0.18 0.18 0.0 0 0 114.3503 381.2199
  L 114.3502 381.2399
  A 0.18 0.18 0.0 0 0 114.5286 381.4214
  L 127.9481 381.5385
  A 0.18 0.18 0.0 0 0 128.1297 381.3601
  L 128.1298 381.3401
  Z"
/>
<rect fill="#6c5d78" x="-6.89" y="-0.19" transform="translate(121.24,381.29) rotate(0.5)" width="13.78" height="0.38" rx="0.18"/>
</svg>
