<?xml version="1.0" encoding="UTF-8" standalone="no"?>
<!DOCTYPE svg PUBLIC "-//W3C//DTD SVG 1.1//EN" "http://www.w3.org/Graphics/SVG/1.1/DTD/svg11.dtd">
<svg xmlns="http://www.w3.org/2000/svg" version="1.1" viewBox="0 0 317 383">
<g stroke-width="2.00" fill="none" stroke-linecap="butt">
<path stroke="#373536" vector-effect="non-scaling-stroke" d="
  M 247.71 2.25
  L 246.75 2.46"
/>
<path stroke="#b6b4b5" vector-effect="non-scaling-stroke" d="
  M 246.75 2.46
  L 246.75 2.02
  Q 246.75 1.54 246.26 1.51
  L 245.50 1.46"
/>
<path stroke="#808080" vector-effect="non-scaling-stroke" d="
  M 246.75 2.46
  Q 244.14 10.28 245.70 18.34
  Q 245.81 18.89 246.36 18.98
  Q 247.26 19.13 247.41 18.45"
/>
<path stroke="#808080" vector-effect="non-scaling-stroke" d="
  M 256.10 12.38
  Q 256.41 29.23 256.29 46.01
  C 256.24 53.38 255.48 57.91 260.30 64.21
  C 269.58 76.34 274.51 91.13 280.77 104.96
  Q 284.80 113.85 294.22 141.69
  C 295.30 144.89 295.84 150.80 298.28 153.97
  C 303.21 160.38 309.04 167.89 309.36 175.29
  Q 309.56 179.92 310.29 184.50"
/>
<path stroke="#b6b4b5" vector-effect="non-scaling-stroke" d="
  M 310.29 184.50
  L 309.13 198.09"
/>
<path stroke="#808080" vector-effect="non-scaling-stroke" d="
  M 309.13 198.09
  C 305.27 208.70 291.32 215.30 280.46 214.76
  C 270.80 214.28 264.08 203.94 262.46 195.25"
/>
<path stroke="#b6b4b5" vector-effect="non-scaling-stroke" d="
  M 262.46 195.25
  C 261.86 190.29 259.22 190.45 255.53 189.21
  C 234.53 182.15 222.34 168.07 207.84 150.62
  C 206.92 149.51 205.87 149.19 204.75 150.21"
/>
<path stroke="#808080" vector-effect="non-scaling-stroke" d="
  M 204.75 150.21
  C 196.61 159.50 188.71 165.93 185.36 178.22
  C 183.44 185.28 184.24 194.24 184.24 201.90
  C 184.26 213.04 187.64 224.26 191.21 234.69
  C 196.05 248.80 203.69 261.80 212.45 273.88
  A 2.01 2.01 0.0 0 0 214.09 274.70
  Q 223.87 274.55 234.07 274.77
  C 236.45 274.82 239.03 273.50 241.94 275.09
  Q 242.34 275.31 242.45 275.75
  C 242.72 276.88 243.08 277.76 243.05 278.91
  Q 242.69 295.69 242.72 312.49
  C 242.72 315.15 242.35 317.51 243.20 320.44
  Q 243.35 320.97 243.90 320.94
  L 251.25 320.54"
/>
<path stroke="#808080" vector-effect="non-scaling-stroke" d="
  M 282.61 320.49
  Q 283.34 347.69 282.99 374.84
  C 282.97 376.56 282.66 378.47 282.50 380.24
  Q 282.45 380.74 281.95 380.74
  L 279.75 380.71"
/>
<path stroke="#e7e7e7" vector-effect="non-scaling-stroke" d="
  M 279.75 380.71
  C 274.44 376.88 265.76 378.15 259.45 377.27
  Q 252.08 376.25 244.66 375.77
  Q 244.37 375.75 244.18 375.95
  L 243.93 376.19
  Q 243.63 376.50 243.19 376.50
  Q 178.85 376.51 114.50 376.51
  C 110.66 376.51 106.70 375.74 103.15 375.75
  Q 45.90 375.97 4.50 375.70
  Q 1.68 375.68 0.00 375.94"
/>
<path stroke="#b6b4b5" vector-effect="non-scaling-stroke" d="
  M 0.21 331.50
  L 0.21 326.25"
/>
<path stroke="#808080" vector-effect="non-scaling-stroke" d="
  M 14.25 321.46
  C 22.61 321.90 33.31 323.17 41.43 321.55"
/>
<path stroke="#e7e7e7" vector-effect="non-scaling-stroke" d="
  M 41.43 321.55
  C 42.26 306.67 42.06 298.08 41.04 287.00"
/>
<path stroke="#b6b4b5" vector-effect="non-scaling-stroke" d="
  M 42.50 274.21
  L 50.25 274.21"
/>
<path stroke="#808080" vector-effect="non-scaling-stroke" d="
  M 50.25 274.21
  L 64.25 274.21"
/>
<path stroke="#b6b4b5" vector-effect="non-scaling-stroke" d="
  M 67.50 274.21
  Q 68.38 274.75 69.10 274.44
  Q 69.59 274.23 69.29 273.79
  C 67.88 271.70 70.08 269.13 65.76 268.68"
/>
<path stroke="#b6b4b5" vector-effect="non-scaling-stroke" d="
  M 140.03 51.79
  Q 147.17 49.43 154.02 46.37
  C 157.79 44.69 161.93 44.70 165.91 43.06
  C 170.07 41.34 174.89 41.19 179.42 39.98
  C 185.09 38.46 190.68 38.02 196.32 36.74
  C 201.17 35.64 204.02 37.63 209.25 34.29"
/>
<path stroke="#808080" vector-effect="non-scaling-stroke" d="
  M 213.54 29.75
  Q 213.97 29.19 213.98 28.61
  Q 213.99 28.11 213.51 27.98
  Q 208.69 26.71 204.81 27.05
  Q 191.81 28.20 173.96 30.89
  C 169.22 31.60 164.30 33.48 159.28 34.36
  Q 153.56 35.36 150.48 36.43
  C 127.00 44.57 103.72 57.57 87.57 75.54
  C 77.21 87.06 67.40 97.02 59.83 111.02
  Q 52.42 124.73 50.53 130.01
  Q 46.64 140.85 40.96 164.74
  C 39.99 168.83 40.28 174.68 39.72 178.98
  C 39.02 184.39 37.99 189.70 37.97 195.05
  Q 37.96 201.02 38.14 206.99
  C 38.31 212.44 39.96 220.55 39.20 226.76
  Q 38.43 232.97 39.50 237.46"
/>
<path stroke="#e7e7e7" vector-effect="non-scaling-stroke" d="
  M 39.50 237.46
  Q 37.55 237.25 37.46 235.25"
/>
<path stroke="#808080" vector-effect="non-scaling-stroke" d="
  M 37.46 232.75
  L 36.91 228.42
  Q 36.83 227.82 36.30 228.09
  Q 36.06 228.21 35.96 228.50"
/>
<path stroke="#e7e7e7" vector-effect="non-scaling-stroke" d="
  M 35.96 228.50
  L 35.09 228.74
  Q 34.57 228.88 34.54 228.34
  Q 34.51 227.76 34.04 227.50"
/>
<path stroke="#808080" vector-effect="non-scaling-stroke" d="
  M 32.46 167.25
  C 32.50 164.03 22.92 165.42 20.11 165.43"
/>
<path stroke="#808080" vector-effect="non-scaling-stroke" d="
  M 31.71 146.25
  Q 32.27 145.66 32.23 144.97
  Q 32.20 144.40 31.63 144.42
  L 19.46 144.72"
/>
<path stroke="#b6b4b5" vector-effect="non-scaling-stroke" d="
  M 37.21 123.75
  L 37.53 122.99
  Q 37.76 122.45 37.19 122.31
  L 27.25 119.79"
/>
<path stroke="#e7e7e7" vector-effect="non-scaling-stroke" d="
  M 40.75 107.21
  Q 42.28 107.53 43.50 106.46"
/>
<path stroke="#b6b4b5" vector-effect="non-scaling-stroke" d="
  M 43.50 106.46
  Q 44.99 105.81 44.66 102.79"
/>
<path stroke="#808080" vector-effect="non-scaling-stroke" d="
  M 44.66 102.79
  Q 39.41 100.35 33.50 100.29"
/>
<path stroke="#b6b4b5" vector-effect="non-scaling-stroke" d="
  M 54.00 88.71
  Q 55.99 88.91 57.05 86.80
  A 1.57 1.57 0.0 0 0 55.90 84.54
  L 43.50 82.54"
/>
<path stroke="#b6b4b5" vector-effect="non-scaling-stroke" d="
  M 61.50 72.46
  Q 65.86 72.35 70.14 71.24
  Q 70.70 71.09 70.74 70.51
  L 70.92 67.83
  Q 70.96 67.18 70.34 66.99
  L 61.29 64.25"
/>
<path stroke="#e7e7e7" vector-effect="non-scaling-stroke" d="
  M 61.29 64.25
  Q 60.10 63.06 58.50 62.79"
/>
<path stroke="#e7e7e7" vector-effect="non-scaling-stroke" d="
  M 66.00 57.79
  Q 70.76 58.72 75.29 56.88"
/>
<path stroke="#b6b4b5" vector-effect="non-scaling-stroke" d="
  M 75.29 56.88
  Q 81.73 55.84 88.17 57.35
  Q 88.65 57.47 88.58 56.97
  C 87.85 51.62 83.06 49.87 78.25 48.46"
/>
<path stroke="#e7e7e7" vector-effect="non-scaling-stroke" d="
  M 78.25 48.46
  Q 75.58 47.14 75.52 44.48
  Q 75.51 43.86 76.08 43.65
  Q 79.65 42.29 83.50 42.46"
/>
<path stroke="#b6b4b5" vector-effect="non-scaling-stroke" d="
  M 83.50 42.46
  Q 89.81 42.72 96.00 41.46"
/>
<path stroke="#e7e7e7" vector-effect="non-scaling-stroke" d="
  M 96.00 41.46
  L 104.19 41.32
  Q 104.47 41.31 104.60 41.07
  L 104.75 40.79"
/>
<path stroke="#b6b4b5" vector-effect="non-scaling-stroke" d="
  M 107.50 40.71
  L 112.34 40.41
  Q 112.88 40.38 112.87 39.84
  C 112.78 32.52 98.56 35.82 103.86 28.67"
/>
<path stroke="#e7e7e7" vector-effect="non-scaling-stroke" d="
  M 121.25 26.96
  L 132.00 26.71"
/>
<path stroke="#b6b4b5" vector-effect="non-scaling-stroke" d="
  M 137.50 27.04
  Q 138.59 27.49 139.78 26.88
  Q 140.27 26.63 140.18 26.09
  Q 139.83 24.02 137.65 22.84
  Q 133.53 20.60 130.26 19.71"
/>
<path stroke="#b6b4b5" vector-effect="non-scaling-stroke" d="
  M 136.75 15.04
  Q 140.36 16.24 144.14 16.10
  C 147.73 15.96 150.53 16.98 153.97 17.29
  Q 157.06 17.57 159.13 17.89
  C 165.00 18.80 170.68 17.93 176.43 19.12
  C 181.49 20.17 185.96 18.96 190.91 19.73
  C 195.60 20.45 199.90 19.76 204.44 21.25
  Q 204.88 21.40 205.27 21.12
  L 205.79 20.75"
/>
<path stroke="#808080" vector-effect="non-scaling-stroke" d="
  M 87.53 299.58
  C 69.05 286.43 61.55 314.77 71.47 325.94
  C 75.40 330.36 82.41 331.39 85.50 336.35
  C 88.75 341.57 89.60 354.10 80.96 355.01
  C 72.55 355.91 68.85 343.83 68.08 337.55
  Q 68.00 336.91 67.37 336.98
  L 66.28 337.09
  Q 65.77 337.14 65.77 337.65
  L 66.08 357.30
  Q 66.09 357.94 66.74 357.94
  L 67.63 357.94
  Q 68.29 357.94 68.51 357.33
  L 69.21 355.34
  Q 69.50 354.51 70.17 355.10
  Q 76.23 360.45 82.93 358.29
  C 92.03 355.36 94.37 343.42 92.59 335.17
  C 89.47 320.74 68.08 322.74 72.55 305.53
  C 73.96 300.13 79.18 298.05 83.40 301.84
  C 86.94 305.02 88.35 311.24 88.97 315.52
  C 89.13 316.58 89.70 317.32 90.81 317.00
  Q 91.29 316.86 91.29 316.36
  L 91.23 297.62
  Q 91.23 297.00 90.62 297.00
  L 89.68 297.00
  Q 89.14 297.00 88.97 297.51
  L 88.41 299.28
  Q 88.17 300.03 87.53 299.58"
/>
<path stroke="#808080" vector-effect="non-scaling-stroke" d="
  M 201.16 355.19
  C 216.16 366.93 225.99 349.49 223.87 336.42
  C 221.29 320.51 199.98 323.49 203.34 306.24
  C 204.68 299.38 212.21 297.52 216.00 303.55
  Q 219.27 308.76 220.00 316.02
  Q 220.15 317.53 221.89 316.89
  Q 222.30 316.74 222.30 316.31
  L 222.23 297.61
  Q 222.22 297.00 221.61 297.00
  L 220.80 297.00
  Q 220.20 297.00 219.98 297.56
  L 219.21 299.49
  Q 218.98 300.08 218.49 299.67
  C 209.76 292.42 201.53 297.01 198.78 306.58
  Q 197.06 312.56 198.73 319.06
  C 202.41 333.34 222.98 330.07 218.36 348.85
  C 216.72 355.50 210.17 357.04 205.48 352.63
  C 201.69 349.07 199.74 342.62 199.09 337.58
  Q 199.01 336.98 198.40 336.99
  L 197.24 337.02
  Q 196.71 337.04 196.72 337.57
  L 197.08 357.15
  Q 197.09 357.68 197.58 357.90
  C 199.42 358.72 199.76 356.36 200.32 355.36
  Q 200.64 354.79 201.16 355.19"
/>
<path stroke="#808080" vector-effect="non-scaling-stroke" d="
  M 123.79 325.76
  A 0.36 0.36 0.0 0 1 123.73 325.08
  Q 131.31 322.00 132.72 314.00
  C 136.41 293.11 115.51 296.96 103.51 297.01
  Q 103.00 297.01 103.00 297.52
  L 103.00 299.29
  Q 103.00 299.93 103.63 300.04
  Q 108.25 300.88 108.25 306.00
  Q 108.26 327.34 108.24 348.70
  C 108.24 352.32 107.51 354.86 103.43 354.86
  Q 102.75 354.85 102.75 355.53
  L 102.75 357.29
  Q 102.75 357.98 103.44 357.99
  C 109.87 358.03 121.64 359.27 127.12 356.61
  C 139.23 350.75 137.86 328.88 123.79 325.76"
/>
<path stroke="#808080" vector-effect="non-scaling-stroke" d="
  M 173.98 354.51
  L 171.29 355.07
  Q 170.75 355.18 170.75 355.73
  L 170.75 357.38
  Q 170.75 358.00 171.37 358.00
  L 186.75 358.00
  Q 187.25 358.00 187.25 357.50
  L 187.25 355.54
  Q 187.25 354.95 186.67 354.91
  C 183.71 354.69 182.19 353.04 182.15 349.97
  Q 181.78 321.51 182.05 304.50
  Q 182.12 300.21 186.60 300.14
  Q 187.25 300.13 187.25 299.49
  L 187.25 297.50
  Q 187.25 297.00 186.75 297.00
  L 171.38 297.00
  Q 170.75 297.00 170.75 297.63
  L 170.75 299.47
  Q 170.75 300.11 171.39 300.18
  C 175.07 300.55 176.00 302.70 176.01 306.21
  Q 176.01 314.84 175.99 323.49
  Q 175.99 324.00 175.48 324.00
  L 157.77 324.00
  Q 157.21 324.00 157.21 323.44
  Q 157.29 313.99 157.25 304.48
  C 157.23 301.50 158.92 300.21 161.68 300.06
  Q 162.25 300.03 162.25 299.46
  L 162.25 297.50
  Q 162.25 297.00 161.75 297.00
  L 146.37 297.00
  Q 145.75 297.00 145.75 297.63
  L 145.75 299.31
  Q 145.75 299.98 146.42 300.09
  Q 151.30 300.90 151.30 306.00
  Q 151.29 328.37 151.21 350.76
  Q 151.20 355.34 146.38 354.82
  Q 145.78 354.76 145.77 355.37
  L 145.74 357.37
  Q 145.73 358.00 146.37 358.00
  L 161.63 358.00
  Q 162.25 358.00 162.25 357.37
  L 162.25 355.51
  Q 162.25 354.88 161.62 354.85
  C 158.43 354.67 157.23 352.80 157.24 349.66
  Q 157.30 339.18 157.22 328.56
  Q 157.21 328.00 157.77 328.00
  L 175.50 328.00
  Q 176.01 328.00 176.00 328.50
  L 175.99 352.05
  A 2.51 2.51 0.0 0 1 173.98 354.51"
/>
<path stroke="#373536" vector-effect="non-scaling-stroke" d="
  M 262.21 197.75
  L 262.46 195.25"
/>
<path stroke="#373536" vector-effect="non-scaling-stroke" d="
  M 309.13 198.09
  Q 313.07 195.99 312.46 191.25"
/>
<path stroke="#676767" vector-effect="non-scaling-stroke" d="
  M 312.46 191.25
  Q 314.49 186.08 312.61 180.90
  Q 312.41 180.34 311.83 180.52
  L 311.46 180.63
  Q 310.88 180.82 310.85 181.42
  L 310.71 184.50"
/>
<path stroke="#373536" vector-effect="non-scaling-stroke" d="
  M 310.71 184.50
  L 310.29 184.50"
/>
<path stroke="#676767" vector-effect="non-scaling-stroke" d="
  M 39.00 239.29
  Q 39.86 238.54 39.50 237.46"
/>
<path stroke="#9e9c9d" vector-effect="non-scaling-stroke" d="
  M 99.79 40.75
  L 96.00 41.46"
/>
<path stroke="#9e9c9d" vector-effect="non-scaling-stroke" d="
  M 83.50 42.46
  L 78.75 41.96"
/>
<path stroke="#9e9c9d" vector-effect="non-scaling-stroke" d="
  M 78.25 48.46
  L 77.00 48.79"
/>
<path stroke="#9e9c9d" vector-effect="non-scaling-stroke" d="
  M 75.29 56.88
  Q 74.98 56.71 74.50 56.71"
/>
<path stroke="#9e9c9d" vector-effect="non-scaling-stroke" d="
  M 61.29 64.25
  L 60.25 64.54"
/>
<path stroke="#373536" vector-effect="non-scaling-stroke" d="
  M 44.66 102.79
  L 43.96 103.50"
/>
<path stroke="#9e9c9d" vector-effect="non-scaling-stroke" d="
  M 43.50 106.46
  L 42.75 106.21"
/>
<path stroke="#373536" vector-effect="non-scaling-stroke" d="
  M 206.91 151.62
  Q 206.64 150.10 204.75 150.21"
/>
<path stroke="#9e9c9d" vector-effect="non-scaling-stroke" d="
  M 312.46 191.25
  Q 310.58 190.53 311.41 188.67
  Q 311.64 188.18 311.38 187.71
  Q 310.57 186.22 310.71 184.50"
/>
<path stroke="#676767" vector-effect="non-scaling-stroke" d="
  M 35.96 228.50
  L 36.25 230.71"
/>
<path stroke="#373536" vector-effect="non-scaling-stroke" d="
  M 47.75 273.79
  L 50.25 274.21"
/>
<path stroke="#676767" vector-effect="non-scaling-stroke" d="
  M 41.43 321.55
  L 41.21 318.75"
/>
<path stroke="#808080" vector-effect="non-scaling-stroke" d="
  M 122.56 301.69
  Q 119.54 300.26 114.67 301.25
  Q 114.25 301.33 114.25 301.76
  L 114.25 323.25
  Q 114.25 323.64 114.63 323.74
  C 128.60 327.46 128.90 304.69 122.56 301.69"
/>
<path stroke="#808080" vector-effect="non-scaling-stroke" d="
  M 114.28 349.34
  C 114.31 354.23 120.09 354.96 123.24 353.24
  C 130.12 349.49 130.22 333.30 123.55 328.99
  C 121.14 327.44 117.68 328.00 114.80 328.00
  Q 114.27 328.00 114.27 328.53
  Q 114.21 338.97 114.28 349.34"
/>
<path stroke="#676767" vector-effect="non-scaling-stroke" d="
  M 2.50 381.03
  L 279.75 380.71"
/>
</g>
<path fill="#6d696b" d="
  M 247.71 2.25
  L 246.75 2.46
  L 246.75 2.02
  Q 246.75 1.54 246.26 1.51
  L 245.50 1.46
  Q 247.14 0.66 247.71 2.25
  Z"
/>
<path fill="#ffffff" d="
  M 245.50 1.46
  L 246.26 1.51
  Q 246.75 1.54 246.75 2.02
  L 246.75 2.46
  Q 244.14 10.28 245.70 18.34
  Q 245.81 18.89 246.36 18.98
  Q 247.26 19.13 247.41 18.45
  Q 250.87 14.63 256.10 12.38
  Q 256.41 29.23 256.29 46.01
  C 256.24 53.38 255.48 57.91 260.30 64.21
  C 269.58 76.34 274.51 91.13 280.77 104.96
  Q 284.80 113.85 294.22 141.69
  C 295.30 144.89 295.84 150.80 298.28 153.97
  C 303.21 160.38 309.04 167.89 309.36 175.29
  Q 309.56 179.92 310.29 184.50
  L 309.13 198.09
  C 305.27 208.70 291.32 215.30 280.46 214.76
  C 270.80 214.28 264.08 203.94 262.46 195.25
  C 261.86 190.29 259.22 190.45 255.53 189.21
  C 234.53 182.15 222.34 168.07 207.84 150.62
  C 206.92 149.51 205.87 149.19 204.75 150.21
  C 196.61 159.50 188.71 165.93 185.36 178.22
  C 183.44 185.28 184.24 194.24 184.24 201.90
  C 184.26 213.04 187.64 224.26 191.21 234.69
  C 196.05 248.80 203.69 261.80 212.45 273.88
  A 2.01 2.01 0.0 0 0 214.09 274.70
  Q 223.87 274.55 234.07 274.77
  C 236.45 274.82 239.03 273.50 241.94 275.09
  Q 242.34 275.31 242.45 275.75
  C 242.72 276.88 243.08 277.76 243.05 278.91
  Q 242.69 295.69 242.72 312.49
  C 242.72 315.15 242.35 317.51 243.20 320.44
  Q 243.35 320.97 243.90 320.94
  L 251.25 320.54
  L 282.61 320.49
  Q 283.34 347.69 282.99 374.84
  C 282.97 376.56 282.66 378.47 282.50 380.24
  Q 282.45 380.74 281.95 380.74
  L 279.75 380.71
  C 274.44 376.88 265.76 378.15 259.45 377.27
  Q 252.08 376.25 244.66 375.77
  Q 244.37 375.75 244.18 375.95
  L 243.93 376.19
  Q 243.63 376.50 243.19 376.50
  Q 178.85 376.51 114.50 376.51
  C 110.66 376.51 106.70 375.74 103.15 375.75
  Q 45.90 375.97 4.50 375.70
  Q 1.68 375.68 0.00 375.94
  L 0.00 345.19
  L 0.21 331.50
  L 0.21 326.25
  L 0.46 322.14
  Q 0.50 321.50 1.14 321.50
  L 14.25 321.46
  C 22.61 321.90 33.31 323.17 41.43 321.55
  C 42.26 306.67 42.06 298.08 41.04 287.00
  L 40.97 275.08
  Q 40.96 274.35 41.70 274.36
  Q 42.13 274.36 42.50 274.21
  L 50.25 274.21
  L 64.25 274.21
  L 67.50 274.21
  Q 68.38 274.75 69.10 274.44
  Q 69.59 274.23 69.29 273.79
  C 67.88 271.70 70.08 269.13 65.76 268.68
  C 59.18 258.10 52.59 245.82 49.62 233.67
  C 47.10 223.37 44.48 213.26 44.50 202.63
  Q 44.51 198.26 44.50 193.90
  C 44.49 187.99 46.37 182.09 46.87 176.02
  C 47.07 173.48 48.22 171.55 48.65 169.19
  C 49.82 162.71 52.00 156.65 53.60 150.26
  C 54.41 147.08 56.31 144.22 57.24 141.43
  Q 61.64 128.24 63.70 124.94
  C 68.35 117.47 72.65 108.88 78.63 102.43
  Q 91.70 88.30 104.61 74.02
  C 109.19 68.96 115.15 65.46 120.56 61.30
  Q 127.42 56.03 140.03 51.79
  Q 147.17 49.43 154.02 46.37
  C 157.79 44.69 161.93 44.70 165.91 43.06
  C 170.07 41.34 174.89 41.19 179.42 39.98
  C 185.09 38.46 190.68 38.02 196.32 36.74
  C 201.17 35.64 204.02 37.63 209.25 34.29
  Q 212.60 33.12 213.54 29.75
  Q 213.97 29.19 213.98 28.61
  Q 213.99 28.11 213.51 27.98
  Q 208.69 26.71 204.81 27.05
  Q 191.81 28.20 173.96 30.89
  C 169.22 31.60 164.30 33.48 159.28 34.36
  Q 153.56 35.36 150.48 36.43
  C 127.00 44.57 103.72 57.57 87.57 75.54
  C 77.21 87.06 67.40 97.02 59.83 111.02
  Q 52.42 124.73 50.53 130.01
  Q 46.64 140.85 40.96 164.74
  C 39.99 168.83 40.28 174.68 39.72 178.98
  C 39.02 184.39 37.99 189.70 37.97 195.05
  Q 37.96 201.02 38.14 206.99
  C 38.31 212.44 39.96 220.55 39.20 226.76
  Q 38.43 232.97 39.50 237.46
  Q 37.55 237.25 37.46 235.25
  L 37.46 232.75
  L 36.91 228.42
  Q 36.83 227.82 36.30 228.09
  Q 36.06 228.21 35.96 228.50
  L 35.09 228.74
  Q 34.57 228.88 34.54 228.34
  Q 34.51 227.76 34.04 227.50
  Q 33.31 218.16 31.61 208.96
  C 30.03 200.46 30.89 191.49 31.02 182.90
  C 31.09 177.72 32.91 172.91 32.46 167.25
  C 32.50 164.03 22.92 165.42 20.11 165.43
  Q 22.13 156.94 29.25 151.00
  Q 31.26 149.32 31.71 146.25
  Q 32.27 145.66 32.23 144.97
  Q 32.20 144.40 31.63 144.42
  L 19.46 144.72
  C 17.07 141.98 18.09 140.10 20.81 138.31
  Q 30.41 132.00 36.49 126.49
  Q 37.43 125.65 37.21 123.75
  L 37.53 122.99
  Q 37.76 122.45 37.19 122.31
  L 27.25 119.79
  Q 25.32 117.95 26.17 115.60
  Q 26.35 115.10 26.83 114.84
  L 40.75 107.21
  Q 42.28 107.53 43.50 106.46
  Q 44.99 105.81 44.66 102.79
  Q 39.41 100.35 33.50 100.29
  Q 31.73 98.02 33.22 95.72
  Q 33.50 95.28 33.99 95.12
  L 54.00 88.71
  Q 55.99 88.91 57.05 86.80
  A 1.57 1.57 0.0 0 0 55.90 84.54
  L 43.50 82.54
  Q 41.83 80.69 42.36 78.33
  Q 42.47 77.83 42.96 77.69
  L 61.50 72.46
  Q 65.86 72.35 70.14 71.24
  Q 70.70 71.09 70.74 70.51
  L 70.92 67.83
  Q 70.96 67.18 70.34 66.99
  L 61.29 64.25
  Q 60.10 63.06 58.50 62.79
  Q 57.69 61.33 57.78 59.62
  A 0.91 0.91 0.0 0 1 58.58 58.76
  L 66.00 57.79
  Q 70.76 58.72 75.29 56.88
  Q 81.73 55.84 88.17 57.35
  Q 88.65 57.47 88.58 56.97
  C 87.85 51.62 83.06 49.87 78.25 48.46
  Q 75.58 47.14 75.52 44.48
  Q 75.51 43.86 76.08 43.65
  Q 79.65 42.29 83.50 42.46
  Q 89.81 42.72 96.00 41.46
  L 104.19 41.32
  Q 104.47 41.31 104.60 41.07
  L 104.75 40.79
  L 107.50 40.71
  L 112.34 40.41
  Q 112.88 40.38 112.87 39.84
  C 112.78 32.52 98.56 35.82 103.86 28.67
  C 106.84 27.73 108.57 28.24 111.57 28.54
  C 114.66 28.85 118.10 27.38 121.25 26.96
  L 132.00 26.71
  L 137.50 27.04
  Q 138.59 27.49 139.78 26.88
  Q 140.27 26.63 140.18 26.09
  Q 139.83 24.02 137.65 22.84
  Q 133.53 20.60 130.26 19.71
  Q 127.96 18.37 129.01 16.00
  Q 129.23 15.51 129.75 15.40
  Q 133.21 14.66 136.75 15.04
  Q 140.36 16.24 144.14 16.10
  C 147.73 15.96 150.53 16.98 153.97 17.29
  Q 157.06 17.57 159.13 17.89
  C 165.00 18.80 170.68 17.93 176.43 19.12
  C 181.49 20.17 185.96 18.96 190.91 19.73
  C 195.60 20.45 199.90 19.76 204.44 21.25
  Q 204.88 21.40 205.27 21.12
  L 205.79 20.75
  C 209.30 20.60 218.18 22.09 220.63 20.10
  Q 231.73 11.07 243.03 2.28
  Q 243.59 1.85 245.50 1.46
  Z
  M 87.53 299.58
  C 69.05 286.43 61.55 314.77 71.47 325.94
  C 75.40 330.36 82.41 331.39 85.50 336.35
  C 88.75 341.57 89.60 354.10 80.96 355.01
  C 72.55 355.91 68.85 343.83 68.08 337.55
  Q 68.00 336.91 67.37 336.98
  L 66.28 337.09
  Q 65.77 337.14 65.77 337.65
  L 66.08 357.30
  Q 66.09 357.94 66.74 357.94
  L 67.63 357.94
  Q 68.29 357.94 68.51 357.33
  L 69.21 355.34
  Q 69.50 354.51 70.17 355.10
  Q 76.23 360.45 82.93 358.29
  C 92.03 355.36 94.37 343.42 92.59 335.17
  C 89.47 320.74 68.08 322.74 72.55 305.53
  C 73.96 300.13 79.18 298.05 83.40 301.84
  C 86.94 305.02 88.35 311.24 88.97 315.52
  C 89.13 316.58 89.70 317.32 90.81 317.00
  Q 91.29 316.86 91.29 316.36
  L 91.23 297.62
  Q 91.23 297.00 90.62 297.00
  L 89.68 297.00
  Q 89.14 297.00 88.97 297.51
  L 88.41 299.28
  Q 88.17 300.03 87.53 299.58
  Z
  M 201.16 355.19
  C 216.16 366.93 225.99 349.49 223.87 336.42
  C 221.29 320.51 199.98 323.49 203.34 306.24
  C 204.68 299.38 212.21 297.52 216.00 303.55
  Q 219.27 308.76 220.00 316.02
  Q 220.15 317.53 221.89 316.89
  Q 222.30 316.74 222.30 316.31
  L 222.23 297.61
  Q 222.22 297.00 221.61 297.00
  L 220.80 297.00
  Q 220.20 297.00 219.98 297.56
  L 219.21 299.49
  Q 218.98 300.08 218.49 299.67
  C 209.76 292.42 201.53 297.01 198.78 306.58
  Q 197.06 312.56 198.73 319.06
  C 202.41 333.34 222.98 330.07 218.36 348.85
  C 216.72 355.50 210.17 357.04 205.48 352.63
  C 201.69 349.07 199.74 342.62 199.09 337.58
  Q 199.01 336.98 198.40 336.99
  L 197.24 337.02
  Q 196.71 337.04 196.72 337.57
  L 197.08 357.15
  Q 197.09 357.68 197.58 357.90
  C 199.42 358.72 199.76 356.36 200.32 355.36
  Q 200.64 354.79 201.16 355.19
  Z
  M 123.79 325.76
  A 0.36 0.36 0.0 0 1 123.73 325.08
  Q 131.31 322.00 132.72 314.00
  C 136.41 293.11 115.51 296.96 103.51 297.01
  Q 103.00 297.01 103.00 297.52
  L 103.00 299.29
  Q 103.00 299.93 103.63 300.04
  Q 108.25 300.88 108.25 306.00
  Q 108.26 327.34 108.24 348.70
  C 108.24 352.32 107.51 354.86 103.43 354.86
  Q 102.75 354.85 102.75 355.53
  L 102.75 357.29
  Q 102.75 357.98 103.44 357.99
  C 109.87 358.03 121.64 359.27 127.12 356.61
  C 139.23 350.75 137.86 328.88 123.79 325.76
  Z
  M 173.98 354.51
  L 171.29 355.07
  Q 170.75 355.18 170.75 355.73
  L 170.75 357.38
  Q 170.75 358.00 171.37 358.00
  L 186.75 358.00
  Q 187.25 358.00 187.25 357.50
  L 187.25 355.54
  Q 187.25 354.95 186.67 354.91
  C 183.71 354.69 182.19 353.04 182.15 349.97
  Q 181.78 321.51 182.05 304.50
  Q 182.12 300.21 186.60 300.14
  Q 187.25 300.13 187.25 299.49
  L 187.25 297.50
  Q 187.25 297.00 186.75 297.00
  L 171.38 297.00
  Q 170.75 297.00 170.75 297.63
  L 170.75 299.47
  Q 170.75 300.11 171.39 300.18
  C 175.07 300.55 176.00 302.70 176.01 306.21
  Q 176.01 314.84 175.99 323.49
  Q 175.99 324.00 175.48 324.00
  L 157.77 324.00
  Q 157.21 324.00 157.21 323.44
  Q 157.29 313.99 157.25 304.48
  C 157.23 301.50 158.92 300.21 161.68 300.06
  Q 162.25 300.03 162.25 299.46
  L 162.25 297.50
  Q 162.25 297.00 161.75 297.00
  L 146.37 297.00
  Q 145.75 297.00 145.75 297.63
  L 145.75 299.31
  Q 145.75 299.98 146.42 300.09
  Q 151.30 300.90 151.30 306.00
  Q 151.29 328.37 151.21 350.76
  Q 151.20 355.34 146.38 354.82
  Q 145.78 354.76 145.77 355.37
  L 145.74 357.37
  Q 145.73 358.00 146.37 358.00
  L 161.63 358.00
  Q 162.25 358.00 162.25 357.37
  L 162.25 355.51
  Q 162.25 354.88 161.62 354.85
  C 158.43 354.67 157.23 352.80 157.24 349.66
  Q 157.30 339.18 157.22 328.56
  Q 157.21 328.00 157.77 328.00
  L 175.50 328.00
  Q 176.01 328.00 176.00 328.50
  L 175.99 352.05
  A 2.51 2.51 0.0 0 1 173.98 354.51
  Z"
/>
<path fill="#000000" d="
  M 247.71 2.25
  Q 248.21 4.04 248.02 5.00
  Q 246.74 11.56 247.41 18.45
  Q 247.26 19.13 246.36 18.98
  Q 245.81 18.89 245.70 18.34
  Q 244.14 10.28 246.75 2.46
  L 247.71 2.25
  Z"
/>
<path fill="#000000" d="
  M 262.21 197.75
  L 262.46 195.25
  C 264.08 203.94 270.80 214.28 280.46 214.76
  C 291.32 215.30 305.27 208.70 309.13 198.09
  Q 313.07 195.99 312.46 191.25
  Q 314.49 186.08 312.61 180.90
  Q 312.41 180.34 311.83 180.52
  L 311.46 180.63
  Q 310.88 180.82 310.85 181.42
  L 310.71 184.50
  L 310.29 184.50
  Q 309.56 179.92 309.36 175.29
  C 309.04 167.89 303.21 160.38 298.28 153.97
  C 295.84 150.80 295.30 144.89 294.22 141.69
  Q 284.80 113.85 280.77 104.96
  C 274.51 91.13 269.58 76.34 260.30 64.21
  C 255.48 57.91 256.24 53.38 256.29 46.01
  Q 256.41 29.23 256.10 12.38
  Q 257.19 12.66 258.00 14.30
  Q 258.50 15.31 258.50 16.82
  Q 258.50 35.40 258.50 54.01
  C 258.50 59.66 263.69 65.99 266.80 70.75
  Q 269.51 74.89 271.48 79.18
  Q 277.98 93.40 284.36 107.67
  C 284.58 108.17 284.40 108.95 284.60 109.45
  Q 291.45 126.03 297.07 143.04
  C 298.10 146.16 298.14 150.36 300.17 153.23
  Q 308.41 164.90 312.53 172.95
  C 313.56 174.96 313.39 178.38 314.18 180.84
  C 316.69 188.58 313.37 197.53 308.72 203.82
  C 302.33 212.47 283.85 221.38 273.94 214.41
  C 268.26 210.42 263.44 204.80 262.21 197.75
  Z"
/>
<path fill="#6d696b" d="
  M 136.75 15.04
  Q 148.92 15.24 158.06 16.70
  Q 165.44 17.87 171.94 17.50
  C 174.63 17.34 176.58 18.76 179.05 18.81
  Q 182.37 18.88 185.68 18.79
  C 190.21 18.67 194.72 19.70 199.38 19.73
  C 201.73 19.75 203.58 20.25 205.79 20.75
  L 205.27 21.12
  Q 204.88 21.40 204.44 21.25
  C 199.90 19.76 195.60 20.45 190.91 19.73
  C 185.96 18.96 181.49 20.17 176.43 19.12
  C 170.68 17.93 165.00 18.80 159.13 17.89
  Q 157.06 17.57 153.97 17.29
  C 150.53 16.98 147.73 15.96 144.14 16.10
  Q 140.36 16.24 136.75 15.04
  Z"
/>
<path fill="#6d696b" d="
  M 137.50 27.04
  Q 138.16 27.14 138.75 26.85
  Q 140.41 26.02 138.83 25.04
  L 130.26 19.71
  Q 133.53 20.60 137.65 22.84
  Q 139.83 24.02 140.18 26.09
  Q 140.27 26.63 139.78 26.88
  Q 138.59 27.49 137.50 27.04
  Z"
/>
<path fill="#cecece" d="
  M 132.00 26.71
  L 121.25 26.96
  Q 126.59 25.69 132.00 26.71
  Z"
/>
<path fill="#000000" d="
  M 213.54 29.75
  C 214.02 27.36 202.79 29.01 199.98 29.37
  C 188.93 30.80 177.70 32.16 166.89 34.92
  C 159.09 36.91 151.90 38.08 143.51 41.31
  Q 136.92 43.84 129.31 47.84
  C 119.01 53.26 109.48 58.66 100.76 65.94
  Q 96.57 69.43 89.64 76.97
  C 83.96 83.13 77.49 88.97 72.42 95.61
  C 67.08 102.61 61.96 110.95 58.31 119.16
  C 56.36 123.55 53.81 127.70 52.39 132.16
  C 48.58 144.17 46.71 152.08 44.21 161.64
  C 42.27 169.05 42.20 176.46 41.36 183.96
  C 41.03 186.91 40.12 190.66 40.06 194.75
  Q 39.84 209.70 41.67 221.31
  Q 42.09 223.98 41.53 227.69
  C 40.77 232.73 41.38 237.41 40.75 242.52
  A 0.66 0.66 0.0 0 1 39.75 243.01
  L 39.40 242.81
  Q 39.10 242.63 39.27 242.33
  Q 40.03 241.04 39.00 239.29
  Q 39.86 238.54 39.50 237.46
  Q 38.43 232.97 39.20 226.76
  C 39.96 220.55 38.31 212.44 38.14 206.99
  Q 37.96 201.02 37.97 195.05
  C 37.99 189.70 39.02 184.39 39.72 178.98
  C 40.28 174.68 39.99 168.83 40.96 164.74
  Q 46.64 140.85 50.53 130.01
  Q 52.42 124.73 59.83 111.02
  C 67.40 97.02 77.21 87.06 87.57 75.54
  C 103.72 57.57 127.00 44.57 150.48 36.43
  Q 153.56 35.36 159.28 34.36
  C 164.30 33.48 169.22 31.60 173.96 30.89
  Q 191.81 28.20 204.81 27.05
  Q 208.69 26.71 213.51 27.98
  Q 213.99 28.11 213.98 28.61
  Q 213.97 29.19 213.54 29.75
  Z"
/>
<path fill="#6d696b" d="
  M 103.86 28.67
  C 98.56 35.82 112.78 32.52 112.87 39.84
  Q 112.88 40.38 112.34 40.41
  L 107.50 40.71
  L 110.64 39.57
  Q 111.16 39.38 111.21 38.82
  C 111.52 35.25 104.23 36.44 102.67 33.14
  Q 101.59 30.86 103.86 28.67
  Z"
/>
<path fill="#6d696b" d="
  M 209.25 34.29
  C 204.02 37.63 201.17 35.64 196.32 36.74
  C 190.68 38.02 185.09 38.46 179.42 39.98
  C 174.89 41.19 170.07 41.34 165.91 43.06
  C 161.93 44.70 157.79 44.69 154.02 46.37
  Q 147.17 49.43 140.03 51.79
  C 145.91 48.81 151.83 46.13 158.34 44.66
  C 162.42 43.74 166.09 41.65 170.02 41.12
  C 172.51 40.78 174.82 40.74 177.26 39.93
  C 183.11 37.97 188.87 37.35 194.84 36.04
  C 198.20 35.30 201.63 35.73 204.75 35.16
  Q 207.00 34.74 209.25 34.29
  Z"
/>
<path fill="#6d696b" d="
  M 99.79 40.75
  L 96.00 41.46
  Q 89.81 42.72 83.50 42.46
  L 78.75 41.96
  L 99.79 40.75
  Z"
/>
<path fill="#cecece" d="
  M 99.79 40.75
  L 104.75 40.79
  L 104.60 41.07
  Q 104.47 41.31 104.19 41.32
  L 96.00 41.46
  L 99.79 40.75
  Z"
/>
<path fill="#cecece" d="
  M 78.75 41.96
  L 83.50 42.46
  Q 79.65 42.29 76.08 43.65
  Q 75.51 43.86 75.52 44.48
  Q 75.58 47.14 78.25 48.46
  L 77.00 48.79
  Q 74.00 46.67 74.58 42.91
  Q 74.66 42.42 75.15 42.36
  L 78.75 41.96
  Z"
/>
<path fill="#6d696b" d="
  M 78.25 48.46
  C 83.06 49.87 87.85 51.62 88.58 56.97
  Q 88.65 57.47 88.17 57.35
  Q 81.73 55.84 75.29 56.88
  Q 74.98 56.71 74.50 56.71
  C 78.38 54.84 82.86 55.73 86.42 55.95
  Q 87.15 56.00 86.84 55.34
  C 85.16 51.64 80.45 50.37 77.00 48.79
  L 78.25 48.46
  Z"
/>
<path fill="#cecece" d="
  M 74.50 56.71
  Q 74.98 56.71 75.29 56.88
  Q 70.76 58.72 66.00 57.79
  L 74.50 56.71
  Z"
/>
<path fill="#cecece" d="
  M 58.50 62.79
  Q 60.10 63.06 61.29 64.25
  L 60.25 64.54
  Q 58.97 64.07 58.50 62.79
  Z"
/>
<path fill="#6d696b" d="
  M 61.29 64.25
  L 70.34 66.99
  Q 70.96 67.18 70.92 67.83
  L 70.74 70.51
  Q 70.70 71.09 70.14 71.24
  Q 65.86 72.35 61.50 72.46
  L 69.48 70.93
  Q 70.01 70.83 70.22 70.33
  C 70.80 69.00 69.80 67.95 68.48 67.58
  Q 64.23 66.40 60.25 64.54
  L 61.29 64.25
  Z"
/>
<path fill="#6d696b" d="
  M 43.50 82.54
  L 55.90 84.54
  A 1.57 1.57 0.0 0 1 57.05 86.80
  Q 55.99 88.91 54.00 88.71
  Q 56.17 87.90 55.57 86.00
  Q 55.41 85.50 54.91 85.40
  C 51.42 84.67 46.39 84.47 43.50 82.54
  Z"
/>
<path fill="#000000" d="
  M 33.50 100.29
  Q 39.41 100.35 44.66 102.79
  L 43.96 103.50
  L 43.73 103.17
  Q 43.51 102.85 43.12 102.78
  C 39.55 102.10 35.64 102.11 33.50 100.29
  Z"
/>
<path fill="#6d696b" d="
  M 44.66 102.79
  Q 44.99 105.81 43.50 106.46
  L 42.75 106.21
  L 43.96 103.50
  L 44.66 102.79
  Z"
/>
<path fill="#cecece" d="
  M 42.75 106.21
  L 43.50 106.46
  Q 42.28 107.53 40.75 107.21
  L 42.75 106.21
  Z"
/>
<path fill="#6d696b" d="
  M 27.25 119.79
  L 37.19 122.31
  Q 37.76 122.45 37.53 122.99
  L 37.21 123.75
  C 36.74 122.88 29.32 121.22 27.25 119.79
  Z"
/>
<path fill="#000000" d="
  M 31.71 146.25
  L 31.15 145.80
  Q 30.74 145.47 30.21 145.55
  Q 24.70 146.44 19.46 144.72
  L 31.63 144.42
  Q 32.20 144.40 32.23 144.97
  Q 32.27 145.66 31.71 146.25
  Z"
/>
<path fill="#6d696b" d="
  M 262.46 195.25
  L 262.21 197.75
  C 261.77 191.18 258.28 192.31 253.72 190.50
  C 242.17 185.92 233.45 179.92 224.36 170.72
  C 217.24 163.51 212.76 157.10 206.91 151.62
  Q 206.64 150.10 204.75 150.21
  C 205.87 149.19 206.92 149.51 207.84 150.62
  C 222.34 168.07 234.53 182.15 255.53 189.21
  C 259.22 190.45 261.86 190.29 262.46 195.25
  Z"
/>
<path fill="#000000" d="
  M 204.75 150.21
  Q 206.64 150.10 206.91 151.62
  Q 204.91 153.44 203.19 155.45
  C 195.65 164.25 190.72 167.81 187.77 179.15
  Q 186.49 184.04 186.41 190.46
  Q 186.23 205.69 187.03 210.26
  Q 193.14 245.23 214.45 273.54
  A 1.04 1.02 70.5 0 0 215.29 273.95
  Q 227.31 273.77 239.31 273.75
  C 244.61 273.74 244.84 275.80 244.92 280.31
  Q 245.25 299.75 244.82 319.19
  Q 244.81 319.77 245.35 319.97
  Q 248.11 321.03 251.25 320.54
  L 243.90 320.94
  Q 243.35 320.97 243.20 320.44
  C 242.35 317.51 242.72 315.15 242.72 312.49
  Q 242.69 295.69 243.05 278.91
  C 243.08 277.76 242.72 276.88 242.45 275.75
  Q 242.34 275.31 241.94 275.09
  C 239.03 273.50 236.45 274.82 234.07 274.77
  Q 223.87 274.55 214.09 274.70
  A 2.01 2.01 0.0 0 1 212.45 273.88
  C 203.69 261.80 196.05 248.80 191.21 234.69
  C 187.64 224.26 184.26 213.04 184.24 201.90
  C 184.24 194.24 183.44 185.28 185.36 178.22
  C 188.71 165.93 196.61 159.50 204.75 150.21
  Z"
/>
<path fill="#000000" d="
  M 32.46 167.25
  Q 31.03 166.59 30.25 166.75
  Q 25.41 167.77 20.11 165.43
  C 22.92 165.42 32.50 164.03 32.46 167.25
  Z"
/>
<path fill="#cecece" d="
  M 312.46 191.25
  Q 310.58 190.53 311.41 188.67
  Q 311.64 188.18 311.38 187.71
  Q 310.57 186.22 310.71 184.50
  L 310.85 181.42
  Q 310.88 180.82 311.46 180.63
  L 311.83 180.52
  Q 312.41 180.34 312.61 180.90
  Q 314.49 186.08 312.46 191.25
  Z"
/>
<path fill="#6d696b" d="
  M 310.29 184.50
  L 310.71 184.50
  Q 310.57 186.22 311.38 187.71
  Q 311.64 188.18 311.41 188.67
  Q 310.58 190.53 312.46 191.25
  Q 313.07 195.99 309.13 198.09
  L 310.29 184.50
  Z"
/>
<path fill="#cecece" d="
  M 34.04 227.50
  Q 34.51 227.76 34.54 228.34
  Q 34.57 228.88 35.09 228.74
  L 35.96 228.50
  L 36.25 230.71
  L 36.90 236.95
  Q 36.95 237.44 37.06 236.96
  L 37.46 235.25
  Q 37.55 237.25 39.50 237.46
  Q 39.86 238.54 39.00 239.29
  Q 37.88 240.26 38.06 241.85
  Q 38.12 242.35 37.63 242.25
  C 33.62 241.45 34.05 231.31 34.04 227.50
  Z"
/>
<path fill="#000000" d="
  M 37.46 232.75
  Q 37.11 231.48 36.25 230.71
  L 35.96 228.50
  Q 36.06 228.21 36.30 228.09
  Q 36.83 227.82 36.91 228.42
  L 37.46 232.75
  Z"
/>
<path fill="#6d696b" d="
  M 65.76 268.68
  C 70.08 269.13 67.88 271.70 69.29 273.79
  Q 69.59 274.23 69.10 274.44
  Q 68.38 274.75 67.50 274.21
  L 68.15 274.03
  Q 68.65 273.89 68.55 273.37
  Q 68.02 270.57 65.76 268.68
  Z"
/>
<path fill="#6d696b" d="
  M 47.75 273.79
  L 50.25 274.21
  L 42.50 274.21
  Q 45.05 273.40 47.75 273.79
  Z"
/>
<path fill="#000000" d="
  M 47.75 273.79
  Q 56.02 273.42 64.25 274.21
  L 50.25 274.21
  L 47.75 273.79
  Z"
/>
<path fill="#cecece" d="
  M 41.04 287.00
  C 42.06 298.08 42.26 306.67 41.43 321.55
  L 41.21 318.75
  L 41.04 287.00
  Z"
/>
<path fill="#000000" d="
  M 88.41 299.28
  L 88.97 297.51
  Q 89.14 297.00 89.68 297.00
  L 90.62 297.00
  Q 91.23 297.00 91.23 297.62
  L 91.29 316.36
  Q 91.29 316.86 90.81 317.00
  C 89.70 317.32 89.13 316.58 88.97 315.52
  C 88.35 311.24 86.94 305.02 83.40 301.84
  C 79.18 298.05 73.96 300.13 72.55 305.53
  C 68.08 322.74 89.47 320.74 92.59 335.17
  C 94.37 343.42 92.03 355.36 82.93 358.29
  Q 76.23 360.45 70.17 355.10
  Q 69.50 354.51 69.21 355.34
  L 68.51 357.33
  Q 68.29 357.94 67.63 357.94
  L 66.74 357.94
  Q 66.09 357.94 66.08 357.30
  L 65.77 337.65
  Q 65.77 337.14 66.28 337.09
  L 67.37 336.98
  Q 68.00 336.91 68.08 337.55
  C 68.85 343.83 72.55 355.91 80.96 355.01
  C 89.60 354.10 88.75 341.57 85.50 336.35
  C 82.41 331.39 75.40 330.36 71.47 325.94
  C 61.55 314.77 69.05 286.43 87.53 299.58
  Q 88.17 300.03 88.41 299.28
  Z"
/>
<path fill="#000000" d="
  M 200.32 355.36
  C 199.76 356.36 199.42 358.72 197.58 357.90
  Q 197.09 357.68 197.08 357.15
  L 196.72 337.57
  Q 196.71 337.04 197.24 337.02
  L 198.40 336.99
  Q 199.01 336.98 199.09 337.58
  C 199.74 342.62 201.69 349.07 205.48 352.63
  C 210.17 357.04 216.72 355.50 218.36 348.85
  C 222.98 330.07 202.41 333.34 198.73 319.06
  Q 197.06 312.56 198.78 306.58
  C 201.53 297.01 209.76 292.42 218.49 299.67
  Q 218.98 300.08 219.21 299.49
  L 219.98 297.56
  Q 220.20 297.00 220.80 297.00
  L 221.61 297.00
  Q 222.22 297.00 222.23 297.61
  L 222.30 316.31
  Q 222.30 316.74 221.89 316.89
  Q 220.15 317.53 220.00 316.02
  Q 219.27 308.76 216.00 303.55
  C 212.21 297.52 204.68 299.38 203.34 306.24
  C 199.98 323.49 221.29 320.51 223.87 336.42
  C 225.99 349.49 216.16 366.93 201.16 355.19
  Q 200.64 354.79 200.32 355.36
  Z"
/>
<path fill="#000000" d="
  M 123.79 325.76
  C 137.86 328.88 139.23 350.75 127.12 356.61
  C 121.64 359.27 109.87 358.03 103.44 357.99
  Q 102.75 357.98 102.75 357.29
  L 102.75 355.53
  Q 102.75 354.85 103.43 354.86
  C 107.51 354.86 108.24 352.32 108.24 348.70
  Q 108.26 327.34 108.25 306.00
  Q 108.25 300.88 103.63 300.04
  Q 103.00 299.93 103.00 299.29
  L 103.00 297.52
  Q 103.00 297.01 103.51 297.01
  C 115.51 296.96 136.41 293.11 132.72 314.00
  Q 131.31 322.00 123.73 325.08
  A 0.36 0.36 0.0 0 0 123.79 325.76
  Z
  M 122.56 301.69
  Q 119.54 300.26 114.67 301.25
  Q 114.25 301.33 114.25 301.76
  L 114.25 323.25
  Q 114.25 323.64 114.63 323.74
  C 128.60 327.46 128.90 304.69 122.56 301.69
  Z
  M 114.28 349.34
  C 114.31 354.23 120.09 354.96 123.24 353.24
  C 130.12 349.49 130.22 333.30 123.55 328.99
  C 121.14 327.44 117.68 328.00 114.80 328.00
  Q 114.27 328.00 114.27 328.53
  Q 114.21 338.97 114.28 349.34
  Z"
/>
<path fill="#000000" d="
  M 173.98 354.51
  A 2.51 2.51 0.0 0 0 175.99 352.05
  L 176.00 328.50
  Q 176.01 328.00 175.50 328.00
  L 157.77 328.00
  Q 157.21 328.00 157.22 328.56
  Q 157.30 339.18 157.24 349.66
  C 157.23 352.80 158.43 354.67 161.62 354.85
  Q 162.25 354.88 162.25 355.51
  L 162.25 357.37
  Q 162.25 358.00 161.63 358.00
  L 146.37 358.00
  Q 145.73 358.00 145.74 357.37
  L 145.77 355.37
  Q 145.78 354.76 146.38 354.82
  Q 151.20 355.34 151.21 350.76
  Q 151.29 328.37 151.30 306.00
  Q 151.30 300.90 146.42 300.09
  Q 145.75 299.98 145.75 299.31
  L 145.75 297.63
  Q 145.75 297.00 146.37 297.00
  L 161.75 297.00
  Q 162.25 297.00 162.25 297.50
  L 162.25 299.46
  Q 162.25 300.03 161.68 300.06
  C 158.92 300.21 157.23 301.50 157.25 304.48
  Q 157.29 313.99 157.21 323.44
  Q 157.21 324.00 157.77 324.00
  L 175.48 324.00
  Q 175.99 324.00 175.99 323.49
  Q 176.01 314.84 176.01 306.21
  C 176.00 302.70 175.07 300.55 171.39 300.18
  Q 170.75 300.11 170.75 299.47
  L 170.75 297.63
  Q 170.75 297.00 171.38 297.00
  L 186.75 297.00
  Q 187.25 297.00 187.25 297.50
  L 187.25 299.49
  Q 187.25 300.13 186.60 300.14
  Q 182.12 300.21 182.05 304.50
  Q 181.78 321.51 182.15 349.97
  C 182.19 353.04 183.71 354.69 186.67 354.91
  Q 187.25 354.95 187.25 355.54
  L 187.25 357.50
  Q 187.25 358.00 186.75 358.00
  L 171.37 358.00
  Q 170.75 358.00 170.75 357.38
  L 170.75 355.73
  Q 170.75 355.18 171.29 355.07
  L 173.98 354.51
  Z"
/>
<path fill="#ffffff" d="
  M 122.56 301.69
  C 128.90 304.69 128.60 327.46 114.63 323.74
  Q 114.25 323.64 114.25 323.25
  L 114.25 301.76
  Q 114.25 301.33 114.67 301.25
  Q 119.54 300.26 122.56 301.69
  Z"
/>
<path fill="#000000" d="
  M 41.21 318.75
  L 41.43 321.55
  C 33.31 323.17 22.61 321.90 14.25 321.46
  Q 26.49 320.66 38.72 321.43
  C 40.73 321.56 41.48 320.78 41.21 318.75
  Z"
/>
<path fill="#000000" d="
  M 282.61 320.49
  Q 284.12 321.03 284.86 323.15
  Q 285.27 324.34 285.25 326.44
  Q 285.07 349.69 285.25 373.00
  Q 285.28 376.91 284.45 380.87
  A 1.10 1.09 -84.2 0 1 283.38 381.75
  C 195.50 381.73 107.58 382.19 19.69 381.68
  Q 8.73 381.62 2.50 381.03
  L 279.75 380.71
  L 281.95 380.74
  Q 282.45 380.74 282.50 380.24
  C 282.66 378.47 282.97 376.56 282.99 374.84
  Q 283.34 347.69 282.61 320.49
  Z"
/>
<path fill="#6d696b" d="
  M 0.00 326.19
  Q 0.10 326.22 0.21 326.25
  L 0.21 331.50
  Q 0.10 331.47 0.00 331.44
  L 0.00 326.19
  Z"
/>
<path fill="#ffffff" d="
  M 123.24 353.24
  C 120.09 354.96 114.31 354.23 114.28 349.34
  Q 114.21 338.97 114.27 328.53
  Q 114.27 328.00 114.80 328.00
  C 117.68 328.00 121.14 327.44 123.55 328.99
  C 130.22 333.30 130.12 349.49 123.24 353.24
  Z"
/>
<path fill="#cecece" d="
  M 279.75 380.71
  L 2.50 381.03
  Q 1.58 381.16 0.77 380.94
  Q 0.23 380.80 0.26 380.24
  Q 0.30 379.42 0.00 378.69
  L 0.00 375.94
  Q 1.68 375.68 4.50 375.70
  Q 45.90 375.97 103.15 375.75
  C 106.70 375.74 110.66 376.51 114.50 376.51
  Q 178.85 376.51 243.19 376.50
  Q 243.63 376.50 243.93 376.19
  L 244.18 375.95
  Q 244.37 375.75 244.66 375.77
  Q 252.08 376.25 259.45 377.27
  C 265.76 378.15 274.44 376.88 279.75 380.71
  Z"
/>
</svg>
